<?xml version="1.0" encoding="UTF-8" standalone="no"?>
<!DOCTYPE svg PUBLIC "-//W3C//DTD SVG 1.1//EN"
 "http://www.w3.org/Graphics/SVG/1.1/DTD/svg11.dtd">
<!-- Generated by graphviz version 8.0.3 (0)
 -->
<!-- Pages: 1 -->
<svg width="303pt" height="252pt"
 viewBox="0.00 0.00 302.64 252.40" xmlns="http://www.w3.org/2000/svg" xmlns:xlink="http://www.w3.org/1999/xlink">
<g id="graph0" class="graph" transform="scale(1 1) rotate(0) translate(4 248.4)">
<polygon fill="white" stroke="none" points="-4,4 -4,-248.4 298.64,-248.4 298.64,4 -4,4"/>
<!-- d -->
<g id="node1" class="node">
<title>d</title>
<ellipse fill="none" stroke="black" cx="207.48" cy="-18" rx="27" ry="18"/>
<text text-anchor="middle" x="207.48" y="-14.3" font-family="Times,serif" font-size="14.00">d</text>
</g>
<!-- b -->
<g id="node3" class="node">
<title>b</title>
<ellipse fill="none" stroke="black" cx="207.48" cy="-226.4" rx="27" ry="18"/>
<text text-anchor="middle" x="207.48" y="-222.7" font-family="Times,serif" font-size="14.00">b</text>
</g>
<!-- d&#45;&#45;b -->
<g id="edge1" class="edge">
<title>d&#45;&#45;b</title>
<path fill="none" stroke="black" d="M207.48,-36.49C207.48,-76.04 207.48,-168.44 207.48,-207.95"/>
</g>
<!-- c -->
<g id="node4" class="node">
<title>c</title>
<ellipse fill="none" stroke="black" cx="87.16" cy="-226.4" rx="27" ry="18"/>
<text text-anchor="middle" x="87.16" y="-222.7" font-family="Times,serif" font-size="14.00">c</text>
</g>
<!-- d&#45;&#45;c -->
<g id="edge2" class="edge">
<title>d&#45;&#45;c</title>
<path fill="none" stroke="black" d="M197.64,-35.05C175.02,-74.23 119.56,-170.28 96.97,-209.4"/>
</g>
<!-- a -->
<g id="node5" class="node">
<title>a</title>
<ellipse fill="none" stroke="black" cx="87.16" cy="-18" rx="27" ry="18"/>
<text text-anchor="middle" x="87.16" y="-14.3" font-family="Times,serif" font-size="14.00">a</text>
</g>
<!-- d&#45;&#45;a -->
<g id="edge3" class="edge">
<title>d&#45;&#45;a</title>
<path fill="none" stroke="black" d="M180.18,-18C160.49,-18 134.02,-18 114.36,-18"/>
</g>
<!-- f -->
<g id="node6" class="node">
<title>f</title>
<ellipse fill="none" stroke="black" cx="27" cy="-122.2" rx="27" ry="18"/>
<text text-anchor="middle" x="27" y="-118.5" font-family="Times,serif" font-size="14.00">f</text>
</g>
<!-- d&#45;&#45;f -->
<g id="edge4" class="edge">
<title>d&#45;&#45;f</title>
<path fill="none" stroke="black" d="M186.78,-29.95C152.06,-50 82.48,-90.17 47.74,-110.23"/>
</g>
<!-- e -->
<g id="node2" class="node">
<title>e</title>
<ellipse fill="none" stroke="black" cx="267.64" cy="-122.2" rx="27" ry="18"/>
<text text-anchor="middle" x="267.64" y="-118.5" font-family="Times,serif" font-size="14.00">e</text>
</g>
<!-- e&#45;&#45;b -->
<g id="edge6" class="edge">
<title>e&#45;&#45;b</title>
<path fill="none" stroke="black" d="M252.92,-137.27C239.62,-156.07 221.25,-188.04 212.23,-208.19"/>
</g>
<!-- e&#45;&#45;c -->
<g id="edge5" class="edge">
<title>e&#45;&#45;c</title>
<path fill="none" stroke="black" d="M246.94,-134.15C212.22,-154.2 142.65,-194.37 107.9,-214.43"/>
</g>
<!-- e&#45;&#45;f -->
<g id="edge7" class="edge">
<title>e&#45;&#45;f</title>
<path fill="none" stroke="black" d="M240.51,-122.2C194.29,-122.2 100.81,-122.2 54.41,-122.2"/>
</g>
<!-- b&#45;&#45;e -->
<g id="edge10" class="edge">
<title>b&#45;&#45;e</title>
<path fill="none" stroke="black" d="M222.21,-211.33C235.5,-192.53 253.88,-160.56 262.9,-140.41"/>
</g>
<!-- b&#45;&#45;f -->
<g id="edge11" class="edge">
<title>b&#45;&#45;f</title>
<path fill="none" stroke="black" d="M186.78,-214.45C152.06,-194.4 82.48,-154.24 47.74,-134.18"/>
</g>
<!-- c&#45;&#45;b -->
<g id="edge8" class="edge">
<title>c&#45;&#45;b</title>
<path fill="none" stroke="black" d="M114.46,-226.4C134.15,-226.4 160.62,-226.4 180.29,-226.4"/>
</g>
<!-- c&#45;&#45;a -->
<g id="edge9" class="edge">
<title>c&#45;&#45;a</title>
<path fill="none" stroke="black" d="M87.16,-207.91C87.16,-168.36 87.16,-75.96 87.16,-36.45"/>
</g>
<!-- a&#45;&#45;f -->
<g id="edge12" class="edge">
<title>a&#45;&#45;f</title>
<path fill="none" stroke="black" d="M77.23,-35.21C66.08,-54.51 48.1,-85.65 36.95,-104.97"/>
</g>
</g>
</svg>
