<?xml version="1.0" encoding="UTF-8" standalone="no"?>
<!DOCTYPE svg PUBLIC "-//W3C//DTD SVG 1.1//EN"
 "http://www.w3.org/Graphics/SVG/1.1/DTD/svg11.dtd">
<!-- Generated by graphviz version 7.1.0 (0)
 -->
<!-- Pages: 1 -->
<svg width="612pt" height="490pt"
 viewBox="0.00 0.00 611.62 490.22" xmlns="http://www.w3.org/2000/svg" xmlns:xlink="http://www.w3.org/1999/xlink">
<g id="graph0" class="graph" transform="scale(1 1) rotate(0) translate(4 486.22)">
<polygon fill="white" stroke="none" points="-4,4 -4,-486.22 607.62,-486.22 607.62,4 -4,4"/>
<!-- a -->
<g id="node1" class="node">
<title>a</title>
<ellipse fill="none" stroke="black" cx="360" cy="-462.8" rx="27" ry="18"/>
<text text-anchor="middle" x="360" y="-459.1" font-family="Times,serif" font-size="14.00">a</text>
</g>
<!-- b -->
<g id="node2" class="node">
<title>b</title>
<ellipse fill="none" stroke="black" cx="576.62" cy="-464.22" rx="27" ry="18"/>
<text text-anchor="middle" x="576.62" y="-460.52" font-family="Times,serif" font-size="14.00">b</text>
</g>
<!-- a&#45;&#45;b -->
<g id="edge1" class="edge">
<title>a&#45;&#45;b</title>
<path fill="none" stroke="black" d="M387.43,-462.98C429.1,-463.26 507.87,-463.77 549.41,-464.04"/>
</g>
<!-- c -->
<g id="node3" class="node">
<title>c</title>
<ellipse fill="none" stroke="black" cx="469.78" cy="-277" rx="27" ry="18"/>
<text text-anchor="middle" x="469.78" y="-273.3" font-family="Times,serif" font-size="14.00">c</text>
</g>
<!-- a&#45;&#45;c -->
<g id="edge2" class="edge">
<title>a&#45;&#45;c</title>
<path fill="none" stroke="black" d="M370.13,-445.65C391.04,-410.26 438.78,-329.47 459.67,-294.11"/>
</g>
<!-- c&#45;&#45;b -->
<g id="edge3" class="edge">
<title>c&#45;&#45;b</title>
<path fill="none" stroke="black" d="M479.45,-293.94C499.74,-329.5 546.56,-411.54 566.89,-447.18"/>
</g>
<!-- d -->
<g id="node4" class="node">
<title>d</title>
<ellipse fill="none" stroke="black" cx="27" cy="-18" rx="27" ry="18"/>
<text text-anchor="middle" x="27" y="-14.3" font-family="Times,serif" font-size="14.00">d</text>
</g>
<!-- e -->
<g id="node5" class="node">
<title>e</title>
<ellipse fill="none" stroke="black" cx="222.38" cy="-105.16" rx="27" ry="18"/>
<text text-anchor="middle" x="222.38" y="-101.46" font-family="Times,serif" font-size="14.00">e</text>
</g>
<!-- d&#45;&#45;e -->
<g id="edge5" class="edge">
<title>d&#45;&#45;e</title>
<path fill="none" stroke="black" d="M49.8,-28.17C87.44,-44.96 162.18,-78.31 199.73,-95.06"/>
</g>
<!-- f -->
<g id="node6" class="node">
<title>f</title>
<ellipse fill="none" stroke="black" cx="97.11" cy="-229.23" rx="27" ry="18"/>
<text text-anchor="middle" x="97.11" y="-225.53" font-family="Times,serif" font-size="14.00">f</text>
</g>
<!-- d&#45;&#45;f -->
<g id="edge4" class="edge">
<title>d&#45;&#45;f</title>
<path fill="none" stroke="black" d="M32.98,-36.01C46.22,-75.92 77.91,-171.4 91.14,-211.27"/>
</g>
<!-- e&#45;&#45;f -->
<g id="edge6" class="edge">
<title>e&#45;&#45;f</title>
<path fill="none" stroke="black" d="M207.02,-120.38C182.85,-144.32 136.21,-190.5 112.2,-214.28"/>
</g>
<!-- g -->
<g id="node7" class="node">
<title>g</title>
<ellipse fill="none" stroke="black" cx="163.42" cy="-379.52" rx="27" ry="18"/>
<text text-anchor="middle" x="163.42" y="-375.82" font-family="Times,serif" font-size="14.00">g</text>
</g>
<!-- e&#45;&#45;g -->
<g id="edge7" class="edge">
<title>e&#45;&#45;g</title>
<path fill="none" stroke="black" d="M218.51,-123.16C207.83,-172.88 178,-311.66 167.3,-361.45"/>
</g>
<!-- f&#45;&#45;g -->
<g id="edge9" class="edge">
<title>f&#45;&#45;g</title>
<path fill="none" stroke="black" d="M104.84,-246.76C117.62,-275.72 142.99,-333.21 155.73,-362.09"/>
</g>
<!-- h -->
<g id="node8" class="node">
<title>h</title>
<ellipse fill="none" stroke="black" cx="339.1" cy="-354.31" rx="27" ry="18"/>
<text text-anchor="middle" x="339.1" y="-350.61" font-family="Times,serif" font-size="14.00">h</text>
</g>
<!-- f&#45;&#45;h -->
<g id="edge8" class="edge">
<title>f&#45;&#45;h</title>
<path fill="none" stroke="black" d="M118.58,-240.33C164.39,-264.01 271.25,-319.24 317.33,-343.05"/>
</g>
<!-- g&#45;&#45;h -->
<g id="edge10" class="edge">
<title>g&#45;&#45;h</title>
<path fill="none" stroke="black" d="M190.1,-375.69C223.22,-370.94 279.36,-362.88 312.46,-358.13"/>
</g>
</g>
</svg>
