<?xml version="1.0" encoding="UTF-8" standalone="no"?>
<!DOCTYPE svg PUBLIC "-//W3C//DTD SVG 1.1//EN"
 "http://www.w3.org/Graphics/SVG/1.1/DTD/svg11.dtd">
<!-- Generated by graphviz version 7.1.0 (0)
 -->
<!-- Pages: 1 -->
<svg width="412pt" height="399pt"
 viewBox="0.00 0.00 412.08 399.48" xmlns="http://www.w3.org/2000/svg" xmlns:xlink="http://www.w3.org/1999/xlink">
<g id="graph0" class="graph" transform="scale(1 1) rotate(0) translate(4 395.48)">
<polygon fill="white" stroke="none" points="-4,4 -4,-395.48 408.08,-395.48 408.08,4 -4,4"/>
<!-- 1 -->
<g id="node1" class="node">
<title>1</title>
<ellipse fill="none" stroke="black" cx="106.36" cy="-39.44" rx="27" ry="18"/>
<text text-anchor="middle" x="106.36" y="-35.74" font-family="Times,serif" font-size="14.00">1</text>
</g>
<!-- 2 -->
<g id="node2" class="node">
<title>2</title>
<ellipse fill="none" stroke="black" cx="27" cy="-134.01" rx="27" ry="18"/>
<text text-anchor="middle" x="27" y="-130.31" font-family="Times,serif" font-size="14.00">2</text>
</g>
<!-- 1&#45;&#45;2 -->
<g id="edge1" class="edge">
<title>1&#45;&#45;2</title>
<path fill="none" stroke="black" d="M92.89,-55.48C78.21,-72.98 54.87,-100.8 40.26,-118.21"/>
</g>
<!-- 3 -->
<g id="node3" class="node">
<title>3</title>
<ellipse fill="none" stroke="black" cx="27" cy="-257.47" rx="27" ry="18"/>
<text text-anchor="middle" x="27" y="-253.77" font-family="Times,serif" font-size="14.00">3</text>
</g>
<!-- 1&#45;&#45;3 -->
<g id="edge10" class="edge">
<title>1&#45;&#45;3</title>
<path fill="none" stroke="black" d="M99.86,-57.28C84.94,-98.27 48.37,-198.76 33.47,-239.69"/>
</g>
<!-- 4 -->
<g id="node4" class="node">
<title>4</title>
<ellipse fill="none" stroke="black" cx="106.36" cy="-352.04" rx="27" ry="18"/>
<text text-anchor="middle" x="106.36" y="-348.34" font-family="Times,serif" font-size="14.00">4</text>
</g>
<!-- 1&#45;&#45;4 -->
<g id="edge19" class="edge">
<title>1&#45;&#45;4</title>
<path fill="none" stroke="black" d="M106.36,-57.6C106.36,-112.85 106.36,-278.52 106.36,-333.83"/>
</g>
<!-- 2&#45;&#45;3 -->
<g id="edge2" class="edge">
<title>2&#45;&#45;3</title>
<path fill="none" stroke="black" d="M27,-152.49C27,-175.9 27,-215.99 27,-239.26"/>
</g>
<!-- 2&#45;&#45;4 -->
<g id="edge11" class="edge">
<title>2&#45;&#45;4</title>
<path fill="none" stroke="black" d="M33.49,-151.85C48.41,-192.84 84.99,-293.33 99.88,-334.26"/>
</g>
<!-- 5 -->
<g id="node5" class="node">
<title>5</title>
<ellipse fill="none" stroke="black" cx="227.94" cy="-373.48" rx="27" ry="18"/>
<text text-anchor="middle" x="227.94" y="-369.78" font-family="Times,serif" font-size="14.00">5</text>
</g>
<!-- 2&#45;&#45;5 -->
<g id="edge20" class="edge">
<title>2&#45;&#45;5</title>
<path fill="none" stroke="black" d="M40.5,-150.1C77.1,-193.72 177.96,-313.92 214.5,-357.47"/>
</g>
<!-- 3&#45;&#45;4 -->
<g id="edge3" class="edge">
<title>3&#45;&#45;4</title>
<path fill="none" stroke="black" d="M40.46,-273.51C55.14,-291.01 78.49,-318.83 93.09,-336.24"/>
</g>
<!-- 3&#45;&#45;5 -->
<g id="edge12" class="edge">
<title>3&#45;&#45;5</title>
<path fill="none" stroke="black" d="M47.75,-269.45C86.35,-291.73 168.78,-339.33 207.3,-361.57"/>
</g>
<!-- 6 -->
<g id="node6" class="node">
<title>6</title>
<ellipse fill="none" stroke="black" cx="377.08" cy="-195.74" rx="27" ry="18"/>
<text text-anchor="middle" x="377.08" y="-192.04" font-family="Times,serif" font-size="14.00">6</text>
</g>
<!-- 3&#45;&#45;6 -->
<g id="edge21" class="edge">
<title>3&#45;&#45;6</title>
<path fill="none" stroke="black" d="M53.6,-252.78C118.7,-241.3 285.46,-211.89 350.52,-200.42"/>
</g>
<!-- 4&#45;&#45;5 -->
<g id="edge4" class="edge">
<title>4&#45;&#45;5</title>
<path fill="none" stroke="black" d="M132.74,-356.69C153.13,-360.29 181.23,-365.24 201.61,-368.84"/>
</g>
<!-- 4&#45;&#45;6 -->
<g id="edge13" class="edge">
<title>4&#45;&#45;6</title>
<path fill="none" stroke="black" d="M127.15,-340.04C177.54,-310.94 305.75,-236.92 356.21,-207.79"/>
</g>
<!-- 7 -->
<g id="node7" class="node">
<title>7</title>
<ellipse fill="none" stroke="black" cx="334.85" cy="-311.75" rx="27" ry="18"/>
<text text-anchor="middle" x="334.85" y="-308.05" font-family="Times,serif" font-size="14.00">7</text>
</g>
<!-- 4&#45;&#45;7 -->
<g id="edge22" class="edge">
<title>4&#45;&#45;7</title>
<path fill="none" stroke="black" d="M132.57,-347.42C176.53,-339.67 264.61,-324.14 308.6,-316.38"/>
</g>
<!-- 5&#45;&#45;6 -->
<g id="edge5" class="edge">
<title>5&#45;&#45;6</title>
<path fill="none" stroke="black" d="M241.44,-357.39C269.83,-323.55 335.44,-245.36 363.72,-211.66"/>
</g>
<!-- 5&#45;&#45;7 -->
<g id="edge14" class="edge">
<title>5&#45;&#45;7</title>
<path fill="none" stroke="black" d="M248.55,-361.58C267.48,-350.65 295.39,-334.54 314.3,-323.62"/>
</g>
<!-- 6&#45;&#45;7 -->
<g id="edge6" class="edge">
<title>6&#45;&#45;7</title>
<path fill="none" stroke="black" d="M370.57,-213.61C362.62,-235.48 349.23,-272.26 341.3,-294.05"/>
</g>
<!-- 8 -->
<g id="node8" class="node">
<title>8</title>
<ellipse fill="none" stroke="black" cx="334.85" cy="-79.73" rx="27" ry="18"/>
<text text-anchor="middle" x="334.85" y="-76.03" font-family="Times,serif" font-size="14.00">8</text>
</g>
<!-- 6&#45;&#45;8 -->
<g id="edge15" class="edge">
<title>6&#45;&#45;8</title>
<path fill="none" stroke="black" d="M370.57,-177.87C362.62,-156 349.23,-119.22 341.3,-97.43"/>
</g>
<!-- 7&#45;&#45;8 -->
<g id="edge7" class="edge">
<title>7&#45;&#45;8</title>
<path fill="none" stroke="black" d="M334.85,-293.54C334.85,-250.28 334.85,-141.67 334.85,-98.17"/>
</g>
<!-- 9 -->
<g id="node9" class="node">
<title>9</title>
<ellipse fill="none" stroke="black" cx="227.94" cy="-18" rx="27" ry="18"/>
<text text-anchor="middle" x="227.94" y="-14.3" font-family="Times,serif" font-size="14.00">9</text>
</g>
<!-- 7&#45;&#45;9 -->
<g id="edge16" class="edge">
<title>7&#45;&#45;9</title>
<path fill="none" stroke="black" d="M328.33,-293.82C309.19,-241.25 253.4,-87.96 234.38,-35.7"/>
</g>
<!-- 8&#45;&#45;1 -->
<g id="edge17" class="edge">
<title>8&#45;&#45;1</title>
<path fill="none" stroke="black" d="M308.64,-75.11C264.68,-67.36 176.6,-51.82 132.61,-44.07"/>
</g>
<!-- 8&#45;&#45;9 -->
<g id="edge8" class="edge">
<title>8&#45;&#45;9</title>
<path fill="none" stroke="black" d="M314.24,-67.83C295.31,-56.9 267.4,-40.78 248.49,-29.87"/>
</g>
<!-- 9&#45;&#45;1 -->
<g id="edge9" class="edge">
<title>9&#45;&#45;1</title>
<path fill="none" stroke="black" d="M201.56,-22.65C181.16,-26.25 153.07,-31.2 132.69,-34.8"/>
</g>
<!-- 9&#45;&#45;2 -->
<g id="edge18" class="edge">
<title>9&#45;&#45;2</title>
<path fill="none" stroke="black" d="M207.19,-29.98C168.59,-52.27 86.15,-99.86 47.63,-122.1"/>
</g>
</g>
</svg>
