<?xml version="1.0" encoding="utf-8" standalone="no"?>
<!DOCTYPE svg PUBLIC "-//W3C//DTD SVG 1.1//EN"
  "http://www.w3.org/Graphics/SVG/1.1/DTD/svg11.dtd">
<svg xmlns:xlink="http://www.w3.org/1999/xlink" width="795.6pt" height="388.8pt" viewBox="0 0 795.6 388.8" xmlns="http://www.w3.org/2000/svg" version="1.1">
 <metadata>
  <rdf:RDF xmlns:dc="http://purl.org/dc/elements/1.1/" xmlns:cc="http://creativecommons.org/ns#" xmlns:rdf="http://www.w3.org/1999/02/22-rdf-syntax-ns#">
   <cc:Work>
    <dc:type rdf:resource="http://purl.org/dc/dcmitype/StillImage"/>
    <dc:date>2023-04-26T11:02:53.824111</dc:date>
    <dc:format>image/svg+xml</dc:format>
    <dc:creator>
     <cc:Agent>
      <dc:title>Matplotlib v3.7.1, https://matplotlib.org/</dc:title>
     </cc:Agent>
    </dc:creator>
   </cc:Work>
  </rdf:RDF>
 </metadata>
 <defs>
  <style type="text/css">*{stroke-linejoin: round; stroke-linecap: butt}</style>
 </defs>
 <g id="figure_1">
  <g id="patch_1">
   <path d="M 0 388.8 
L 795.6 388.8 
L 795.6 0 
L 0 0 
z
" style="fill: #ffffff"/>
  </g>
  <g id="axes_1">
   <g id="patch_2">
    <path d="M 99.45 134.707765 
L 379.718182 134.707765 
L 379.718182 46.656 
L 99.45 46.656 
z
" style="fill: #ffffff"/>
   </g>
   <g id="matplotlib.axis_1">
    <g id="xtick_1">
     <g id="line2d_1">
      <defs>
       <path id="m7ff9a7a80f" d="M 0 0 
L 0 3.5 
" style="stroke: #000000; stroke-width: 0.8"/>
      </defs>
      <g>
       <use xlink:href="#m7ff9a7a80f" x="112.189463" y="134.707765" style="stroke: #000000; stroke-width: 0.8"/>
      </g>
     </g>
     <g id="text_1">
      <!-- 10 -->
      <g transform="translate(105.826963 149.306202) scale(0.1 -0.1)">
       <defs>
        <path id="DejaVuSans-31" d="M 794 531 
L 1825 531 
L 1825 4091 
L 703 3866 
L 703 4441 
L 1819 4666 
L 2450 4666 
L 2450 531 
L 3481 531 
L 3481 0 
L 794 0 
L 794 531 
z
" transform="scale(0.015625)"/>
        <path id="DejaVuSans-30" d="M 2034 4250 
Q 1547 4250 1301 3770 
Q 1056 3291 1056 2328 
Q 1056 1369 1301 889 
Q 1547 409 2034 409 
Q 2525 409 2770 889 
Q 3016 1369 3016 2328 
Q 3016 3291 2770 3770 
Q 2525 4250 2034 4250 
z
M 2034 4750 
Q 2819 4750 3233 4129 
Q 3647 3509 3647 2328 
Q 3647 1150 3233 529 
Q 2819 -91 2034 -91 
Q 1250 -91 836 529 
Q 422 1150 422 2328 
Q 422 3509 836 4129 
Q 1250 4750 2034 4750 
z
" transform="scale(0.015625)"/>
       </defs>
       <use xlink:href="#DejaVuSans-31"/>
       <use xlink:href="#DejaVuSans-30" x="63.623047"/>
      </g>
     </g>
    </g>
    <g id="xtick_2">
     <g id="line2d_2">
      <g>
       <use xlink:href="#m7ff9a7a80f" x="154.654339" y="134.707765" style="stroke: #000000; stroke-width: 0.8"/>
      </g>
     </g>
     <g id="text_2">
      <!-- 15 -->
      <g transform="translate(148.291839 149.306202) scale(0.1 -0.1)">
       <defs>
        <path id="DejaVuSans-35" d="M 691 4666 
L 3169 4666 
L 3169 4134 
L 1269 4134 
L 1269 2991 
Q 1406 3038 1543 3061 
Q 1681 3084 1819 3084 
Q 2600 3084 3056 2656 
Q 3513 2228 3513 1497 
Q 3513 744 3044 326 
Q 2575 -91 1722 -91 
Q 1428 -91 1123 -41 
Q 819 9 494 109 
L 494 744 
Q 775 591 1075 516 
Q 1375 441 1709 441 
Q 2250 441 2565 725 
Q 2881 1009 2881 1497 
Q 2881 1984 2565 2268 
Q 2250 2553 1709 2553 
Q 1456 2553 1204 2497 
Q 953 2441 691 2322 
L 691 4666 
z
" transform="scale(0.015625)"/>
       </defs>
       <use xlink:href="#DejaVuSans-31"/>
       <use xlink:href="#DejaVuSans-35" x="63.623047"/>
      </g>
     </g>
    </g>
    <g id="xtick_3">
     <g id="line2d_3">
      <g>
       <use xlink:href="#m7ff9a7a80f" x="197.119215" y="134.707765" style="stroke: #000000; stroke-width: 0.8"/>
      </g>
     </g>
     <g id="text_3">
      <!-- 20 -->
      <g transform="translate(190.756715 149.306202) scale(0.1 -0.1)">
       <defs>
        <path id="DejaVuSans-32" d="M 1228 531 
L 3431 531 
L 3431 0 
L 469 0 
L 469 531 
Q 828 903 1448 1529 
Q 2069 2156 2228 2338 
Q 2531 2678 2651 2914 
Q 2772 3150 2772 3378 
Q 2772 3750 2511 3984 
Q 2250 4219 1831 4219 
Q 1534 4219 1204 4116 
Q 875 4013 500 3803 
L 500 4441 
Q 881 4594 1212 4672 
Q 1544 4750 1819 4750 
Q 2544 4750 2975 4387 
Q 3406 4025 3406 3419 
Q 3406 3131 3298 2873 
Q 3191 2616 2906 2266 
Q 2828 2175 2409 1742 
Q 1991 1309 1228 531 
z
" transform="scale(0.015625)"/>
       </defs>
       <use xlink:href="#DejaVuSans-32"/>
       <use xlink:href="#DejaVuSans-30" x="63.623047"/>
      </g>
     </g>
    </g>
    <g id="xtick_4">
     <g id="line2d_4">
      <g>
       <use xlink:href="#m7ff9a7a80f" x="239.584091" y="134.707765" style="stroke: #000000; stroke-width: 0.8"/>
      </g>
     </g>
     <g id="text_4">
      <!-- 25 -->
      <g transform="translate(233.221591 149.306202) scale(0.1 -0.1)">
       <use xlink:href="#DejaVuSans-32"/>
       <use xlink:href="#DejaVuSans-35" x="63.623047"/>
      </g>
     </g>
    </g>
    <g id="xtick_5">
     <g id="line2d_5">
      <g>
       <use xlink:href="#m7ff9a7a80f" x="282.048967" y="134.707765" style="stroke: #000000; stroke-width: 0.8"/>
      </g>
     </g>
     <g id="text_5">
      <!-- 30 -->
      <g transform="translate(275.686467 149.306202) scale(0.1 -0.1)">
       <defs>
        <path id="DejaVuSans-33" d="M 2597 2516 
Q 3050 2419 3304 2112 
Q 3559 1806 3559 1356 
Q 3559 666 3084 287 
Q 2609 -91 1734 -91 
Q 1441 -91 1130 -33 
Q 819 25 488 141 
L 488 750 
Q 750 597 1062 519 
Q 1375 441 1716 441 
Q 2309 441 2620 675 
Q 2931 909 2931 1356 
Q 2931 1769 2642 2001 
Q 2353 2234 1838 2234 
L 1294 2234 
L 1294 2753 
L 1863 2753 
Q 2328 2753 2575 2939 
Q 2822 3125 2822 3475 
Q 2822 3834 2567 4026 
Q 2313 4219 1838 4219 
Q 1578 4219 1281 4162 
Q 984 4106 628 3988 
L 628 4550 
Q 988 4650 1302 4700 
Q 1616 4750 1894 4750 
Q 2613 4750 3031 4423 
Q 3450 4097 3450 3541 
Q 3450 3153 3228 2886 
Q 3006 2619 2597 2516 
z
" transform="scale(0.015625)"/>
       </defs>
       <use xlink:href="#DejaVuSans-33"/>
       <use xlink:href="#DejaVuSans-30" x="63.623047"/>
      </g>
     </g>
    </g>
    <g id="xtick_6">
     <g id="line2d_6">
      <g>
       <use xlink:href="#m7ff9a7a80f" x="324.513843" y="134.707765" style="stroke: #000000; stroke-width: 0.8"/>
      </g>
     </g>
     <g id="text_6">
      <!-- 35 -->
      <g transform="translate(318.151343 149.306202) scale(0.1 -0.1)">
       <use xlink:href="#DejaVuSans-33"/>
       <use xlink:href="#DejaVuSans-35" x="63.623047"/>
      </g>
     </g>
    </g>
    <g id="xtick_7">
     <g id="line2d_7">
      <g>
       <use xlink:href="#m7ff9a7a80f" x="366.978719" y="134.707765" style="stroke: #000000; stroke-width: 0.8"/>
      </g>
     </g>
     <g id="text_7">
      <!-- 40 -->
      <g transform="translate(360.616219 149.306202) scale(0.1 -0.1)">
       <defs>
        <path id="DejaVuSans-34" d="M 2419 4116 
L 825 1625 
L 2419 1625 
L 2419 4116 
z
M 2253 4666 
L 3047 4666 
L 3047 1625 
L 3713 1625 
L 3713 1100 
L 3047 1100 
L 3047 0 
L 2419 0 
L 2419 1100 
L 313 1100 
L 313 1709 
L 2253 4666 
z
" transform="scale(0.015625)"/>
       </defs>
       <use xlink:href="#DejaVuSans-34"/>
       <use xlink:href="#DejaVuSans-30" x="63.623047"/>
      </g>
     </g>
    </g>
   </g>
   <g id="matplotlib.axis_2">
    <g id="ytick_1">
     <g id="line2d_8">
      <defs>
       <path id="m6fc8287c71" d="M 0 0 
L -3.5 0 
" style="stroke: #000000; stroke-width: 0.8"/>
      </defs>
      <g>
       <use xlink:href="#m6fc8287c71" x="99.45" y="134.707765" style="stroke: #000000; stroke-width: 0.8"/>
      </g>
     </g>
     <g id="text_8">
      <!-- 0.0 -->
      <g transform="translate(76.546875 138.506983) scale(0.1 -0.1)">
       <defs>
        <path id="DejaVuSans-2e" d="M 684 794 
L 1344 794 
L 1344 0 
L 684 0 
L 684 794 
z
" transform="scale(0.015625)"/>
       </defs>
       <use xlink:href="#DejaVuSans-30"/>
       <use xlink:href="#DejaVuSans-2e" x="63.623047"/>
       <use xlink:href="#DejaVuSans-30" x="95.410156"/>
      </g>
     </g>
    </g>
    <g id="ytick_2">
     <g id="line2d_9">
      <g>
       <use xlink:href="#m6fc8287c71" x="99.45" y="99.487059" style="stroke: #000000; stroke-width: 0.8"/>
      </g>
     </g>
     <g id="text_9">
      <!-- 0.2 -->
      <g transform="translate(76.546875 103.286278) scale(0.1 -0.1)">
       <use xlink:href="#DejaVuSans-30"/>
       <use xlink:href="#DejaVuSans-2e" x="63.623047"/>
       <use xlink:href="#DejaVuSans-32" x="95.410156"/>
      </g>
     </g>
    </g>
    <g id="ytick_3">
     <g id="line2d_10">
      <g>
       <use xlink:href="#m6fc8287c71" x="99.45" y="64.266353" style="stroke: #000000; stroke-width: 0.8"/>
      </g>
     </g>
     <g id="text_10">
      <!-- 0.4 -->
      <g transform="translate(76.546875 68.065572) scale(0.1 -0.1)">
       <use xlink:href="#DejaVuSans-30"/>
       <use xlink:href="#DejaVuSans-2e" x="63.623047"/>
       <use xlink:href="#DejaVuSans-34" x="95.410156"/>
      </g>
     </g>
    </g>
   </g>
   <g id="line2d_11">
    <path d="M 112.189463 83.833412 
L 154.654339 99.487059 
L 197.119215 107.313882 
L 239.584091 107.313882 
L 282.048967 115.140706 
L 324.513843 107.313882 
L 366.978719 122.967529 
" clip-path="url(#peb215de353)" style="fill: none; stroke: #1f77b4; stroke-width: 1.5; stroke-linecap: square"/>
   </g>
   <g id="line2d_12">
    <path d="M 112.189463 87.746824 
L 154.654339 99.487059 
L 197.119215 111.227294 
L 239.584091 107.313882 
L 282.048967 107.313882 
L 324.513843 107.313882 
L 366.978719 111.227294 
" clip-path="url(#peb215de353)" style="fill: none; stroke: #ff7f0e; stroke-width: 1.5; stroke-linecap: square"/>
   </g>
   <g id="line2d_13">
    <path d="M 112.189463 83.833412 
L 154.654339 68.179765 
L 197.119215 103.400471 
L 239.584091 115.140706 
L 282.048967 122.967529 
L 324.513843 119.054118 
L 366.978719 130.794353 
" clip-path="url(#peb215de353)" style="fill: none; stroke: #2ca02c; stroke-width: 1.5; stroke-linecap: square"/>
   </g>
   <g id="line2d_14">
    <path d="M 112.189463 79.92 
L 154.654339 87.746824 
L 197.119215 95.573647 
L 239.584091 122.967529 
L 282.048967 134.707765 
L 324.513843 119.054118 
L 366.978719 130.794353 
" clip-path="url(#peb215de353)" style="fill: none; stroke: #d62728; stroke-width: 1.5; stroke-linecap: square"/>
   </g>
   <g id="line2d_15">
    <path d="M 112.189463 79.92 
L 154.654339 87.746824 
L 197.119215 103.400471 
L 239.584091 111.227294 
L 282.048967 122.967529 
L 324.513843 122.967529 
L 366.978719 130.794353 
" clip-path="url(#peb215de353)" style="fill: none; stroke: #9467bd; stroke-width: 1.5; stroke-linecap: square"/>
   </g>
   <g id="line2d_16">
    <path d="M 112.189463 87.746824 
L 154.654339 119.054118 
L 197.119215 111.227294 
L 239.584091 115.140706 
L 282.048967 130.794353 
L 324.513843 119.054118 
L 366.978719 130.794353 
" clip-path="url(#peb215de353)" style="fill: none; stroke: #8c564b; stroke-width: 1.5; stroke-linecap: square"/>
   </g>
   <g id="patch_3">
    <path d="M 99.45 134.707765 
L 99.45 46.656 
" style="fill: none; stroke: #000000; stroke-width: 0.8; stroke-linejoin: miter; stroke-linecap: square"/>
   </g>
   <g id="patch_4">
    <path d="M 379.718182 134.707765 
L 379.718182 46.656 
" style="fill: none; stroke: #000000; stroke-width: 0.8; stroke-linejoin: miter; stroke-linecap: square"/>
   </g>
   <g id="patch_5">
    <path d="M 99.45 134.707765 
L 379.718182 134.707765 
" style="fill: none; stroke: #000000; stroke-width: 0.8; stroke-linejoin: miter; stroke-linecap: square"/>
   </g>
   <g id="patch_6">
    <path d="M 99.45 46.656 
L 379.718182 46.656 
" style="fill: none; stroke: #000000; stroke-width: 0.8; stroke-linejoin: miter; stroke-linecap: square"/>
   </g>
   <g id="text_11">
    <!-- Constrained -->
    <g transform="translate(203.329091 40.656) scale(0.12 -0.12)">
     <defs>
      <path id="DejaVuSans-43" d="M 4122 4306 
L 4122 3641 
Q 3803 3938 3442 4084 
Q 3081 4231 2675 4231 
Q 1875 4231 1450 3742 
Q 1025 3253 1025 2328 
Q 1025 1406 1450 917 
Q 1875 428 2675 428 
Q 3081 428 3442 575 
Q 3803 722 4122 1019 
L 4122 359 
Q 3791 134 3420 21 
Q 3050 -91 2638 -91 
Q 1578 -91 968 557 
Q 359 1206 359 2328 
Q 359 3453 968 4101 
Q 1578 4750 2638 4750 
Q 3056 4750 3426 4639 
Q 3797 4528 4122 4306 
z
" transform="scale(0.015625)"/>
      <path id="DejaVuSans-6f" d="M 1959 3097 
Q 1497 3097 1228 2736 
Q 959 2375 959 1747 
Q 959 1119 1226 758 
Q 1494 397 1959 397 
Q 2419 397 2687 759 
Q 2956 1122 2956 1747 
Q 2956 2369 2687 2733 
Q 2419 3097 1959 3097 
z
M 1959 3584 
Q 2709 3584 3137 3096 
Q 3566 2609 3566 1747 
Q 3566 888 3137 398 
Q 2709 -91 1959 -91 
Q 1206 -91 779 398 
Q 353 888 353 1747 
Q 353 2609 779 3096 
Q 1206 3584 1959 3584 
z
" transform="scale(0.015625)"/>
      <path id="DejaVuSans-6e" d="M 3513 2113 
L 3513 0 
L 2938 0 
L 2938 2094 
Q 2938 2591 2744 2837 
Q 2550 3084 2163 3084 
Q 1697 3084 1428 2787 
Q 1159 2491 1159 1978 
L 1159 0 
L 581 0 
L 581 3500 
L 1159 3500 
L 1159 2956 
Q 1366 3272 1645 3428 
Q 1925 3584 2291 3584 
Q 2894 3584 3203 3211 
Q 3513 2838 3513 2113 
z
" transform="scale(0.015625)"/>
      <path id="DejaVuSans-73" d="M 2834 3397 
L 2834 2853 
Q 2591 2978 2328 3040 
Q 2066 3103 1784 3103 
Q 1356 3103 1142 2972 
Q 928 2841 928 2578 
Q 928 2378 1081 2264 
Q 1234 2150 1697 2047 
L 1894 2003 
Q 2506 1872 2764 1633 
Q 3022 1394 3022 966 
Q 3022 478 2636 193 
Q 2250 -91 1575 -91 
Q 1294 -91 989 -36 
Q 684 19 347 128 
L 347 722 
Q 666 556 975 473 
Q 1284 391 1588 391 
Q 1994 391 2212 530 
Q 2431 669 2431 922 
Q 2431 1156 2273 1281 
Q 2116 1406 1581 1522 
L 1381 1569 
Q 847 1681 609 1914 
Q 372 2147 372 2553 
Q 372 3047 722 3315 
Q 1072 3584 1716 3584 
Q 2034 3584 2315 3537 
Q 2597 3491 2834 3397 
z
" transform="scale(0.015625)"/>
      <path id="DejaVuSans-74" d="M 1172 4494 
L 1172 3500 
L 2356 3500 
L 2356 3053 
L 1172 3053 
L 1172 1153 
Q 1172 725 1289 603 
Q 1406 481 1766 481 
L 2356 481 
L 2356 0 
L 1766 0 
Q 1100 0 847 248 
Q 594 497 594 1153 
L 594 3053 
L 172 3053 
L 172 3500 
L 594 3500 
L 594 4494 
L 1172 4494 
z
" transform="scale(0.015625)"/>
      <path id="DejaVuSans-72" d="M 2631 2963 
Q 2534 3019 2420 3045 
Q 2306 3072 2169 3072 
Q 1681 3072 1420 2755 
Q 1159 2438 1159 1844 
L 1159 0 
L 581 0 
L 581 3500 
L 1159 3500 
L 1159 2956 
Q 1341 3275 1631 3429 
Q 1922 3584 2338 3584 
Q 2397 3584 2469 3576 
Q 2541 3569 2628 3553 
L 2631 2963 
z
" transform="scale(0.015625)"/>
      <path id="DejaVuSans-61" d="M 2194 1759 
Q 1497 1759 1228 1600 
Q 959 1441 959 1056 
Q 959 750 1161 570 
Q 1363 391 1709 391 
Q 2188 391 2477 730 
Q 2766 1069 2766 1631 
L 2766 1759 
L 2194 1759 
z
M 3341 1997 
L 3341 0 
L 2766 0 
L 2766 531 
Q 2569 213 2275 61 
Q 1981 -91 1556 -91 
Q 1019 -91 701 211 
Q 384 513 384 1019 
Q 384 1609 779 1909 
Q 1175 2209 1959 2209 
L 2766 2209 
L 2766 2266 
Q 2766 2663 2505 2880 
Q 2244 3097 1772 3097 
Q 1472 3097 1187 3025 
Q 903 2953 641 2809 
L 641 3341 
Q 956 3463 1253 3523 
Q 1550 3584 1831 3584 
Q 2591 3584 2966 3190 
Q 3341 2797 3341 1997 
z
" transform="scale(0.015625)"/>
      <path id="DejaVuSans-69" d="M 603 3500 
L 1178 3500 
L 1178 0 
L 603 0 
L 603 3500 
z
M 603 4863 
L 1178 4863 
L 1178 4134 
L 603 4134 
L 603 4863 
z
" transform="scale(0.015625)"/>
      <path id="DejaVuSans-65" d="M 3597 1894 
L 3597 1613 
L 953 1613 
Q 991 1019 1311 708 
Q 1631 397 2203 397 
Q 2534 397 2845 478 
Q 3156 559 3463 722 
L 3463 178 
Q 3153 47 2828 -22 
Q 2503 -91 2169 -91 
Q 1331 -91 842 396 
Q 353 884 353 1716 
Q 353 2575 817 3079 
Q 1281 3584 2069 3584 
Q 2775 3584 3186 3129 
Q 3597 2675 3597 1894 
z
M 3022 2063 
Q 3016 2534 2758 2815 
Q 2500 3097 2075 3097 
Q 1594 3097 1305 2825 
Q 1016 2553 972 2059 
L 3022 2063 
z
" transform="scale(0.015625)"/>
      <path id="DejaVuSans-64" d="M 2906 2969 
L 2906 4863 
L 3481 4863 
L 3481 0 
L 2906 0 
L 2906 525 
Q 2725 213 2448 61 
Q 2172 -91 1784 -91 
Q 1150 -91 751 415 
Q 353 922 353 1747 
Q 353 2572 751 3078 
Q 1150 3584 1784 3584 
Q 2172 3584 2448 3432 
Q 2725 3281 2906 2969 
z
M 947 1747 
Q 947 1113 1208 752 
Q 1469 391 1925 391 
Q 2381 391 2643 752 
Q 2906 1113 2906 1747 
Q 2906 2381 2643 2742 
Q 2381 3103 1925 3103 
Q 1469 3103 1208 2742 
Q 947 2381 947 1747 
z
" transform="scale(0.015625)"/>
     </defs>
     <use xlink:href="#DejaVuSans-43"/>
     <use xlink:href="#DejaVuSans-6f" x="69.824219"/>
     <use xlink:href="#DejaVuSans-6e" x="131.005859"/>
     <use xlink:href="#DejaVuSans-73" x="194.384766"/>
     <use xlink:href="#DejaVuSans-74" x="246.484375"/>
     <use xlink:href="#DejaVuSans-72" x="285.693359"/>
     <use xlink:href="#DejaVuSans-61" x="326.806641"/>
     <use xlink:href="#DejaVuSans-69" x="388.085938"/>
     <use xlink:href="#DejaVuSans-6e" x="415.869141"/>
     <use xlink:href="#DejaVuSans-65" x="479.248047"/>
     <use xlink:href="#DejaVuSans-64" x="540.771484"/>
    </g>
   </g>
  </g>
  <g id="axes_2">
   <g id="patch_7">
    <path d="M 435.771818 134.707765 
L 716.04 134.707765 
L 716.04 46.656 
L 435.771818 46.656 
z
" style="fill: #ffffff"/>
   </g>
   <g id="matplotlib.axis_3">
    <g id="xtick_8">
     <g id="line2d_17">
      <g>
       <use xlink:href="#m7ff9a7a80f" x="448.511281" y="134.707765" style="stroke: #000000; stroke-width: 0.8"/>
      </g>
     </g>
     <g id="text_12">
      <!-- 10 -->
      <g transform="translate(442.148781 149.306202) scale(0.1 -0.1)">
       <use xlink:href="#DejaVuSans-31"/>
       <use xlink:href="#DejaVuSans-30" x="63.623047"/>
      </g>
     </g>
    </g>
    <g id="xtick_9">
     <g id="line2d_18">
      <g>
       <use xlink:href="#m7ff9a7a80f" x="490.976157" y="134.707765" style="stroke: #000000; stroke-width: 0.8"/>
      </g>
     </g>
     <g id="text_13">
      <!-- 15 -->
      <g transform="translate(484.613657 149.306202) scale(0.1 -0.1)">
       <use xlink:href="#DejaVuSans-31"/>
       <use xlink:href="#DejaVuSans-35" x="63.623047"/>
      </g>
     </g>
    </g>
    <g id="xtick_10">
     <g id="line2d_19">
      <g>
       <use xlink:href="#m7ff9a7a80f" x="533.441033" y="134.707765" style="stroke: #000000; stroke-width: 0.8"/>
      </g>
     </g>
     <g id="text_14">
      <!-- 20 -->
      <g transform="translate(527.078533 149.306202) scale(0.1 -0.1)">
       <use xlink:href="#DejaVuSans-32"/>
       <use xlink:href="#DejaVuSans-30" x="63.623047"/>
      </g>
     </g>
    </g>
    <g id="xtick_11">
     <g id="line2d_20">
      <g>
       <use xlink:href="#m7ff9a7a80f" x="575.905909" y="134.707765" style="stroke: #000000; stroke-width: 0.8"/>
      </g>
     </g>
     <g id="text_15">
      <!-- 25 -->
      <g transform="translate(569.543409 149.306202) scale(0.1 -0.1)">
       <use xlink:href="#DejaVuSans-32"/>
       <use xlink:href="#DejaVuSans-35" x="63.623047"/>
      </g>
     </g>
    </g>
    <g id="xtick_12">
     <g id="line2d_21">
      <g>
       <use xlink:href="#m7ff9a7a80f" x="618.370785" y="134.707765" style="stroke: #000000; stroke-width: 0.8"/>
      </g>
     </g>
     <g id="text_16">
      <!-- 30 -->
      <g transform="translate(612.008285 149.306202) scale(0.1 -0.1)">
       <use xlink:href="#DejaVuSans-33"/>
       <use xlink:href="#DejaVuSans-30" x="63.623047"/>
      </g>
     </g>
    </g>
    <g id="xtick_13">
     <g id="line2d_22">
      <g>
       <use xlink:href="#m7ff9a7a80f" x="660.835661" y="134.707765" style="stroke: #000000; stroke-width: 0.8"/>
      </g>
     </g>
     <g id="text_17">
      <!-- 35 -->
      <g transform="translate(654.473161 149.306202) scale(0.1 -0.1)">
       <use xlink:href="#DejaVuSans-33"/>
       <use xlink:href="#DejaVuSans-35" x="63.623047"/>
      </g>
     </g>
    </g>
    <g id="xtick_14">
     <g id="line2d_23">
      <g>
       <use xlink:href="#m7ff9a7a80f" x="703.300537" y="134.707765" style="stroke: #000000; stroke-width: 0.8"/>
      </g>
     </g>
     <g id="text_18">
      <!-- 40 -->
      <g transform="translate(696.938037 149.306202) scale(0.1 -0.1)">
       <use xlink:href="#DejaVuSans-34"/>
       <use xlink:href="#DejaVuSans-30" x="63.623047"/>
      </g>
     </g>
    </g>
   </g>
   <g id="matplotlib.axis_4">
    <g id="ytick_4">
     <g id="line2d_24">
      <g>
       <use xlink:href="#m6fc8287c71" x="435.771818" y="134.707765" style="stroke: #000000; stroke-width: 0.8"/>
      </g>
     </g>
     <g id="text_19">
      <!-- 0.0 -->
      <g transform="translate(412.868693 138.506983) scale(0.1 -0.1)">
       <use xlink:href="#DejaVuSans-30"/>
       <use xlink:href="#DejaVuSans-2e" x="63.623047"/>
       <use xlink:href="#DejaVuSans-30" x="95.410156"/>
      </g>
     </g>
    </g>
    <g id="ytick_5">
     <g id="line2d_25">
      <g>
       <use xlink:href="#m6fc8287c71" x="435.771818" y="99.487059" style="stroke: #000000; stroke-width: 0.8"/>
      </g>
     </g>
     <g id="text_20">
      <!-- 0.2 -->
      <g transform="translate(412.868693 103.286278) scale(0.1 -0.1)">
       <use xlink:href="#DejaVuSans-30"/>
       <use xlink:href="#DejaVuSans-2e" x="63.623047"/>
       <use xlink:href="#DejaVuSans-32" x="95.410156"/>
      </g>
     </g>
    </g>
    <g id="ytick_6">
     <g id="line2d_26">
      <g>
       <use xlink:href="#m6fc8287c71" x="435.771818" y="64.266353" style="stroke: #000000; stroke-width: 0.8"/>
      </g>
     </g>
     <g id="text_21">
      <!-- 0.4 -->
      <g transform="translate(412.868693 68.065572) scale(0.1 -0.1)">
       <use xlink:href="#DejaVuSans-30"/>
       <use xlink:href="#DejaVuSans-2e" x="63.623047"/>
       <use xlink:href="#DejaVuSans-34" x="95.410156"/>
      </g>
     </g>
    </g>
   </g>
   <g id="line2d_27">
    <path d="M 448.511281 91.660235 
L 490.976157 103.400471 
L 533.441033 115.140706 
L 575.905909 107.313882 
L 618.370785 111.227294 
L 660.835661 103.400471 
L 703.300537 119.054118 
" clip-path="url(#p68101f708b)" style="fill: none; stroke: #1f77b4; stroke-width: 1.5; stroke-linecap: square"/>
   </g>
   <g id="line2d_28">
    <path d="M 448.511281 99.487059 
L 490.976157 107.313882 
L 533.441033 115.140706 
L 575.905909 111.227294 
L 618.370785 107.313882 
L 660.835661 107.313882 
L 703.300537 107.313882 
" clip-path="url(#p68101f708b)" style="fill: none; stroke: #ff7f0e; stroke-width: 1.5; stroke-linecap: square"/>
   </g>
   <g id="line2d_29">
    <path d="M 448.511281 68.179765 
L 490.976157 99.487059 
L 533.441033 107.313882 
L 575.905909 115.140706 
L 618.370785 99.487059 
L 660.835661 119.054118 
L 703.300537 134.707765 
" clip-path="url(#p68101f708b)" style="fill: none; stroke: #2ca02c; stroke-width: 1.5; stroke-linecap: square"/>
   </g>
   <g id="line2d_30">
    <path d="M 448.511281 83.833412 
L 490.976157 103.400471 
L 533.441033 107.313882 
L 575.905909 119.054118 
L 618.370785 99.487059 
L 660.835661 107.313882 
L 703.300537 130.794353 
" clip-path="url(#p68101f708b)" style="fill: none; stroke: #d62728; stroke-width: 1.5; stroke-linecap: square"/>
   </g>
   <g id="line2d_31">
    <path d="M 448.511281 68.179765 
L 490.976157 91.660235 
L 533.441033 126.880941 
L 575.905909 111.227294 
L 618.370785 111.227294 
L 660.835661 119.054118 
L 703.300537 130.794353 
" clip-path="url(#p68101f708b)" style="fill: none; stroke: #9467bd; stroke-width: 1.5; stroke-linecap: square"/>
   </g>
   <g id="line2d_32">
    <path d="M 448.511281 107.313882 
L 490.976157 107.313882 
L 533.441033 126.880941 
L 575.905909 119.054118 
L 618.370785 111.227294 
L 660.835661 119.054118 
L 703.300537 130.794353 
" clip-path="url(#p68101f708b)" style="fill: none; stroke: #8c564b; stroke-width: 1.5; stroke-linecap: square"/>
   </g>
   <g id="patch_8">
    <path d="M 435.771818 134.707765 
L 435.771818 46.656 
" style="fill: none; stroke: #000000; stroke-width: 0.8; stroke-linejoin: miter; stroke-linecap: square"/>
   </g>
   <g id="patch_9">
    <path d="M 716.04 134.707765 
L 716.04 46.656 
" style="fill: none; stroke: #000000; stroke-width: 0.8; stroke-linejoin: miter; stroke-linecap: square"/>
   </g>
   <g id="patch_10">
    <path d="M 435.771818 134.707765 
L 716.04 134.707765 
" style="fill: none; stroke: #000000; stroke-width: 0.8; stroke-linejoin: miter; stroke-linecap: square"/>
   </g>
   <g id="patch_11">
    <path d="M 435.771818 46.656 
L 716.04 46.656 
" style="fill: none; stroke: #000000; stroke-width: 0.8; stroke-linejoin: miter; stroke-linecap: square"/>
   </g>
   <g id="text_22">
    <!-- Unconstrained -->
    <g transform="translate(532.347784 40.656) scale(0.12 -0.12)">
     <defs>
      <path id="DejaVuSans-55" d="M 556 4666 
L 1191 4666 
L 1191 1831 
Q 1191 1081 1462 751 
Q 1734 422 2344 422 
Q 2950 422 3222 751 
Q 3494 1081 3494 1831 
L 3494 4666 
L 4128 4666 
L 4128 1753 
Q 4128 841 3676 375 
Q 3225 -91 2344 -91 
Q 1459 -91 1007 375 
Q 556 841 556 1753 
L 556 4666 
z
" transform="scale(0.015625)"/>
      <path id="DejaVuSans-63" d="M 3122 3366 
L 3122 2828 
Q 2878 2963 2633 3030 
Q 2388 3097 2138 3097 
Q 1578 3097 1268 2742 
Q 959 2388 959 1747 
Q 959 1106 1268 751 
Q 1578 397 2138 397 
Q 2388 397 2633 464 
Q 2878 531 3122 666 
L 3122 134 
Q 2881 22 2623 -34 
Q 2366 -91 2075 -91 
Q 1284 -91 818 406 
Q 353 903 353 1747 
Q 353 2603 823 3093 
Q 1294 3584 2113 3584 
Q 2378 3584 2631 3529 
Q 2884 3475 3122 3366 
z
" transform="scale(0.015625)"/>
     </defs>
     <use xlink:href="#DejaVuSans-55"/>
     <use xlink:href="#DejaVuSans-6e" x="73.193359"/>
     <use xlink:href="#DejaVuSans-63" x="136.572266"/>
     <use xlink:href="#DejaVuSans-6f" x="191.552734"/>
     <use xlink:href="#DejaVuSans-6e" x="252.734375"/>
     <use xlink:href="#DejaVuSans-73" x="316.113281"/>
     <use xlink:href="#DejaVuSans-74" x="368.212891"/>
     <use xlink:href="#DejaVuSans-72" x="407.421875"/>
     <use xlink:href="#DejaVuSans-61" x="448.535156"/>
     <use xlink:href="#DejaVuSans-69" x="509.814453"/>
     <use xlink:href="#DejaVuSans-6e" x="537.597656"/>
     <use xlink:href="#DejaVuSans-65" x="600.976562"/>
     <use xlink:href="#DejaVuSans-64" x="662.5"/>
    </g>
   </g>
  </g>
  <g id="axes_3">
   <g id="patch_12">
    <path d="M 99.45 240.369882 
L 379.718182 240.369882 
L 379.718182 152.318118 
L 99.45 152.318118 
z
" style="fill: #ffffff"/>
   </g>
   <g id="matplotlib.axis_5">
    <g id="xtick_15">
     <g id="line2d_33">
      <g>
       <use xlink:href="#m7ff9a7a80f" x="127.177066" y="240.369882" style="stroke: #000000; stroke-width: 0.8"/>
      </g>
     </g>
     <g id="text_23">
      <!-- 20 -->
      <g transform="translate(120.814566 254.96832) scale(0.1 -0.1)">
       <use xlink:href="#DejaVuSans-32"/>
       <use xlink:href="#DejaVuSans-30" x="63.623047"/>
      </g>
     </g>
    </g>
    <g id="xtick_16">
     <g id="line2d_34">
      <g>
       <use xlink:href="#m7ff9a7a80f" x="187.127479" y="240.369882" style="stroke: #000000; stroke-width: 0.8"/>
      </g>
     </g>
     <g id="text_24">
      <!-- 40 -->
      <g transform="translate(180.764979 254.96832) scale(0.1 -0.1)">
       <use xlink:href="#DejaVuSans-34"/>
       <use xlink:href="#DejaVuSans-30" x="63.623047"/>
      </g>
     </g>
    </g>
    <g id="xtick_17">
     <g id="line2d_35">
      <g>
       <use xlink:href="#m7ff9a7a80f" x="247.077893" y="240.369882" style="stroke: #000000; stroke-width: 0.8"/>
      </g>
     </g>
     <g id="text_25">
      <!-- 60 -->
      <g transform="translate(240.715393 254.96832) scale(0.1 -0.1)">
       <defs>
        <path id="DejaVuSans-36" d="M 2113 2584 
Q 1688 2584 1439 2293 
Q 1191 2003 1191 1497 
Q 1191 994 1439 701 
Q 1688 409 2113 409 
Q 2538 409 2786 701 
Q 3034 994 3034 1497 
Q 3034 2003 2786 2293 
Q 2538 2584 2113 2584 
z
M 3366 4563 
L 3366 3988 
Q 3128 4100 2886 4159 
Q 2644 4219 2406 4219 
Q 1781 4219 1451 3797 
Q 1122 3375 1075 2522 
Q 1259 2794 1537 2939 
Q 1816 3084 2150 3084 
Q 2853 3084 3261 2657 
Q 3669 2231 3669 1497 
Q 3669 778 3244 343 
Q 2819 -91 2113 -91 
Q 1303 -91 875 529 
Q 447 1150 447 2328 
Q 447 3434 972 4092 
Q 1497 4750 2381 4750 
Q 2619 4750 2861 4703 
Q 3103 4656 3366 4563 
z
" transform="scale(0.015625)"/>
       </defs>
       <use xlink:href="#DejaVuSans-36"/>
       <use xlink:href="#DejaVuSans-30" x="63.623047"/>
      </g>
     </g>
    </g>
    <g id="xtick_18">
     <g id="line2d_36">
      <g>
       <use xlink:href="#m7ff9a7a80f" x="307.028306" y="240.369882" style="stroke: #000000; stroke-width: 0.8"/>
      </g>
     </g>
     <g id="text_26">
      <!-- 80 -->
      <g transform="translate(300.665806 254.96832) scale(0.1 -0.1)">
       <defs>
        <path id="DejaVuSans-38" d="M 2034 2216 
Q 1584 2216 1326 1975 
Q 1069 1734 1069 1313 
Q 1069 891 1326 650 
Q 1584 409 2034 409 
Q 2484 409 2743 651 
Q 3003 894 3003 1313 
Q 3003 1734 2745 1975 
Q 2488 2216 2034 2216 
z
M 1403 2484 
Q 997 2584 770 2862 
Q 544 3141 544 3541 
Q 544 4100 942 4425 
Q 1341 4750 2034 4750 
Q 2731 4750 3128 4425 
Q 3525 4100 3525 3541 
Q 3525 3141 3298 2862 
Q 3072 2584 2669 2484 
Q 3125 2378 3379 2068 
Q 3634 1759 3634 1313 
Q 3634 634 3220 271 
Q 2806 -91 2034 -91 
Q 1263 -91 848 271 
Q 434 634 434 1313 
Q 434 1759 690 2068 
Q 947 2378 1403 2484 
z
M 1172 3481 
Q 1172 3119 1398 2916 
Q 1625 2713 2034 2713 
Q 2441 2713 2670 2916 
Q 2900 3119 2900 3481 
Q 2900 3844 2670 4047 
Q 2441 4250 2034 4250 
Q 1625 4250 1398 4047 
Q 1172 3844 1172 3481 
z
" transform="scale(0.015625)"/>
       </defs>
       <use xlink:href="#DejaVuSans-38"/>
       <use xlink:href="#DejaVuSans-30" x="63.623047"/>
      </g>
     </g>
    </g>
    <g id="xtick_19">
     <g id="line2d_37">
      <g>
       <use xlink:href="#m7ff9a7a80f" x="366.978719" y="240.369882" style="stroke: #000000; stroke-width: 0.8"/>
      </g>
     </g>
     <g id="text_27">
      <!-- 100 -->
      <g transform="translate(357.434969 254.96832) scale(0.1 -0.1)">
       <use xlink:href="#DejaVuSans-31"/>
       <use xlink:href="#DejaVuSans-30" x="63.623047"/>
       <use xlink:href="#DejaVuSans-30" x="127.246094"/>
      </g>
     </g>
    </g>
   </g>
   <g id="matplotlib.axis_6">
    <g id="ytick_7">
     <g id="line2d_38">
      <g>
       <use xlink:href="#m6fc8287c71" x="99.45" y="240.369882" style="stroke: #000000; stroke-width: 0.8"/>
      </g>
     </g>
     <g id="text_28">
      <!-- 0.0 -->
      <g transform="translate(76.546875 244.169101) scale(0.1 -0.1)">
       <use xlink:href="#DejaVuSans-30"/>
       <use xlink:href="#DejaVuSans-2e" x="63.623047"/>
       <use xlink:href="#DejaVuSans-30" x="95.410156"/>
      </g>
     </g>
    </g>
    <g id="ytick_8">
     <g id="line2d_39">
      <g>
       <use xlink:href="#m6fc8287c71" x="99.45" y="205.149176" style="stroke: #000000; stroke-width: 0.8"/>
      </g>
     </g>
     <g id="text_29">
      <!-- 0.2 -->
      <g transform="translate(76.546875 208.948395) scale(0.1 -0.1)">
       <use xlink:href="#DejaVuSans-30"/>
       <use xlink:href="#DejaVuSans-2e" x="63.623047"/>
       <use xlink:href="#DejaVuSans-32" x="95.410156"/>
      </g>
     </g>
    </g>
    <g id="ytick_9">
     <g id="line2d_40">
      <g>
       <use xlink:href="#m6fc8287c71" x="99.45" y="169.928471" style="stroke: #000000; stroke-width: 0.8"/>
      </g>
     </g>
     <g id="text_30">
      <!-- 0.4 -->
      <g transform="translate(76.546875 173.727689) scale(0.1 -0.1)">
       <use xlink:href="#DejaVuSans-30"/>
       <use xlink:href="#DejaVuSans-2e" x="63.623047"/>
       <use xlink:href="#DejaVuSans-34" x="95.410156"/>
      </g>
     </g>
    </g>
   </g>
   <g id="line2d_41">
    <path d="M 112.189463 183.345882 
L 127.177066 174.96 
L 142.164669 176.637176 
L 157.152273 161.542588 
L 172.139876 208.503529 
L 187.127479 195.086118 
L 202.115083 198.440471 
L 217.102686 198.440471 
L 232.090289 215.212235 
L 247.077893 206.826353 
L 262.065496 220.243765 
L 277.053099 201.794824 
L 292.040702 208.503529 
L 307.028306 213.535059 
L 322.015909 216.889412 
L 337.003512 216.889412 
L 351.991116 216.889412 
L 366.978719 211.857882 
" clip-path="url(#p71d90f787e)" style="fill: none; stroke: #1f77b4; stroke-width: 1.5; stroke-linecap: square"/>
   </g>
   <g id="line2d_42">
    <path d="M 112.189463 158.188235 
L 127.177066 176.637176 
L 142.164669 178.314353 
L 157.152273 161.542588 
L 172.139876 188.377412 
L 187.127479 195.086118 
L 202.115083 201.794824 
L 217.102686 201.794824 
L 232.090289 206.826353 
L 247.077893 210.180706 
L 262.065496 203.472 
L 277.053099 193.408941 
L 292.040702 190.054588 
L 307.028306 201.794824 
L 322.015909 206.826353 
L 337.003512 206.826353 
L 351.991116 210.180706 
L 366.978719 201.794824 
" clip-path="url(#p71d90f787e)" style="fill: none; stroke: #ff7f0e; stroke-width: 1.5; stroke-linecap: square"/>
   </g>
   <g id="line2d_43">
    <path d="M 112.189463 153.156706 
L 127.177066 163.219765 
L 142.164669 178.314353 
L 157.152273 171.605647 
L 172.139876 186.700235 
L 187.127479 161.542588 
L 202.115083 221.920941 
L 217.102686 208.503529 
L 232.090289 198.440471 
L 247.077893 206.826353 
L 262.065496 210.180706 
L 277.053099 205.149176 
L 292.040702 198.440471 
L 307.028306 215.212235 
L 322.015909 208.503529 
L 337.003512 198.440471 
L 351.991116 210.180706 
L 366.978719 196.763294 
" clip-path="url(#p71d90f787e)" style="fill: none; stroke: #2ca02c; stroke-width: 1.5; stroke-linecap: square"/>
   </g>
   <g id="line2d_44">
    <path d="M 112.189463 164.896941 
L 127.177066 173.282824 
L 142.164669 183.345882 
L 157.152273 151.479529 
L 172.139876 188.377412 
L 187.127479 195.086118 
L 202.115083 205.149176 
L 217.102686 201.794824 
L 232.090289 211.857882 
L 247.077893 205.149176 
L 262.065496 206.826353 
L 277.053099 206.826353 
L 292.040702 200.117647 
L 307.028306 201.794824 
L 322.015909 210.180706 
L 337.003512 210.180706 
L 351.991116 213.535059 
L 366.978719 208.503529 
" clip-path="url(#p71d90f787e)" style="fill: none; stroke: #d62728; stroke-width: 1.5; stroke-linecap: square"/>
   </g>
   <g id="line2d_45">
    <path d="M 112.189463 169.928471 
L 127.177066 163.219765 
L 142.164669 188.377412 
L 157.152273 146.448 
L 172.139876 183.345882 
L 187.127479 193.408941 
L 202.115083 211.857882 
L 217.102686 208.503529 
L 232.090289 220.243765 
L 247.077893 210.180706 
L 262.065496 218.566588 
L 277.053099 191.731765 
L 292.040702 208.503529 
L 307.028306 215.212235 
L 322.015909 210.180706 
L 337.003512 216.889412 
L 351.991116 218.566588 
L 366.978719 218.566588 
" clip-path="url(#p71d90f787e)" style="fill: none; stroke: #9467bd; stroke-width: 1.5; stroke-linecap: square"/>
   </g>
   <g id="line2d_46">
    <path d="M 112.189463 174.96 
L 127.177066 176.637176 
L 142.164669 201.794824 
L 157.152273 166.574118 
L 172.139876 183.345882 
L 187.127479 206.826353 
L 202.115083 211.857882 
L 217.102686 203.472 
L 232.090289 210.180706 
L 247.077893 205.149176 
L 262.065496 211.857882 
L 277.053099 208.503529 
L 292.040702 205.149176 
L 307.028306 208.503529 
L 322.015909 211.857882 
L 337.003512 208.503529 
L 351.991116 218.566588 
L 366.978719 210.180706 
" clip-path="url(#p71d90f787e)" style="fill: none; stroke: #8c564b; stroke-width: 1.5; stroke-linecap: square"/>
   </g>
   <g id="patch_13">
    <path d="M 99.45 240.369882 
L 99.45 152.318118 
" style="fill: none; stroke: #000000; stroke-width: 0.8; stroke-linejoin: miter; stroke-linecap: square"/>
   </g>
   <g id="patch_14">
    <path d="M 379.718182 240.369882 
L 379.718182 152.318118 
" style="fill: none; stroke: #000000; stroke-width: 0.8; stroke-linejoin: miter; stroke-linecap: square"/>
   </g>
   <g id="patch_15">
    <path d="M 99.45 240.369882 
L 379.718182 240.369882 
" style="fill: none; stroke: #000000; stroke-width: 0.8; stroke-linejoin: miter; stroke-linecap: square"/>
   </g>
   <g id="patch_16">
    <path d="M 99.45 152.318118 
L 379.718182 152.318118 
" style="fill: none; stroke: #000000; stroke-width: 0.8; stroke-linejoin: miter; stroke-linecap: square"/>
   </g>
  </g>
  <g id="axes_4">
   <g id="patch_17">
    <path d="M 435.771818 240.369882 
L 716.04 240.369882 
L 716.04 152.318118 
L 435.771818 152.318118 
z
" style="fill: #ffffff"/>
   </g>
   <g id="matplotlib.axis_7">
    <g id="xtick_20">
     <g id="line2d_47">
      <g>
       <use xlink:href="#m7ff9a7a80f" x="463.498884" y="240.369882" style="stroke: #000000; stroke-width: 0.8"/>
      </g>
     </g>
     <g id="text_31">
      <!-- 20 -->
      <g transform="translate(457.136384 254.96832) scale(0.1 -0.1)">
       <use xlink:href="#DejaVuSans-32"/>
       <use xlink:href="#DejaVuSans-30" x="63.623047"/>
      </g>
     </g>
    </g>
    <g id="xtick_21">
     <g id="line2d_48">
      <g>
       <use xlink:href="#m7ff9a7a80f" x="523.449298" y="240.369882" style="stroke: #000000; stroke-width: 0.8"/>
      </g>
     </g>
     <g id="text_32">
      <!-- 40 -->
      <g transform="translate(517.086798 254.96832) scale(0.1 -0.1)">
       <use xlink:href="#DejaVuSans-34"/>
       <use xlink:href="#DejaVuSans-30" x="63.623047"/>
      </g>
     </g>
    </g>
    <g id="xtick_22">
     <g id="line2d_49">
      <g>
       <use xlink:href="#m7ff9a7a80f" x="583.399711" y="240.369882" style="stroke: #000000; stroke-width: 0.8"/>
      </g>
     </g>
     <g id="text_33">
      <!-- 60 -->
      <g transform="translate(577.037211 254.96832) scale(0.1 -0.1)">
       <use xlink:href="#DejaVuSans-36"/>
       <use xlink:href="#DejaVuSans-30" x="63.623047"/>
      </g>
     </g>
    </g>
    <g id="xtick_23">
     <g id="line2d_50">
      <g>
       <use xlink:href="#m7ff9a7a80f" x="643.350124" y="240.369882" style="stroke: #000000; stroke-width: 0.8"/>
      </g>
     </g>
     <g id="text_34">
      <!-- 80 -->
      <g transform="translate(636.987624 254.96832) scale(0.1 -0.1)">
       <use xlink:href="#DejaVuSans-38"/>
       <use xlink:href="#DejaVuSans-30" x="63.623047"/>
      </g>
     </g>
    </g>
    <g id="xtick_24">
     <g id="line2d_51">
      <g>
       <use xlink:href="#m7ff9a7a80f" x="703.300537" y="240.369882" style="stroke: #000000; stroke-width: 0.8"/>
      </g>
     </g>
     <g id="text_35">
      <!-- 100 -->
      <g transform="translate(693.756787 254.96832) scale(0.1 -0.1)">
       <use xlink:href="#DejaVuSans-31"/>
       <use xlink:href="#DejaVuSans-30" x="63.623047"/>
       <use xlink:href="#DejaVuSans-30" x="127.246094"/>
      </g>
     </g>
    </g>
   </g>
   <g id="matplotlib.axis_8">
    <g id="ytick_10">
     <g id="line2d_52">
      <g>
       <use xlink:href="#m6fc8287c71" x="435.771818" y="240.369882" style="stroke: #000000; stroke-width: 0.8"/>
      </g>
     </g>
     <g id="text_36">
      <!-- 0.0 -->
      <g transform="translate(412.868693 244.169101) scale(0.1 -0.1)">
       <use xlink:href="#DejaVuSans-30"/>
       <use xlink:href="#DejaVuSans-2e" x="63.623047"/>
       <use xlink:href="#DejaVuSans-30" x="95.410156"/>
      </g>
     </g>
    </g>
    <g id="ytick_11">
     <g id="line2d_53">
      <g>
       <use xlink:href="#m6fc8287c71" x="435.771818" y="205.149176" style="stroke: #000000; stroke-width: 0.8"/>
      </g>
     </g>
     <g id="text_37">
      <!-- 0.2 -->
      <g transform="translate(412.868693 208.948395) scale(0.1 -0.1)">
       <use xlink:href="#DejaVuSans-30"/>
       <use xlink:href="#DejaVuSans-2e" x="63.623047"/>
       <use xlink:href="#DejaVuSans-32" x="95.410156"/>
      </g>
     </g>
    </g>
    <g id="ytick_12">
     <g id="line2d_54">
      <g>
       <use xlink:href="#m6fc8287c71" x="435.771818" y="169.928471" style="stroke: #000000; stroke-width: 0.8"/>
      </g>
     </g>
     <g id="text_38">
      <!-- 0.4 -->
      <g transform="translate(412.868693 173.727689) scale(0.1 -0.1)">
       <use xlink:href="#DejaVuSans-30"/>
       <use xlink:href="#DejaVuSans-2e" x="63.623047"/>
       <use xlink:href="#DejaVuSans-34" x="95.410156"/>
      </g>
     </g>
    </g>
   </g>
   <g id="line2d_55">
    <path d="M 448.511281 149.802353 
L 463.498884 173.282824 
L 478.486488 196.763294 
L 493.474091 183.345882 
L 508.461694 205.149176 
L 523.449298 201.794824 
L 538.436901 198.440471 
L 553.424504 203.472 
L 568.412107 195.086118 
L 583.399711 201.794824 
L 598.387314 193.408941 
L 613.374917 208.503529 
L 628.362521 201.794824 
L 643.350124 218.566588 
L 658.337727 210.180706 
L 673.325331 216.889412 
L 688.312934 213.535059 
L 703.300537 216.889412 
" clip-path="url(#p2be4e30637)" style="fill: none; stroke: #1f77b4; stroke-width: 1.5; stroke-linecap: square"/>
   </g>
   <g id="line2d_56">
    <path d="M 448.511281 158.188235 
L 463.498884 174.96 
L 478.486488 195.086118 
L 493.474091 179.991529 
L 508.461694 193.408941 
L 523.449298 190.054588 
L 538.436901 191.731765 
L 553.424504 201.794824 
L 568.412107 188.377412 
L 583.399711 191.731765 
L 598.387314 195.086118 
L 613.374917 201.794824 
L 628.362521 195.086118 
L 643.350124 201.794824 
L 658.337727 210.180706 
L 673.325331 211.857882 
L 688.312934 211.857882 
L 703.300537 200.117647 
" clip-path="url(#p2be4e30637)" style="fill: none; stroke: #ff7f0e; stroke-width: 1.5; stroke-linecap: square"/>
   </g>
   <g id="line2d_57">
    <path d="M 448.511281 161.542588 
L 463.498884 168.251294 
L 478.486488 190.054588 
L 493.474091 178.314353 
L 508.461694 196.763294 
L 523.449298 198.440471 
L 538.436901 183.345882 
L 553.424504 213.535059 
L 568.412107 213.535059 
L 583.399711 196.763294 
L 598.387314 185.023059 
L 613.374917 215.212235 
L 628.362521 195.086118 
L 643.350124 208.503529 
L 658.337727 216.889412 
L 673.325331 201.794824 
L 688.312934 213.535059 
L 703.300537 220.243765 
" clip-path="url(#p2be4e30637)" style="fill: none; stroke: #2ca02c; stroke-width: 1.5; stroke-linecap: square"/>
   </g>
   <g id="line2d_58">
    <path d="M 448.511281 144.770824 
L 463.498884 173.282824 
L 478.486488 186.700235 
L 493.474091 181.668706 
L 508.461694 195.086118 
L 523.449298 195.086118 
L 538.436901 193.408941 
L 553.424504 210.180706 
L 568.412107 196.763294 
L 583.399711 201.794824 
L 598.387314 190.054588 
L 613.374917 208.503529 
L 628.362521 191.731765 
L 643.350124 228.629647 
L 658.337727 216.889412 
L 673.325331 210.180706 
L 688.312934 208.503529 
L 703.300537 200.117647 
" clip-path="url(#p2be4e30637)" style="fill: none; stroke: #d62728; stroke-width: 1.5; stroke-linecap: square"/>
   </g>
   <g id="line2d_59">
    <path d="M 448.511281 144.770824 
L 463.498884 178.314353 
L 478.486488 191.731765 
L 493.474091 183.345882 
L 508.461694 191.731765 
L 523.449298 193.408941 
L 538.436901 208.503529 
L 553.424504 206.826353 
L 568.412107 200.117647 
L 583.399711 213.535059 
L 598.387314 191.731765 
L 613.374917 215.212235 
L 628.362521 196.763294 
L 643.350124 218.566588 
L 658.337727 215.212235 
L 673.325331 211.857882 
L 688.312934 225.275294 
L 703.300537 208.503529 
" clip-path="url(#p2be4e30637)" style="fill: none; stroke: #9467bd; stroke-width: 1.5; stroke-linecap: square"/>
   </g>
   <g id="line2d_60">
    <path d="M 448.511281 161.542588 
L 463.498884 178.314353 
L 478.486488 200.117647 
L 493.474091 183.345882 
L 508.461694 196.763294 
L 523.449298 195.086118 
L 538.436901 190.054588 
L 553.424504 213.535059 
L 568.412107 203.472 
L 583.399711 203.472 
L 598.387314 193.408941 
L 613.374917 206.826353 
L 628.362521 191.731765 
L 643.350124 211.857882 
L 658.337727 216.889412 
L 673.325331 215.212235 
L 688.312934 218.566588 
L 703.300537 208.503529 
" clip-path="url(#p2be4e30637)" style="fill: none; stroke: #8c564b; stroke-width: 1.5; stroke-linecap: square"/>
   </g>
   <g id="patch_18">
    <path d="M 435.771818 240.369882 
L 435.771818 152.318118 
" style="fill: none; stroke: #000000; stroke-width: 0.8; stroke-linejoin: miter; stroke-linecap: square"/>
   </g>
   <g id="patch_19">
    <path d="M 716.04 240.369882 
L 716.04 152.318118 
" style="fill: none; stroke: #000000; stroke-width: 0.8; stroke-linejoin: miter; stroke-linecap: square"/>
   </g>
   <g id="patch_20">
    <path d="M 435.771818 240.369882 
L 716.04 240.369882 
" style="fill: none; stroke: #000000; stroke-width: 0.8; stroke-linejoin: miter; stroke-linecap: square"/>
   </g>
   <g id="patch_21">
    <path d="M 435.771818 152.318118 
L 716.04 152.318118 
" style="fill: none; stroke: #000000; stroke-width: 0.8; stroke-linejoin: miter; stroke-linecap: square"/>
   </g>
  </g>
  <g id="axes_5">
   <g id="patch_22">
    <path d="M 99.45 346.032 
L 379.718182 346.032 
L 379.718182 257.980235 
L 99.45 257.980235 
z
" style="fill: #ffffff"/>
   </g>
   <g id="matplotlib.axis_9">
    <g id="xtick_25">
     <g id="line2d_61">
      <g>
       <use xlink:href="#m7ff9a7a80f" x="119.910349" y="346.032" style="stroke: #000000; stroke-width: 0.8"/>
      </g>
     </g>
     <g id="text_39">
      <!-- 25 -->
      <g transform="translate(113.547849 360.630438) scale(0.1 -0.1)">
       <use xlink:href="#DejaVuSans-32"/>
       <use xlink:href="#DejaVuSans-35" x="63.623047"/>
      </g>
     </g>
    </g>
    <g id="xtick_26">
     <g id="line2d_62">
      <g>
       <use xlink:href="#m7ff9a7a80f" x="158.514782" y="346.032" style="stroke: #000000; stroke-width: 0.8"/>
      </g>
     </g>
     <g id="text_40">
      <!-- 50 -->
      <g transform="translate(152.152282 360.630438) scale(0.1 -0.1)">
       <use xlink:href="#DejaVuSans-35"/>
       <use xlink:href="#DejaVuSans-30" x="63.623047"/>
      </g>
     </g>
    </g>
    <g id="xtick_27">
     <g id="line2d_63">
      <g>
       <use xlink:href="#m7ff9a7a80f" x="197.119215" y="346.032" style="stroke: #000000; stroke-width: 0.8"/>
      </g>
     </g>
     <g id="text_41">
      <!-- 75 -->
      <g transform="translate(190.756715 360.630438) scale(0.1 -0.1)">
       <defs>
        <path id="DejaVuSans-37" d="M 525 4666 
L 3525 4666 
L 3525 4397 
L 1831 0 
L 1172 0 
L 2766 4134 
L 525 4134 
L 525 4666 
z
" transform="scale(0.015625)"/>
       </defs>
       <use xlink:href="#DejaVuSans-37"/>
       <use xlink:href="#DejaVuSans-35" x="63.623047"/>
      </g>
     </g>
    </g>
    <g id="xtick_28">
     <g id="line2d_64">
      <g>
       <use xlink:href="#m7ff9a7a80f" x="235.723648" y="346.032" style="stroke: #000000; stroke-width: 0.8"/>
      </g>
     </g>
     <g id="text_42">
      <!-- 100 -->
      <g transform="translate(226.179898 360.630438) scale(0.1 -0.1)">
       <use xlink:href="#DejaVuSans-31"/>
       <use xlink:href="#DejaVuSans-30" x="63.623047"/>
       <use xlink:href="#DejaVuSans-30" x="127.246094"/>
      </g>
     </g>
    </g>
    <g id="xtick_29">
     <g id="line2d_65">
      <g>
       <use xlink:href="#m7ff9a7a80f" x="274.32808" y="346.032" style="stroke: #000000; stroke-width: 0.8"/>
      </g>
     </g>
     <g id="text_43">
      <!-- 125 -->
      <g transform="translate(264.78433 360.630438) scale(0.1 -0.1)">
       <use xlink:href="#DejaVuSans-31"/>
       <use xlink:href="#DejaVuSans-32" x="63.623047"/>
       <use xlink:href="#DejaVuSans-35" x="127.246094"/>
      </g>
     </g>
    </g>
    <g id="xtick_30">
     <g id="line2d_66">
      <g>
       <use xlink:href="#m7ff9a7a80f" x="312.932513" y="346.032" style="stroke: #000000; stroke-width: 0.8"/>
      </g>
     </g>
     <g id="text_44">
      <!-- 150 -->
      <g transform="translate(303.388763 360.630438) scale(0.1 -0.1)">
       <use xlink:href="#DejaVuSans-31"/>
       <use xlink:href="#DejaVuSans-35" x="63.623047"/>
       <use xlink:href="#DejaVuSans-30" x="127.246094"/>
      </g>
     </g>
    </g>
    <g id="xtick_31">
     <g id="line2d_67">
      <g>
       <use xlink:href="#m7ff9a7a80f" x="351.536946" y="346.032" style="stroke: #000000; stroke-width: 0.8"/>
      </g>
     </g>
     <g id="text_45">
      <!-- 175 -->
      <g transform="translate(341.993196 360.630438) scale(0.1 -0.1)">
       <use xlink:href="#DejaVuSans-31"/>
       <use xlink:href="#DejaVuSans-37" x="63.623047"/>
       <use xlink:href="#DejaVuSans-35" x="127.246094"/>
      </g>
     </g>
    </g>
   </g>
   <g id="matplotlib.axis_10">
    <g id="ytick_13">
     <g id="line2d_68">
      <g>
       <use xlink:href="#m6fc8287c71" x="99.45" y="346.032" style="stroke: #000000; stroke-width: 0.8"/>
      </g>
     </g>
     <g id="text_46">
      <!-- 0.0 -->
      <g transform="translate(76.546875 349.831219) scale(0.1 -0.1)">
       <use xlink:href="#DejaVuSans-30"/>
       <use xlink:href="#DejaVuSans-2e" x="63.623047"/>
       <use xlink:href="#DejaVuSans-30" x="95.410156"/>
      </g>
     </g>
    </g>
    <g id="ytick_14">
     <g id="line2d_69">
      <g>
       <use xlink:href="#m6fc8287c71" x="99.45" y="310.811294" style="stroke: #000000; stroke-width: 0.8"/>
      </g>
     </g>
     <g id="text_47">
      <!-- 0.2 -->
      <g transform="translate(76.546875 314.610513) scale(0.1 -0.1)">
       <use xlink:href="#DejaVuSans-30"/>
       <use xlink:href="#DejaVuSans-2e" x="63.623047"/>
       <use xlink:href="#DejaVuSans-32" x="95.410156"/>
      </g>
     </g>
    </g>
    <g id="ytick_15">
     <g id="line2d_70">
      <g>
       <use xlink:href="#m6fc8287c71" x="99.45" y="275.590588" style="stroke: #000000; stroke-width: 0.8"/>
      </g>
     </g>
     <g id="text_48">
      <!-- 0.4 -->
      <g transform="translate(76.546875 279.389807) scale(0.1 -0.1)">
       <use xlink:href="#DejaVuSans-30"/>
       <use xlink:href="#DejaVuSans-2e" x="63.623047"/>
       <use xlink:href="#DejaVuSans-34" x="95.410156"/>
      </g>
     </g>
    </g>
   </g>
   <g id="line2d_71">
    <path d="M 112.189463 295.054663 
L 119.910349 283.932334 
L 127.631236 286.712916 
L 135.352122 269.102563 
L 143.073009 273.736867 
L 150.793896 305.25013 
L 158.514782 290.420359 
L 166.235669 291.34722 
L 173.956555 306.176991 
L 181.677442 286.712916 
L 189.398328 300.615827 
L 197.119215 292.27408 
L 204.840101 281.151752 
L 212.560988 306.176991 
L 220.281875 295.981523 
L 228.002761 308.030712 
L 235.723648 307.103851 
L 243.444534 294.127802 
L 251.165421 303.396409 
L 258.886307 321.006762 
L 266.607194 293.200941 
L 274.32808 298.762105 
L 282.048967 306.176991 
L 289.769853 296.908384 
L 297.49074 306.176991 
L 305.211627 321.933622 
L 312.932513 308.030712 
L 320.6534 300.615827 
L 328.374286 307.103851 
L 336.095173 296.908384 
L 343.816059 294.127802 
L 351.536946 309.884433 
L 359.257832 314.518737 
L 366.978719 304.323269 
" clip-path="url(#p307e5d08ee)" style="fill: none; stroke: #1f77b4; stroke-width: 1.5; stroke-linecap: square"/>
   </g>
   <g id="line2d_72">
    <path d="M 112.189463 295.981523 
L 119.910349 276.517449 
L 127.631236 281.151752 
L 135.352122 257.980235 
L 143.073009 276.517449 
L 150.793896 301.542687 
L 158.514782 293.200941 
L 166.235669 291.34722 
L 173.956555 299.688966 
L 181.677442 286.712916 
L 189.398328 301.542687 
L 197.119215 295.054663 
L 204.840101 279.298031 
L 212.560988 301.542687 
L 220.281875 297.835245 
L 228.002761 306.176991 
L 235.723648 306.176991 
L 243.444534 289.493498 
L 251.165421 300.615827 
L 258.886307 321.006762 
L 266.607194 290.420359 
L 274.32808 297.835245 
L 282.048967 296.908384 
L 289.769853 296.908384 
L 297.49074 300.615827 
L 305.211627 317.299319 
L 312.932513 302.469548 
L 320.6534 298.762105 
L 328.374286 301.542687 
L 336.095173 287.639777 
L 343.816059 289.493498 
L 351.536946 311.738155 
L 359.257832 314.518737 
L 366.978719 295.981523 
" clip-path="url(#p307e5d08ee)" style="fill: none; stroke: #ff7f0e; stroke-width: 1.5; stroke-linecap: square"/>
   </g>
   <g id="line2d_73">
    <path d="M 112.189463 286.712916 
L 119.910349 274.663728 
L 127.631236 280.224892 
L 135.352122 281.151752 
L 143.073009 286.712916 
L 150.793896 295.981523 
L 158.514782 268.175703 
L 166.235669 282.078613 
L 173.956555 283.005474 
L 181.677442 266.321981 
L 189.398328 302.469548 
L 197.119215 300.615827 
L 204.840101 285.786056 
L 212.560988 300.615827 
L 220.281875 274.663728 
L 228.002761 311.738155 
L 235.723648 312.665015 
L 243.444534 284.859195 
L 251.165421 285.786056 
L 258.886307 308.957573 
L 266.607194 287.639777 
L 274.32808 295.054663 
L 282.048967 294.127802 
L 289.769853 278.37117 
L 297.49074 302.469548 
L 305.211627 308.030712 
L 312.932513 314.518737 
L 320.6534 308.030712 
L 328.374286 278.37117 
L 336.095173 295.054663 
L 343.816059 265.395121 
L 351.536946 315.445598 
L 359.257832 314.518737 
L 366.978719 293.200941 
" clip-path="url(#p307e5d08ee)" style="fill: none; stroke: #2ca02c; stroke-width: 1.5; stroke-linecap: square"/>
   </g>
   <g id="line2d_74">
    <path d="M 112.189463 301.542687 
L 119.910349 284.859195 
L 127.631236 273.736867 
L 135.352122 267.248842 
L 143.073009 289.493498 
L 150.793896 300.615827 
L 158.514782 289.493498 
L 166.235669 289.493498 
L 173.956555 299.688966 
L 181.677442 285.786056 
L 189.398328 295.981523 
L 197.119215 300.615827 
L 204.840101 278.37117 
L 212.560988 305.25013 
L 220.281875 297.835245 
L 228.002761 307.103851 
L 235.723648 312.665015 
L 243.444534 291.34722 
L 251.165421 296.908384 
L 258.886307 323.787344 
L 266.607194 286.712916 
L 274.32808 296.908384 
L 282.048967 298.762105 
L 289.769853 298.762105 
L 297.49074 312.665015 
L 305.211627 317.299319 
L 312.932513 298.762105 
L 320.6534 307.103851 
L 328.374286 308.030712 
L 336.095173 295.054663 
L 343.816059 290.420359 
L 351.536946 309.884433 
L 359.257832 315.445598 
L 366.978719 297.835245 
" clip-path="url(#p307e5d08ee)" style="fill: none; stroke: #d62728; stroke-width: 1.5; stroke-linecap: square"/>
   </g>
   <g id="line2d_75">
    <path d="M 112.189463 283.932334 
L 119.910349 289.493498 
L 127.631236 281.151752 
L 135.352122 269.102563 
L 143.073009 288.566638 
L 150.793896 297.835245 
L 158.514782 290.420359 
L 166.235669 287.639777 
L 173.956555 298.762105 
L 181.677442 283.005474 
L 189.398328 295.054663 
L 197.119215 296.908384 
L 204.840101 285.786056 
L 212.560988 300.615827 
L 220.281875 291.34722 
L 228.002761 309.884433 
L 235.723648 320.079901 
L 243.444534 295.981523 
L 251.165421 303.396409 
L 258.886307 315.445598 
L 266.607194 291.34722 
L 274.32808 308.030712 
L 282.048967 309.884433 
L 289.769853 301.542687 
L 297.49074 313.591876 
L 305.211627 316.372458 
L 312.932513 305.25013 
L 320.6534 300.615827 
L 328.374286 310.811294 
L 336.095173 299.688966 
L 343.816059 279.298031 
L 351.536946 319.15304 
L 359.257832 318.22618 
L 366.978719 310.811294 
" clip-path="url(#p307e5d08ee)" style="fill: none; stroke: #9467bd; stroke-width: 1.5; stroke-linecap: square"/>
   </g>
   <g id="line2d_76">
    <path d="M 112.189463 298.762105 
L 119.910349 272.810006 
L 127.631236 287.639777 
L 135.352122 259.833957 
L 143.073009 280.224892 
L 150.793896 298.762105 
L 158.514782 291.34722 
L 166.235669 295.981523 
L 173.956555 299.688966 
L 181.677442 279.298031 
L 189.398328 294.127802 
L 197.119215 297.835245 
L 204.840101 283.005474 
L 212.560988 306.176991 
L 220.281875 296.908384 
L 228.002761 306.176991 
L 235.723648 310.811294 
L 243.444534 294.127802 
L 251.165421 293.200941 
L 258.886307 319.15304 
L 266.607194 289.493498 
L 274.32808 298.762105 
L 282.048967 298.762105 
L 289.769853 303.396409 
L 297.49074 306.176991 
L 305.211627 316.372458 
L 312.932513 304.323269 
L 320.6534 308.957573 
L 328.374286 308.030712 
L 336.095173 295.981523 
L 343.816059 298.762105 
L 351.536946 309.884433 
L 359.257832 310.811294 
L 366.978719 301.542687 
" clip-path="url(#p307e5d08ee)" style="fill: none; stroke: #8c564b; stroke-width: 1.5; stroke-linecap: square"/>
   </g>
   <g id="patch_23">
    <path d="M 99.45 346.032 
L 99.45 257.980235 
" style="fill: none; stroke: #000000; stroke-width: 0.8; stroke-linejoin: miter; stroke-linecap: square"/>
   </g>
   <g id="patch_24">
    <path d="M 379.718182 346.032 
L 379.718182 257.980235 
" style="fill: none; stroke: #000000; stroke-width: 0.8; stroke-linejoin: miter; stroke-linecap: square"/>
   </g>
   <g id="patch_25">
    <path d="M 99.45 346.032 
L 379.718182 346.032 
" style="fill: none; stroke: #000000; stroke-width: 0.8; stroke-linejoin: miter; stroke-linecap: square"/>
   </g>
   <g id="patch_26">
    <path d="M 99.45 257.980235 
L 379.718182 257.980235 
" style="fill: none; stroke: #000000; stroke-width: 0.8; stroke-linejoin: miter; stroke-linecap: square"/>
   </g>
  </g>
  <g id="axes_6">
   <g id="patch_27">
    <path d="M 435.771818 346.032 
L 716.04 346.032 
L 716.04 257.980235 
L 435.771818 257.980235 
z
" style="fill: #ffffff"/>
   </g>
   <g id="matplotlib.axis_11">
    <g id="xtick_32">
     <g id="line2d_77">
      <g>
       <use xlink:href="#m7ff9a7a80f" x="456.232168" y="346.032" style="stroke: #000000; stroke-width: 0.8"/>
      </g>
     </g>
     <g id="text_49">
      <!-- 25 -->
      <g transform="translate(449.869668 360.630438) scale(0.1 -0.1)">
       <use xlink:href="#DejaVuSans-32"/>
       <use xlink:href="#DejaVuSans-35" x="63.623047"/>
      </g>
     </g>
    </g>
    <g id="xtick_33">
     <g id="line2d_78">
      <g>
       <use xlink:href="#m7ff9a7a80f" x="494.8366" y="346.032" style="stroke: #000000; stroke-width: 0.8"/>
      </g>
     </g>
     <g id="text_50">
      <!-- 50 -->
      <g transform="translate(488.4741 360.630438) scale(0.1 -0.1)">
       <use xlink:href="#DejaVuSans-35"/>
       <use xlink:href="#DejaVuSans-30" x="63.623047"/>
      </g>
     </g>
    </g>
    <g id="xtick_34">
     <g id="line2d_79">
      <g>
       <use xlink:href="#m7ff9a7a80f" x="533.441033" y="346.032" style="stroke: #000000; stroke-width: 0.8"/>
      </g>
     </g>
     <g id="text_51">
      <!-- 75 -->
      <g transform="translate(527.078533 360.630438) scale(0.1 -0.1)">
       <use xlink:href="#DejaVuSans-37"/>
       <use xlink:href="#DejaVuSans-35" x="63.623047"/>
      </g>
     </g>
    </g>
    <g id="xtick_35">
     <g id="line2d_80">
      <g>
       <use xlink:href="#m7ff9a7a80f" x="572.045466" y="346.032" style="stroke: #000000; stroke-width: 0.8"/>
      </g>
     </g>
     <g id="text_52">
      <!-- 100 -->
      <g transform="translate(562.501716 360.630438) scale(0.1 -0.1)">
       <use xlink:href="#DejaVuSans-31"/>
       <use xlink:href="#DejaVuSans-30" x="63.623047"/>
       <use xlink:href="#DejaVuSans-30" x="127.246094"/>
      </g>
     </g>
    </g>
    <g id="xtick_36">
     <g id="line2d_81">
      <g>
       <use xlink:href="#m7ff9a7a80f" x="610.649899" y="346.032" style="stroke: #000000; stroke-width: 0.8"/>
      </g>
     </g>
     <g id="text_53">
      <!-- 125 -->
      <g transform="translate(601.106149 360.630438) scale(0.1 -0.1)">
       <use xlink:href="#DejaVuSans-31"/>
       <use xlink:href="#DejaVuSans-32" x="63.623047"/>
       <use xlink:href="#DejaVuSans-35" x="127.246094"/>
      </g>
     </g>
    </g>
    <g id="xtick_37">
     <g id="line2d_82">
      <g>
       <use xlink:href="#m7ff9a7a80f" x="649.254331" y="346.032" style="stroke: #000000; stroke-width: 0.8"/>
      </g>
     </g>
     <g id="text_54">
      <!-- 150 -->
      <g transform="translate(639.710581 360.630438) scale(0.1 -0.1)">
       <use xlink:href="#DejaVuSans-31"/>
       <use xlink:href="#DejaVuSans-35" x="63.623047"/>
       <use xlink:href="#DejaVuSans-30" x="127.246094"/>
      </g>
     </g>
    </g>
    <g id="xtick_38">
     <g id="line2d_83">
      <g>
       <use xlink:href="#m7ff9a7a80f" x="687.858764" y="346.032" style="stroke: #000000; stroke-width: 0.8"/>
      </g>
     </g>
     <g id="text_55">
      <!-- 175 -->
      <g transform="translate(678.315014 360.630438) scale(0.1 -0.1)">
       <use xlink:href="#DejaVuSans-31"/>
       <use xlink:href="#DejaVuSans-37" x="63.623047"/>
       <use xlink:href="#DejaVuSans-35" x="127.246094"/>
      </g>
     </g>
    </g>
    <g id="text_56">
     <!-- Total number of matchups -->
     <g transform="translate(510.368409 374.308562) scale(0.1 -0.1)">
      <defs>
       <path id="DejaVuSans-54" d="M -19 4666 
L 3928 4666 
L 3928 4134 
L 2272 4134 
L 2272 0 
L 1638 0 
L 1638 4134 
L -19 4134 
L -19 4666 
z
" transform="scale(0.015625)"/>
       <path id="DejaVuSans-6c" d="M 603 4863 
L 1178 4863 
L 1178 0 
L 603 0 
L 603 4863 
z
" transform="scale(0.015625)"/>
       <path id="DejaVuSans-20" transform="scale(0.015625)"/>
       <path id="DejaVuSans-75" d="M 544 1381 
L 544 3500 
L 1119 3500 
L 1119 1403 
Q 1119 906 1312 657 
Q 1506 409 1894 409 
Q 2359 409 2629 706 
Q 2900 1003 2900 1516 
L 2900 3500 
L 3475 3500 
L 3475 0 
L 2900 0 
L 2900 538 
Q 2691 219 2414 64 
Q 2138 -91 1772 -91 
Q 1169 -91 856 284 
Q 544 659 544 1381 
z
M 1991 3584 
L 1991 3584 
z
" transform="scale(0.015625)"/>
       <path id="DejaVuSans-6d" d="M 3328 2828 
Q 3544 3216 3844 3400 
Q 4144 3584 4550 3584 
Q 5097 3584 5394 3201 
Q 5691 2819 5691 2113 
L 5691 0 
L 5113 0 
L 5113 2094 
Q 5113 2597 4934 2840 
Q 4756 3084 4391 3084 
Q 3944 3084 3684 2787 
Q 3425 2491 3425 1978 
L 3425 0 
L 2847 0 
L 2847 2094 
Q 2847 2600 2669 2842 
Q 2491 3084 2119 3084 
Q 1678 3084 1418 2786 
Q 1159 2488 1159 1978 
L 1159 0 
L 581 0 
L 581 3500 
L 1159 3500 
L 1159 2956 
Q 1356 3278 1631 3431 
Q 1906 3584 2284 3584 
Q 2666 3584 2933 3390 
Q 3200 3197 3328 2828 
z
" transform="scale(0.015625)"/>
       <path id="DejaVuSans-62" d="M 3116 1747 
Q 3116 2381 2855 2742 
Q 2594 3103 2138 3103 
Q 1681 3103 1420 2742 
Q 1159 2381 1159 1747 
Q 1159 1113 1420 752 
Q 1681 391 2138 391 
Q 2594 391 2855 752 
Q 3116 1113 3116 1747 
z
M 1159 2969 
Q 1341 3281 1617 3432 
Q 1894 3584 2278 3584 
Q 2916 3584 3314 3078 
Q 3713 2572 3713 1747 
Q 3713 922 3314 415 
Q 2916 -91 2278 -91 
Q 1894 -91 1617 61 
Q 1341 213 1159 525 
L 1159 0 
L 581 0 
L 581 4863 
L 1159 4863 
L 1159 2969 
z
" transform="scale(0.015625)"/>
       <path id="DejaVuSans-66" d="M 2375 4863 
L 2375 4384 
L 1825 4384 
Q 1516 4384 1395 4259 
Q 1275 4134 1275 3809 
L 1275 3500 
L 2222 3500 
L 2222 3053 
L 1275 3053 
L 1275 0 
L 697 0 
L 697 3053 
L 147 3053 
L 147 3500 
L 697 3500 
L 697 3744 
Q 697 4328 969 4595 
Q 1241 4863 1831 4863 
L 2375 4863 
z
" transform="scale(0.015625)"/>
       <path id="DejaVuSans-68" d="M 3513 2113 
L 3513 0 
L 2938 0 
L 2938 2094 
Q 2938 2591 2744 2837 
Q 2550 3084 2163 3084 
Q 1697 3084 1428 2787 
Q 1159 2491 1159 1978 
L 1159 0 
L 581 0 
L 581 4863 
L 1159 4863 
L 1159 2956 
Q 1366 3272 1645 3428 
Q 1925 3584 2291 3584 
Q 2894 3584 3203 3211 
Q 3513 2838 3513 2113 
z
" transform="scale(0.015625)"/>
       <path id="DejaVuSans-70" d="M 1159 525 
L 1159 -1331 
L 581 -1331 
L 581 3500 
L 1159 3500 
L 1159 2969 
Q 1341 3281 1617 3432 
Q 1894 3584 2278 3584 
Q 2916 3584 3314 3078 
Q 3713 2572 3713 1747 
Q 3713 922 3314 415 
Q 2916 -91 2278 -91 
Q 1894 -91 1617 61 
Q 1341 213 1159 525 
z
M 3116 1747 
Q 3116 2381 2855 2742 
Q 2594 3103 2138 3103 
Q 1681 3103 1420 2742 
Q 1159 2381 1159 1747 
Q 1159 1113 1420 752 
Q 1681 391 2138 391 
Q 2594 391 2855 752 
Q 3116 1113 3116 1747 
z
" transform="scale(0.015625)"/>
      </defs>
      <use xlink:href="#DejaVuSans-54"/>
      <use xlink:href="#DejaVuSans-6f" x="44.083984"/>
      <use xlink:href="#DejaVuSans-74" x="105.265625"/>
      <use xlink:href="#DejaVuSans-61" x="144.474609"/>
      <use xlink:href="#DejaVuSans-6c" x="205.753906"/>
      <use xlink:href="#DejaVuSans-20" x="233.537109"/>
      <use xlink:href="#DejaVuSans-6e" x="265.324219"/>
      <use xlink:href="#DejaVuSans-75" x="328.703125"/>
      <use xlink:href="#DejaVuSans-6d" x="392.082031"/>
      <use xlink:href="#DejaVuSans-62" x="489.494141"/>
      <use xlink:href="#DejaVuSans-65" x="552.970703"/>
      <use xlink:href="#DejaVuSans-72" x="614.494141"/>
      <use xlink:href="#DejaVuSans-20" x="655.607422"/>
      <use xlink:href="#DejaVuSans-6f" x="687.394531"/>
      <use xlink:href="#DejaVuSans-66" x="748.576172"/>
      <use xlink:href="#DejaVuSans-20" x="783.78125"/>
      <use xlink:href="#DejaVuSans-6d" x="815.568359"/>
      <use xlink:href="#DejaVuSans-61" x="912.980469"/>
      <use xlink:href="#DejaVuSans-74" x="974.259766"/>
      <use xlink:href="#DejaVuSans-63" x="1013.46875"/>
      <use xlink:href="#DejaVuSans-68" x="1068.449219"/>
      <use xlink:href="#DejaVuSans-75" x="1131.828125"/>
      <use xlink:href="#DejaVuSans-70" x="1195.207031"/>
      <use xlink:href="#DejaVuSans-73" x="1258.683594"/>
     </g>
    </g>
   </g>
   <g id="matplotlib.axis_12">
    <g id="ytick_16">
     <g id="line2d_84">
      <g>
       <use xlink:href="#m6fc8287c71" x="435.771818" y="346.032" style="stroke: #000000; stroke-width: 0.8"/>
      </g>
     </g>
     <g id="text_57">
      <!-- 0.0 -->
      <g transform="translate(412.868693 349.831219) scale(0.1 -0.1)">
       <use xlink:href="#DejaVuSans-30"/>
       <use xlink:href="#DejaVuSans-2e" x="63.623047"/>
       <use xlink:href="#DejaVuSans-30" x="95.410156"/>
      </g>
     </g>
    </g>
    <g id="ytick_17">
     <g id="line2d_85">
      <g>
       <use xlink:href="#m6fc8287c71" x="435.771818" y="310.811294" style="stroke: #000000; stroke-width: 0.8"/>
      </g>
     </g>
     <g id="text_58">
      <!-- 0.2 -->
      <g transform="translate(412.868693 314.610513) scale(0.1 -0.1)">
       <use xlink:href="#DejaVuSans-30"/>
       <use xlink:href="#DejaVuSans-2e" x="63.623047"/>
       <use xlink:href="#DejaVuSans-32" x="95.410156"/>
      </g>
     </g>
    </g>
    <g id="ytick_18">
     <g id="line2d_86">
      <g>
       <use xlink:href="#m6fc8287c71" x="435.771818" y="275.590588" style="stroke: #000000; stroke-width: 0.8"/>
      </g>
     </g>
     <g id="text_59">
      <!-- 0.4 -->
      <g transform="translate(412.868693 279.389807) scale(0.1 -0.1)">
       <use xlink:href="#DejaVuSans-30"/>
       <use xlink:href="#DejaVuSans-2e" x="63.623047"/>
       <use xlink:href="#DejaVuSans-34" x="95.410156"/>
      </g>
     </g>
    </g>
    <g id="text_60">
     <!-- Normalized Score -->
     <g transform="translate(406.789006 345.952993) rotate(-90) scale(0.1 -0.1)">
      <defs>
       <path id="DejaVuSans-4e" d="M 628 4666 
L 1478 4666 
L 3547 763 
L 3547 4666 
L 4159 4666 
L 4159 0 
L 3309 0 
L 1241 3903 
L 1241 0 
L 628 0 
L 628 4666 
z
" transform="scale(0.015625)"/>
       <path id="DejaVuSans-7a" d="M 353 3500 
L 3084 3500 
L 3084 2975 
L 922 459 
L 3084 459 
L 3084 0 
L 275 0 
L 275 525 
L 2438 3041 
L 353 3041 
L 353 3500 
z
" transform="scale(0.015625)"/>
       <path id="DejaVuSans-53" d="M 3425 4513 
L 3425 3897 
Q 3066 4069 2747 4153 
Q 2428 4238 2131 4238 
Q 1616 4238 1336 4038 
Q 1056 3838 1056 3469 
Q 1056 3159 1242 3001 
Q 1428 2844 1947 2747 
L 2328 2669 
Q 3034 2534 3370 2195 
Q 3706 1856 3706 1288 
Q 3706 609 3251 259 
Q 2797 -91 1919 -91 
Q 1588 -91 1214 -16 
Q 841 59 441 206 
L 441 856 
Q 825 641 1194 531 
Q 1563 422 1919 422 
Q 2459 422 2753 634 
Q 3047 847 3047 1241 
Q 3047 1584 2836 1778 
Q 2625 1972 2144 2069 
L 1759 2144 
Q 1053 2284 737 2584 
Q 422 2884 422 3419 
Q 422 4038 858 4394 
Q 1294 4750 2059 4750 
Q 2388 4750 2728 4690 
Q 3069 4631 3425 4513 
z
" transform="scale(0.015625)"/>
      </defs>
      <use xlink:href="#DejaVuSans-4e"/>
      <use xlink:href="#DejaVuSans-6f" x="74.804688"/>
      <use xlink:href="#DejaVuSans-72" x="135.986328"/>
      <use xlink:href="#DejaVuSans-6d" x="175.349609"/>
      <use xlink:href="#DejaVuSans-61" x="272.761719"/>
      <use xlink:href="#DejaVuSans-6c" x="334.041016"/>
      <use xlink:href="#DejaVuSans-69" x="361.824219"/>
      <use xlink:href="#DejaVuSans-7a" x="389.607422"/>
      <use xlink:href="#DejaVuSans-65" x="442.097656"/>
      <use xlink:href="#DejaVuSans-64" x="503.621094"/>
      <use xlink:href="#DejaVuSans-20" x="567.097656"/>
      <use xlink:href="#DejaVuSans-53" x="598.884766"/>
      <use xlink:href="#DejaVuSans-63" x="662.361328"/>
      <use xlink:href="#DejaVuSans-6f" x="717.341797"/>
      <use xlink:href="#DejaVuSans-72" x="778.523438"/>
      <use xlink:href="#DejaVuSans-65" x="817.386719"/>
     </g>
    </g>
   </g>
   <g id="line2d_87">
    <path d="M 448.511281 281.151752 
L 456.232168 282.078613 
L 463.953054 291.34722 
L 471.673941 284.859195 
L 479.394827 302.469548 
L 487.115714 245.931046 
L 494.8366 287.639777 
L 502.557487 292.27408 
L 510.278373 312.665015 
L 517.99926 268.175703 
L 525.720147 277.44431 
L 533.441033 293.200941 
L 541.16192 270.956285 
L 548.882806 307.103851 
L 556.603693 303.396409 
L 564.324579 286.712916 
L 572.045466 317.299319 
L 579.766352 310.811294 
L 587.487239 280.224892 
L 595.208125 297.835245 
L 602.929012 314.518737 
L 610.649899 304.323269 
L 618.370785 288.566638 
L 626.091672 277.44431 
L 633.812558 308.957573 
L 641.533445 319.15304 
L 649.254331 295.981523 
L 656.975218 305.25013 
L 664.696104 303.396409 
L 672.416991 316.372458 
L 680.137878 321.006762 
L 687.858764 305.25013 
L 695.579651 322.860483 
L 703.300537 290.420359 
" clip-path="url(#p662b540f91)" style="fill: none; stroke: #1f77b4; stroke-width: 1.5; stroke-linecap: square"/>
   </g>
   <g id="line2d_88">
    <path d="M 448.511281 272.810006 
L 456.232168 275.590588 
L 463.953054 291.34722 
L 471.673941 278.37117 
L 479.394827 301.542687 
L 487.115714 256.126514 
L 494.8366 278.37117 
L 502.557487 287.639777 
L 510.278373 294.127802 
L 517.99926 277.44431 
L 525.720147 284.859195 
L 533.441033 291.34722 
L 541.16192 272.810006 
L 548.882806 300.615827 
L 556.603693 298.762105 
L 564.324579 283.005474 
L 572.045466 315.445598 
L 579.766352 302.469548 
L 587.487239 276.517449 
L 595.208125 292.27408 
L 602.929012 304.323269 
L 610.649899 298.762105 
L 618.370785 282.078613 
L 626.091672 277.44431 
L 633.812558 304.323269 
L 641.533445 312.665015 
L 649.254331 298.762105 
L 656.975218 306.176991 
L 664.696104 302.469548 
L 672.416991 316.372458 
L 680.137878 316.372458 
L 687.858764 301.542687 
L 695.579651 318.22618 
L 703.300537 287.639777 
" clip-path="url(#p662b540f91)" style="fill: none; stroke: #ff7f0e; stroke-width: 1.5; stroke-linecap: square"/>
   </g>
   <g id="line2d_89">
    <path d="M 448.511281 264.46826 
L 456.232168 259.833957 
L 463.953054 295.981523 
L 471.673941 271.883146 
L 479.394827 280.224892 
L 487.115714 257.053375 
L 494.8366 283.932334 
L 502.557487 274.663728 
L 510.278373 305.25013 
L 517.99926 256.126514 
L 525.720147 268.175703 
L 533.441033 281.151752 
L 541.16192 277.44431 
L 548.882806 298.762105 
L 556.603693 295.981523 
L 564.324579 285.786056 
L 572.045466 318.22618 
L 579.766352 295.054663 
L 587.487239 276.517449 
L 595.208125 282.078613 
L 602.929012 306.176991 
L 610.649899 298.762105 
L 618.370785 283.932334 
L 626.091672 280.224892 
L 633.812558 282.078613 
L 641.533445 318.22618 
L 649.254331 295.054663 
L 656.975218 295.981523 
L 664.696104 294.127802 
L 672.416991 308.957573 
L 680.137878 306.176991 
L 687.858764 313.591876 
L 695.579651 316.372458 
L 703.300537 297.835245 
" clip-path="url(#p662b540f91)" style="fill: none; stroke: #2ca02c; stroke-width: 1.5; stroke-linecap: square"/>
   </g>
   <g id="line2d_90">
    <path d="M 448.511281 284.859195 
L 456.232168 271.883146 
L 463.953054 286.712916 
L 471.673941 274.663728 
L 479.394827 294.127802 
L 487.115714 257.980235 
L 494.8366 290.420359 
L 502.557487 287.639777 
L 510.278373 298.762105 
L 517.99926 278.37117 
L 525.720147 287.639777 
L 533.441033 287.639777 
L 541.16192 274.663728 
L 548.882806 308.030712 
L 556.603693 295.054663 
L 564.324579 284.859195 
L 572.045466 308.030712 
L 579.766352 308.030712 
L 587.487239 281.151752 
L 595.208125 292.27408 
L 602.929012 310.811294 
L 610.649899 300.615827 
L 618.370785 287.639777 
L 626.091672 279.298031 
L 633.812558 308.957573 
L 641.533445 319.15304 
L 649.254331 300.615827 
L 656.975218 306.176991 
L 664.696104 302.469548 
L 672.416991 316.372458 
L 680.137878 317.299319 
L 687.858764 306.176991 
L 695.579651 314.518737 
L 703.300537 290.420359 
" clip-path="url(#p662b540f91)" style="fill: none; stroke: #d62728; stroke-width: 1.5; stroke-linecap: square"/>
   </g>
   <g id="line2d_91">
    <path d="M 448.511281 275.590588 
L 456.232168 272.810006 
L 463.953054 285.786056 
L 471.673941 277.44431 
L 479.394827 300.615827 
L 487.115714 253.345932 
L 494.8366 297.835245 
L 502.557487 298.762105 
L 510.278373 313.591876 
L 517.99926 275.590588 
L 525.720147 296.908384 
L 533.441033 294.127802 
L 541.16192 275.590588 
L 548.882806 307.103851 
L 556.603693 296.908384 
L 564.324579 287.639777 
L 572.045466 310.811294 
L 579.766352 317.299319 
L 587.487239 279.298031 
L 595.208125 292.27408 
L 602.929012 303.396409 
L 610.649899 302.469548 
L 618.370785 293.200941 
L 626.091672 288.566638 
L 633.812558 303.396409 
L 641.533445 321.933622 
L 649.254331 298.762105 
L 656.975218 306.176991 
L 664.696104 297.835245 
L 672.416991 316.372458 
L 680.137878 315.445598 
L 687.858764 303.396409 
L 695.579651 322.860483 
L 703.300537 295.054663 
" clip-path="url(#p662b540f91)" style="fill: none; stroke: #9467bd; stroke-width: 1.5; stroke-linecap: square"/>
   </g>
   <g id="line2d_92">
    <path d="M 448.511281 270.029424 
L 456.232168 271.883146 
L 463.953054 283.932334 
L 471.673941 274.663728 
L 479.394827 300.615827 
L 487.115714 258.907096 
L 494.8366 287.639777 
L 502.557487 286.712916 
L 510.278373 297.835245 
L 517.99926 278.37117 
L 525.720147 283.005474 
L 533.441033 285.786056 
L 541.16192 278.37117 
L 548.882806 307.103851 
L 556.603693 307.103851 
L 564.324579 295.981523 
L 572.045466 314.518737 
L 579.766352 306.176991 
L 587.487239 279.298031 
L 595.208125 297.835245 
L 602.929012 307.103851 
L 610.649899 303.396409 
L 618.370785 290.420359 
L 626.091672 276.517449 
L 633.812558 308.030712 
L 641.533445 316.372458 
L 649.254331 307.103851 
L 656.975218 311.738155 
L 664.696104 304.323269 
L 672.416991 315.445598 
L 680.137878 313.591876 
L 687.858764 302.469548 
L 695.579651 319.15304 
L 703.300537 292.27408 
" clip-path="url(#p662b540f91)" style="fill: none; stroke: #8c564b; stroke-width: 1.5; stroke-linecap: square"/>
   </g>
   <g id="patch_28">
    <path d="M 435.771818 346.032 
L 435.771818 257.980235 
" style="fill: none; stroke: #000000; stroke-width: 0.8; stroke-linejoin: miter; stroke-linecap: square"/>
   </g>
   <g id="patch_29">
    <path d="M 716.04 346.032 
L 716.04 257.980235 
" style="fill: none; stroke: #000000; stroke-width: 0.8; stroke-linejoin: miter; stroke-linecap: square"/>
   </g>
   <g id="patch_30">
    <path d="M 435.771818 346.032 
L 716.04 346.032 
" style="fill: none; stroke: #000000; stroke-width: 0.8; stroke-linejoin: miter; stroke-linecap: square"/>
   </g>
   <g id="patch_31">
    <path d="M 435.771818 257.980235 
L 716.04 257.980235 
" style="fill: none; stroke: #000000; stroke-width: 0.8; stroke-linejoin: miter; stroke-linecap: square"/>
   </g>
   <g id="legend_1">
    <g id="patch_32">
     <path d="M 705.04 270.980235 
L 709.04 270.980235 
Q 711.04 270.980235 711.04 268.980235 
L 711.04 264.980235 
Q 711.04 262.980235 709.04 262.980235 
L 705.04 262.980235 
Q 703.04 262.980235 703.04 264.980235 
L 703.04 268.980235 
Q 703.04 270.980235 705.04 270.980235 
z
" style="fill: #ffffff; opacity: 0.8; stroke: #cccccc; stroke-linejoin: miter"/>
    </g>
   </g>
  </g>
  <g id="text_61">
   <!-- Constrained VS Unconstrained paper distribution, |V| = 10, 15, 20 -->
   <g transform="translate(199.46625 16.946625) scale(0.12 -0.12)">
    <defs>
     <path id="DejaVuSans-56" d="M 1831 0 
L 50 4666 
L 709 4666 
L 2188 738 
L 3669 4666 
L 4325 4666 
L 2547 0 
L 1831 0 
z
" transform="scale(0.015625)"/>
     <path id="DejaVuSans-2c" d="M 750 794 
L 1409 794 
L 1409 256 
L 897 -744 
L 494 -744 
L 750 256 
L 750 794 
z
" transform="scale(0.015625)"/>
     <path id="DejaVuSans-7c" d="M 1344 4891 
L 1344 -1509 
L 813 -1509 
L 813 4891 
L 1344 4891 
z
" transform="scale(0.015625)"/>
     <path id="DejaVuSans-3d" d="M 678 2906 
L 4684 2906 
L 4684 2381 
L 678 2381 
L 678 2906 
z
M 678 1631 
L 4684 1631 
L 4684 1100 
L 678 1100 
L 678 1631 
z
" transform="scale(0.015625)"/>
    </defs>
    <use xlink:href="#DejaVuSans-43"/>
    <use xlink:href="#DejaVuSans-6f" x="69.824219"/>
    <use xlink:href="#DejaVuSans-6e" x="131.005859"/>
    <use xlink:href="#DejaVuSans-73" x="194.384766"/>
    <use xlink:href="#DejaVuSans-74" x="246.484375"/>
    <use xlink:href="#DejaVuSans-72" x="285.693359"/>
    <use xlink:href="#DejaVuSans-61" x="326.806641"/>
    <use xlink:href="#DejaVuSans-69" x="388.085938"/>
    <use xlink:href="#DejaVuSans-6e" x="415.869141"/>
    <use xlink:href="#DejaVuSans-65" x="479.248047"/>
    <use xlink:href="#DejaVuSans-64" x="540.771484"/>
    <use xlink:href="#DejaVuSans-20" x="604.248047"/>
    <use xlink:href="#DejaVuSans-56" x="636.035156"/>
    <use xlink:href="#DejaVuSans-53" x="704.443359"/>
    <use xlink:href="#DejaVuSans-20" x="767.919922"/>
    <use xlink:href="#DejaVuSans-55" x="799.707031"/>
    <use xlink:href="#DejaVuSans-6e" x="872.900391"/>
    <use xlink:href="#DejaVuSans-63" x="936.279297"/>
    <use xlink:href="#DejaVuSans-6f" x="991.259766"/>
    <use xlink:href="#DejaVuSans-6e" x="1052.441406"/>
    <use xlink:href="#DejaVuSans-73" x="1115.820312"/>
    <use xlink:href="#DejaVuSans-74" x="1167.919922"/>
    <use xlink:href="#DejaVuSans-72" x="1207.128906"/>
    <use xlink:href="#DejaVuSans-61" x="1248.242188"/>
    <use xlink:href="#DejaVuSans-69" x="1309.521484"/>
    <use xlink:href="#DejaVuSans-6e" x="1337.304688"/>
    <use xlink:href="#DejaVuSans-65" x="1400.683594"/>
    <use xlink:href="#DejaVuSans-64" x="1462.207031"/>
    <use xlink:href="#DejaVuSans-20" x="1525.683594"/>
    <use xlink:href="#DejaVuSans-70" x="1557.470703"/>
    <use xlink:href="#DejaVuSans-61" x="1620.947266"/>
    <use xlink:href="#DejaVuSans-70" x="1682.226562"/>
    <use xlink:href="#DejaVuSans-65" x="1745.703125"/>
    <use xlink:href="#DejaVuSans-72" x="1807.226562"/>
    <use xlink:href="#DejaVuSans-20" x="1848.339844"/>
    <use xlink:href="#DejaVuSans-64" x="1880.126953"/>
    <use xlink:href="#DejaVuSans-69" x="1943.603516"/>
    <use xlink:href="#DejaVuSans-73" x="1971.386719"/>
    <use xlink:href="#DejaVuSans-74" x="2023.486328"/>
    <use xlink:href="#DejaVuSans-72" x="2062.695312"/>
    <use xlink:href="#DejaVuSans-69" x="2103.808594"/>
    <use xlink:href="#DejaVuSans-62" x="2131.591797"/>
    <use xlink:href="#DejaVuSans-75" x="2195.068359"/>
    <use xlink:href="#DejaVuSans-74" x="2258.447266"/>
    <use xlink:href="#DejaVuSans-69" x="2297.65625"/>
    <use xlink:href="#DejaVuSans-6f" x="2325.439453"/>
    <use xlink:href="#DejaVuSans-6e" x="2386.621094"/>
    <use xlink:href="#DejaVuSans-2c" x="2450"/>
    <use xlink:href="#DejaVuSans-20" x="2481.787109"/>
    <use xlink:href="#DejaVuSans-7c" x="2513.574219"/>
    <use xlink:href="#DejaVuSans-56" x="2547.265625"/>
    <use xlink:href="#DejaVuSans-7c" x="2615.673828"/>
    <use xlink:href="#DejaVuSans-20" x="2649.365234"/>
    <use xlink:href="#DejaVuSans-3d" x="2681.152344"/>
    <use xlink:href="#DejaVuSans-20" x="2764.941406"/>
    <use xlink:href="#DejaVuSans-31" x="2796.728516"/>
    <use xlink:href="#DejaVuSans-30" x="2860.351562"/>
    <use xlink:href="#DejaVuSans-2c" x="2923.974609"/>
    <use xlink:href="#DejaVuSans-20" x="2955.761719"/>
    <use xlink:href="#DejaVuSans-31" x="2987.548828"/>
    <use xlink:href="#DejaVuSans-35" x="3051.171875"/>
    <use xlink:href="#DejaVuSans-2c" x="3114.794922"/>
    <use xlink:href="#DejaVuSans-20" x="3146.582031"/>
    <use xlink:href="#DejaVuSans-32" x="3178.369141"/>
    <use xlink:href="#DejaVuSans-30" x="3241.992188"/>
   </g>
  </g>
  <g id="legend_2">
   <g id="patch_33">
    <path d="M 7 96.06875 
L 132.601562 96.06875 
Q 134.601562 96.06875 134.601562 94.06875 
L 134.601562 7 
Q 134.601562 5 132.601562 5 
L 7 5 
Q 5 5 5 7 
L 5 94.06875 
Q 5 96.06875 7 96.06875 
z
" style="fill: #ffffff; opacity: 0.8; stroke: #cccccc; stroke-linejoin: miter"/>
   </g>
   <g id="line2d_93">
    <path d="M 9 13.098437 
L 19 13.098437 
L 29 13.098437 
" style="fill: none; stroke: #1f77b4; stroke-width: 1.5; stroke-linecap: square"/>
   </g>
   <g id="text_62">
    <!-- RBTL -->
    <g transform="translate(37 16.598437) scale(0.1 -0.1)">
     <defs>
      <path id="DejaVuSans-52" d="M 2841 2188 
Q 3044 2119 3236 1894 
Q 3428 1669 3622 1275 
L 4263 0 
L 3584 0 
L 2988 1197 
Q 2756 1666 2539 1819 
Q 2322 1972 1947 1972 
L 1259 1972 
L 1259 0 
L 628 0 
L 628 4666 
L 2053 4666 
Q 2853 4666 3247 4331 
Q 3641 3997 3641 3322 
Q 3641 2881 3436 2590 
Q 3231 2300 2841 2188 
z
M 1259 4147 
L 1259 2491 
L 2053 2491 
Q 2509 2491 2742 2702 
Q 2975 2913 2975 3322 
Q 2975 3731 2742 3939 
Q 2509 4147 2053 4147 
L 1259 4147 
z
" transform="scale(0.015625)"/>
      <path id="DejaVuSans-42" d="M 1259 2228 
L 1259 519 
L 2272 519 
Q 2781 519 3026 730 
Q 3272 941 3272 1375 
Q 3272 1813 3026 2020 
Q 2781 2228 2272 2228 
L 1259 2228 
z
M 1259 4147 
L 1259 2741 
L 2194 2741 
Q 2656 2741 2882 2914 
Q 3109 3088 3109 3444 
Q 3109 3797 2882 3972 
Q 2656 4147 2194 4147 
L 1259 4147 
z
M 628 4666 
L 2241 4666 
Q 2963 4666 3353 4366 
Q 3744 4066 3744 3513 
Q 3744 3084 3544 2831 
Q 3344 2578 2956 2516 
Q 3422 2416 3680 2098 
Q 3938 1781 3938 1306 
Q 3938 681 3513 340 
Q 3088 0 2303 0 
L 628 0 
L 628 4666 
z
" transform="scale(0.015625)"/>
      <path id="DejaVuSans-4c" d="M 628 4666 
L 1259 4666 
L 1259 531 
L 3531 531 
L 3531 0 
L 628 0 
L 628 4666 
z
" transform="scale(0.015625)"/>
     </defs>
     <use xlink:href="#DejaVuSans-52"/>
     <use xlink:href="#DejaVuSans-42" x="69.482422"/>
     <use xlink:href="#DejaVuSans-54" x="138.085938"/>
     <use xlink:href="#DejaVuSans-4c" x="199.169922"/>
    </g>
   </g>
   <g id="line2d_94">
    <path d="M 9 27.776563 
L 19 27.776563 
L 29 27.776563 
" style="fill: none; stroke: #ff7f0e; stroke-width: 1.5; stroke-linecap: square"/>
   </g>
   <g id="text_63">
    <!-- BTL -->
    <g transform="translate(37 31.276563) scale(0.1 -0.1)">
     <use xlink:href="#DejaVuSans-42"/>
     <use xlink:href="#DejaVuSans-54" x="68.603516"/>
     <use xlink:href="#DejaVuSans-4c" x="129.6875"/>
    </g>
   </g>
   <g id="line2d_95">
    <path d="M 9 42.454687 
L 19 42.454687 
L 29 42.454687 
" style="fill: none; stroke: #2ca02c; stroke-width: 1.5; stroke-linecap: square"/>
   </g>
   <g id="text_64">
    <!-- KEMENY -->
    <g transform="translate(37 45.954687) scale(0.1 -0.1)">
     <defs>
      <path id="DejaVuSans-4b" d="M 628 4666 
L 1259 4666 
L 1259 2694 
L 3353 4666 
L 4166 4666 
L 1850 2491 
L 4331 0 
L 3500 0 
L 1259 2247 
L 1259 0 
L 628 0 
L 628 4666 
z
" transform="scale(0.015625)"/>
      <path id="DejaVuSans-45" d="M 628 4666 
L 3578 4666 
L 3578 4134 
L 1259 4134 
L 1259 2753 
L 3481 2753 
L 3481 2222 
L 1259 2222 
L 1259 531 
L 3634 531 
L 3634 0 
L 628 0 
L 628 4666 
z
" transform="scale(0.015625)"/>
      <path id="DejaVuSans-4d" d="M 628 4666 
L 1569 4666 
L 2759 1491 
L 3956 4666 
L 4897 4666 
L 4897 0 
L 4281 0 
L 4281 4097 
L 3078 897 
L 2444 897 
L 1241 4097 
L 1241 0 
L 628 0 
L 628 4666 
z
" transform="scale(0.015625)"/>
      <path id="DejaVuSans-59" d="M -13 4666 
L 666 4666 
L 1959 2747 
L 3244 4666 
L 3922 4666 
L 2272 2222 
L 2272 0 
L 1638 0 
L 1638 2222 
L -13 4666 
z
" transform="scale(0.015625)"/>
     </defs>
     <use xlink:href="#DejaVuSans-4b"/>
     <use xlink:href="#DejaVuSans-45" x="65.576172"/>
     <use xlink:href="#DejaVuSans-4d" x="128.759766"/>
     <use xlink:href="#DejaVuSans-45" x="215.039062"/>
     <use xlink:href="#DejaVuSans-4e" x="278.222656"/>
     <use xlink:href="#DejaVuSans-59" x="353.027344"/>
    </g>
   </g>
   <g id="line2d_96">
    <path d="M 9 57.132812 
L 19 57.132812 
L 29 57.132812 
" style="fill: none; stroke: #d62728; stroke-width: 1.5; stroke-linecap: square"/>
   </g>
   <g id="text_65">
    <!-- BORDA -->
    <g transform="translate(37 60.632812) scale(0.1 -0.1)">
     <defs>
      <path id="DejaVuSans-4f" d="M 2522 4238 
Q 1834 4238 1429 3725 
Q 1025 3213 1025 2328 
Q 1025 1447 1429 934 
Q 1834 422 2522 422 
Q 3209 422 3611 934 
Q 4013 1447 4013 2328 
Q 4013 3213 3611 3725 
Q 3209 4238 2522 4238 
z
M 2522 4750 
Q 3503 4750 4090 4092 
Q 4678 3434 4678 2328 
Q 4678 1225 4090 567 
Q 3503 -91 2522 -91 
Q 1538 -91 948 565 
Q 359 1222 359 2328 
Q 359 3434 948 4092 
Q 1538 4750 2522 4750 
z
" transform="scale(0.015625)"/>
      <path id="DejaVuSans-44" d="M 1259 4147 
L 1259 519 
L 2022 519 
Q 2988 519 3436 956 
Q 3884 1394 3884 2338 
Q 3884 3275 3436 3711 
Q 2988 4147 2022 4147 
L 1259 4147 
z
M 628 4666 
L 1925 4666 
Q 3281 4666 3915 4102 
Q 4550 3538 4550 2338 
Q 4550 1131 3912 565 
Q 3275 0 1925 0 
L 628 0 
L 628 4666 
z
" transform="scale(0.015625)"/>
      <path id="DejaVuSans-41" d="M 2188 4044 
L 1331 1722 
L 3047 1722 
L 2188 4044 
z
M 1831 4666 
L 2547 4666 
L 4325 0 
L 3669 0 
L 3244 1197 
L 1141 1197 
L 716 0 
L 50 0 
L 1831 4666 
z
" transform="scale(0.015625)"/>
     </defs>
     <use xlink:href="#DejaVuSans-42"/>
     <use xlink:href="#DejaVuSans-4f" x="66.853516"/>
     <use xlink:href="#DejaVuSans-52" x="145.564453"/>
     <use xlink:href="#DejaVuSans-44" x="215.046875"/>
     <use xlink:href="#DejaVuSans-41" x="290.298828"/>
    </g>
   </g>
   <g id="line2d_97">
    <path d="M 9 71.810937 
L 19 71.810937 
L 29 71.810937 
" style="fill: none; stroke: #9467bd; stroke-width: 1.5; stroke-linecap: square"/>
   </g>
   <g id="text_66">
    <!-- WEIGHTED BORDA -->
    <g transform="translate(37 75.310937) scale(0.1 -0.1)">
     <defs>
      <path id="DejaVuSans-57" d="M 213 4666 
L 850 4666 
L 1831 722 
L 2809 4666 
L 3519 4666 
L 4500 722 
L 5478 4666 
L 6119 4666 
L 4947 0 
L 4153 0 
L 3169 4050 
L 2175 0 
L 1381 0 
L 213 4666 
z
" transform="scale(0.015625)"/>
      <path id="DejaVuSans-49" d="M 628 4666 
L 1259 4666 
L 1259 0 
L 628 0 
L 628 4666 
z
" transform="scale(0.015625)"/>
      <path id="DejaVuSans-47" d="M 3809 666 
L 3809 1919 
L 2778 1919 
L 2778 2438 
L 4434 2438 
L 4434 434 
Q 4069 175 3628 42 
Q 3188 -91 2688 -91 
Q 1594 -91 976 548 
Q 359 1188 359 2328 
Q 359 3472 976 4111 
Q 1594 4750 2688 4750 
Q 3144 4750 3555 4637 
Q 3966 4525 4313 4306 
L 4313 3634 
Q 3963 3931 3569 4081 
Q 3175 4231 2741 4231 
Q 1884 4231 1454 3753 
Q 1025 3275 1025 2328 
Q 1025 1384 1454 906 
Q 1884 428 2741 428 
Q 3075 428 3337 486 
Q 3600 544 3809 666 
z
" transform="scale(0.015625)"/>
      <path id="DejaVuSans-48" d="M 628 4666 
L 1259 4666 
L 1259 2753 
L 3553 2753 
L 3553 4666 
L 4184 4666 
L 4184 0 
L 3553 0 
L 3553 2222 
L 1259 2222 
L 1259 0 
L 628 0 
L 628 4666 
z
" transform="scale(0.015625)"/>
     </defs>
     <use xlink:href="#DejaVuSans-57"/>
     <use xlink:href="#DejaVuSans-45" x="98.876953"/>
     <use xlink:href="#DejaVuSans-49" x="162.060547"/>
     <use xlink:href="#DejaVuSans-47" x="191.552734"/>
     <use xlink:href="#DejaVuSans-48" x="269.042969"/>
     <use xlink:href="#DejaVuSans-54" x="344.238281"/>
     <use xlink:href="#DejaVuSans-45" x="405.322266"/>
     <use xlink:href="#DejaVuSans-44" x="468.505859"/>
     <use xlink:href="#DejaVuSans-20" x="545.507812"/>
     <use xlink:href="#DejaVuSans-42" x="577.294922"/>
     <use xlink:href="#DejaVuSans-4f" x="644.148438"/>
     <use xlink:href="#DejaVuSans-52" x="722.859375"/>
     <use xlink:href="#DejaVuSans-44" x="792.341797"/>
     <use xlink:href="#DejaVuSans-41" x="867.59375"/>
    </g>
   </g>
   <g id="line2d_98">
    <path d="M 9 86.489062 
L 19 86.489062 
L 29 86.489062 
" style="fill: none; stroke: #8c564b; stroke-width: 1.5; stroke-linecap: square"/>
   </g>
   <g id="text_67">
    <!-- WIN COUNT -->
    <g transform="translate(37 89.989062) scale(0.1 -0.1)">
     <use xlink:href="#DejaVuSans-57"/>
     <use xlink:href="#DejaVuSans-49" x="98.876953"/>
     <use xlink:href="#DejaVuSans-4e" x="128.369141"/>
     <use xlink:href="#DejaVuSans-20" x="203.173828"/>
     <use xlink:href="#DejaVuSans-43" x="234.960938"/>
     <use xlink:href="#DejaVuSans-4f" x="304.785156"/>
     <use xlink:href="#DejaVuSans-55" x="383.496094"/>
     <use xlink:href="#DejaVuSans-4e" x="456.689453"/>
     <use xlink:href="#DejaVuSans-54" x="531.494141"/>
    </g>
   </g>
  </g>
 </g>
 <defs>
  <clipPath id="peb215de353">
   <rect x="99.45" y="46.656" width="280.268182" height="88.051765"/>
  </clipPath>
  <clipPath id="p68101f708b">
   <rect x="435.771818" y="46.656" width="280.268182" height="88.051765"/>
  </clipPath>
  <clipPath id="p71d90f787e">
   <rect x="99.45" y="152.318118" width="280.268182" height="88.051765"/>
  </clipPath>
  <clipPath id="p2be4e30637">
   <rect x="435.771818" y="152.318118" width="280.268182" height="88.051765"/>
  </clipPath>
  <clipPath id="p307e5d08ee">
   <rect x="99.45" y="257.980235" width="280.268182" height="88.051765"/>
  </clipPath>
  <clipPath id="p662b540f91">
   <rect x="435.771818" y="257.980235" width="280.268182" height="88.051765"/>
  </clipPath>
 </defs>
</svg>
