<?xml version="1.0" encoding="utf-8" standalone="no"?>
<!DOCTYPE svg PUBLIC "-//W3C//DTD SVG 1.1//EN"
  "http://www.w3.org/Graphics/SVG/1.1/DTD/svg11.dtd">
<svg xmlns:xlink="http://www.w3.org/1999/xlink" width="711.36pt" height="475.92pt" viewBox="0 0 711.36 475.92" xmlns="http://www.w3.org/2000/svg" version="1.1">
 <metadata>
  <rdf:RDF xmlns:dc="http://purl.org/dc/elements/1.1/" xmlns:cc="http://creativecommons.org/ns#" xmlns:rdf="http://www.w3.org/1999/02/22-rdf-syntax-ns#">
   <cc:Work>
    <dc:type rdf:resource="http://purl.org/dc/dcmitype/StillImage"/>
    <dc:date>2023-04-26T10:43:02.610766</dc:date>
    <dc:format>image/svg+xml</dc:format>
    <dc:creator>
     <cc:Agent>
      <dc:title>Matplotlib v3.7.1, https://matplotlib.org/</dc:title>
     </cc:Agent>
    </dc:creator>
   </cc:Work>
  </rdf:RDF>
 </metadata>
 <defs>
  <style type="text/css">*{stroke-linejoin: round; stroke-linecap: butt}</style>
 </defs>
 <g id="figure_1">
  <g id="patch_1">
   <path d="M 0 475.92 
L 711.36 475.92 
L 711.36 0 
L 0 0 
z
" style="fill: #ffffff"/>
  </g>
  <g id="axes_1">
   <g id="patch_2">
    <path d="M 88.92 223.6824 
L 640.224 223.6824 
L 640.224 57.1104 
L 88.92 57.1104 
z
" style="fill: #ffffff"/>
   </g>
   <g id="matplotlib.axis_1">
    <g id="xtick_1">
     <g id="line2d_1">
      <defs>
       <path id="m9f1fedf0dc" d="M 0 0 
L 0 3.5 
" style="stroke: #000000; stroke-width: 0.8"/>
      </defs>
      <g>
       <use xlink:href="#m9f1fedf0dc" x="96.079792" y="223.6824" style="stroke: #000000; stroke-width: 0.8"/>
      </g>
     </g>
     <g id="text_1">
      <!-- 0 -->
      <g transform="translate(92.898542 238.280837) scale(0.1 -0.1)">
       <defs>
        <path id="DejaVuSans-30" d="M 2034 4250 
Q 1547 4250 1301 3770 
Q 1056 3291 1056 2328 
Q 1056 1369 1301 889 
Q 1547 409 2034 409 
Q 2525 409 2770 889 
Q 3016 1369 3016 2328 
Q 3016 3291 2770 3770 
Q 2525 4250 2034 4250 
z
M 2034 4750 
Q 2819 4750 3233 4129 
Q 3647 3509 3647 2328 
Q 3647 1150 3233 529 
Q 2819 -91 2034 -91 
Q 1250 -91 836 529 
Q 422 1150 422 2328 
Q 422 3509 836 4129 
Q 1250 4750 2034 4750 
z
" transform="scale(0.015625)"/>
       </defs>
       <use xlink:href="#DejaVuSans-30"/>
      </g>
     </g>
    </g>
    <g id="xtick_2">
     <g id="line2d_2">
      <g>
       <use xlink:href="#m9f1fedf0dc" x="185.577195" y="223.6824" style="stroke: #000000; stroke-width: 0.8"/>
      </g>
     </g>
     <g id="text_2">
      <!-- 5 -->
      <g transform="translate(182.395945 238.280837) scale(0.1 -0.1)">
       <defs>
        <path id="DejaVuSans-35" d="M 691 4666 
L 3169 4666 
L 3169 4134 
L 1269 4134 
L 1269 2991 
Q 1406 3038 1543 3061 
Q 1681 3084 1819 3084 
Q 2600 3084 3056 2656 
Q 3513 2228 3513 1497 
Q 3513 744 3044 326 
Q 2575 -91 1722 -91 
Q 1428 -91 1123 -41 
Q 819 9 494 109 
L 494 744 
Q 775 591 1075 516 
Q 1375 441 1709 441 
Q 2250 441 2565 725 
Q 2881 1009 2881 1497 
Q 2881 1984 2565 2268 
Q 2250 2553 1709 2553 
Q 1456 2553 1204 2497 
Q 953 2441 691 2322 
L 691 4666 
z
" transform="scale(0.015625)"/>
       </defs>
       <use xlink:href="#DejaVuSans-35"/>
      </g>
     </g>
    </g>
    <g id="xtick_3">
     <g id="line2d_3">
      <g>
       <use xlink:href="#m9f1fedf0dc" x="275.074597" y="223.6824" style="stroke: #000000; stroke-width: 0.8"/>
      </g>
     </g>
     <g id="text_3">
      <!-- 10 -->
      <g transform="translate(268.712097 238.280837) scale(0.1 -0.1)">
       <defs>
        <path id="DejaVuSans-31" d="M 794 531 
L 1825 531 
L 1825 4091 
L 703 3866 
L 703 4441 
L 1819 4666 
L 2450 4666 
L 2450 531 
L 3481 531 
L 3481 0 
L 794 0 
L 794 531 
z
" transform="scale(0.015625)"/>
       </defs>
       <use xlink:href="#DejaVuSans-31"/>
       <use xlink:href="#DejaVuSans-30" x="63.623047"/>
      </g>
     </g>
    </g>
    <g id="xtick_4">
     <g id="line2d_4">
      <g>
       <use xlink:href="#m9f1fedf0dc" x="364.572" y="223.6824" style="stroke: #000000; stroke-width: 0.8"/>
      </g>
     </g>
     <g id="text_4">
      <!-- 15 -->
      <g transform="translate(358.2095 238.280837) scale(0.1 -0.1)">
       <use xlink:href="#DejaVuSans-31"/>
       <use xlink:href="#DejaVuSans-35" x="63.623047"/>
      </g>
     </g>
    </g>
    <g id="xtick_5">
     <g id="line2d_5">
      <g>
       <use xlink:href="#m9f1fedf0dc" x="454.069403" y="223.6824" style="stroke: #000000; stroke-width: 0.8"/>
      </g>
     </g>
     <g id="text_5">
      <!-- 20 -->
      <g transform="translate(447.706903 238.280837) scale(0.1 -0.1)">
       <defs>
        <path id="DejaVuSans-32" d="M 1228 531 
L 3431 531 
L 3431 0 
L 469 0 
L 469 531 
Q 828 903 1448 1529 
Q 2069 2156 2228 2338 
Q 2531 2678 2651 2914 
Q 2772 3150 2772 3378 
Q 2772 3750 2511 3984 
Q 2250 4219 1831 4219 
Q 1534 4219 1204 4116 
Q 875 4013 500 3803 
L 500 4441 
Q 881 4594 1212 4672 
Q 1544 4750 1819 4750 
Q 2544 4750 2975 4387 
Q 3406 4025 3406 3419 
Q 3406 3131 3298 2873 
Q 3191 2616 2906 2266 
Q 2828 2175 2409 1742 
Q 1991 1309 1228 531 
z
" transform="scale(0.015625)"/>
       </defs>
       <use xlink:href="#DejaVuSans-32"/>
       <use xlink:href="#DejaVuSans-30" x="63.623047"/>
      </g>
     </g>
    </g>
    <g id="xtick_6">
     <g id="line2d_6">
      <g>
       <use xlink:href="#m9f1fedf0dc" x="543.566805" y="223.6824" style="stroke: #000000; stroke-width: 0.8"/>
      </g>
     </g>
     <g id="text_6">
      <!-- 25 -->
      <g transform="translate(537.204305 238.280837) scale(0.1 -0.1)">
       <use xlink:href="#DejaVuSans-32"/>
       <use xlink:href="#DejaVuSans-35" x="63.623047"/>
      </g>
     </g>
    </g>
    <g id="xtick_7">
     <g id="line2d_7">
      <g>
       <use xlink:href="#m9f1fedf0dc" x="633.064208" y="223.6824" style="stroke: #000000; stroke-width: 0.8"/>
      </g>
     </g>
     <g id="text_7">
      <!-- 30 -->
      <g transform="translate(626.701708 238.280837) scale(0.1 -0.1)">
       <defs>
        <path id="DejaVuSans-33" d="M 2597 2516 
Q 3050 2419 3304 2112 
Q 3559 1806 3559 1356 
Q 3559 666 3084 287 
Q 2609 -91 1734 -91 
Q 1441 -91 1130 -33 
Q 819 25 488 141 
L 488 750 
Q 750 597 1062 519 
Q 1375 441 1716 441 
Q 2309 441 2620 675 
Q 2931 909 2931 1356 
Q 2931 1769 2642 2001 
Q 2353 2234 1838 2234 
L 1294 2234 
L 1294 2753 
L 1863 2753 
Q 2328 2753 2575 2939 
Q 2822 3125 2822 3475 
Q 2822 3834 2567 4026 
Q 2313 4219 1838 4219 
Q 1578 4219 1281 4162 
Q 984 4106 628 3988 
L 628 4550 
Q 988 4650 1302 4700 
Q 1616 4750 1894 4750 
Q 2613 4750 3031 4423 
Q 3450 4097 3450 3541 
Q 3450 3153 3228 2886 
Q 3006 2619 2597 2516 
z
" transform="scale(0.015625)"/>
       </defs>
       <use xlink:href="#DejaVuSans-33"/>
       <use xlink:href="#DejaVuSans-30" x="63.623047"/>
      </g>
     </g>
    </g>
   </g>
   <g id="matplotlib.axis_2">
    <g id="ytick_1">
     <g id="line2d_8">
      <defs>
       <path id="mdef6bd8e24" d="M 0 0 
L -3.5 0 
" style="stroke: #000000; stroke-width: 0.8"/>
      </defs>
      <g>
       <use xlink:href="#mdef6bd8e24" x="88.92" y="214.332416" style="stroke: #000000; stroke-width: 0.8"/>
      </g>
     </g>
     <g id="text_8">
      <!-- 0.05 -->
      <g transform="translate(59.654375 218.131635) scale(0.1 -0.1)">
       <defs>
        <path id="DejaVuSans-2e" d="M 684 794 
L 1344 794 
L 1344 0 
L 684 0 
L 684 794 
z
" transform="scale(0.015625)"/>
       </defs>
       <use xlink:href="#DejaVuSans-30"/>
       <use xlink:href="#DejaVuSans-2e" x="63.623047"/>
       <use xlink:href="#DejaVuSans-30" x="95.410156"/>
       <use xlink:href="#DejaVuSans-35" x="159.033203"/>
      </g>
     </g>
    </g>
    <g id="ytick_2">
     <g id="line2d_9">
      <g>
       <use xlink:href="#mdef6bd8e24" x="88.92" y="192.227834" style="stroke: #000000; stroke-width: 0.8"/>
      </g>
     </g>
     <g id="text_9">
      <!-- 0.10 -->
      <g transform="translate(59.654375 196.027053) scale(0.1 -0.1)">
       <use xlink:href="#DejaVuSans-30"/>
       <use xlink:href="#DejaVuSans-2e" x="63.623047"/>
       <use xlink:href="#DejaVuSans-31" x="95.410156"/>
       <use xlink:href="#DejaVuSans-30" x="159.033203"/>
      </g>
     </g>
    </g>
    <g id="ytick_3">
     <g id="line2d_10">
      <g>
       <use xlink:href="#mdef6bd8e24" x="88.92" y="170.123252" style="stroke: #000000; stroke-width: 0.8"/>
      </g>
     </g>
     <g id="text_10">
      <!-- 0.15 -->
      <g transform="translate(59.654375 173.92247) scale(0.1 -0.1)">
       <use xlink:href="#DejaVuSans-30"/>
       <use xlink:href="#DejaVuSans-2e" x="63.623047"/>
       <use xlink:href="#DejaVuSans-31" x="95.410156"/>
       <use xlink:href="#DejaVuSans-35" x="159.033203"/>
      </g>
     </g>
    </g>
    <g id="ytick_4">
     <g id="line2d_11">
      <g>
       <use xlink:href="#mdef6bd8e24" x="88.92" y="148.01867" style="stroke: #000000; stroke-width: 0.8"/>
      </g>
     </g>
     <g id="text_11">
      <!-- 0.20 -->
      <g transform="translate(59.654375 151.817888) scale(0.1 -0.1)">
       <use xlink:href="#DejaVuSans-30"/>
       <use xlink:href="#DejaVuSans-2e" x="63.623047"/>
       <use xlink:href="#DejaVuSans-32" x="95.410156"/>
       <use xlink:href="#DejaVuSans-30" x="159.033203"/>
      </g>
     </g>
    </g>
    <g id="ytick_5">
     <g id="line2d_12">
      <g>
       <use xlink:href="#mdef6bd8e24" x="88.92" y="125.914088" style="stroke: #000000; stroke-width: 0.8"/>
      </g>
     </g>
     <g id="text_12">
      <!-- 0.25 -->
      <g transform="translate(59.654375 129.713306) scale(0.1 -0.1)">
       <use xlink:href="#DejaVuSans-30"/>
       <use xlink:href="#DejaVuSans-2e" x="63.623047"/>
       <use xlink:href="#DejaVuSans-32" x="95.410156"/>
       <use xlink:href="#DejaVuSans-35" x="159.033203"/>
      </g>
     </g>
    </g>
    <g id="ytick_6">
     <g id="line2d_13">
      <g>
       <use xlink:href="#mdef6bd8e24" x="88.92" y="103.809506" style="stroke: #000000; stroke-width: 0.8"/>
      </g>
     </g>
     <g id="text_13">
      <!-- 0.30 -->
      <g transform="translate(59.654375 107.608724) scale(0.1 -0.1)">
       <use xlink:href="#DejaVuSans-30"/>
       <use xlink:href="#DejaVuSans-2e" x="63.623047"/>
       <use xlink:href="#DejaVuSans-33" x="95.410156"/>
       <use xlink:href="#DejaVuSans-30" x="159.033203"/>
      </g>
     </g>
    </g>
    <g id="ytick_7">
     <g id="line2d_14">
      <g>
       <use xlink:href="#mdef6bd8e24" x="88.92" y="81.704923" style="stroke: #000000; stroke-width: 0.8"/>
      </g>
     </g>
     <g id="text_14">
      <!-- 0.35 -->
      <g transform="translate(59.654375 85.504142) scale(0.1 -0.1)">
       <use xlink:href="#DejaVuSans-30"/>
       <use xlink:href="#DejaVuSans-2e" x="63.623047"/>
       <use xlink:href="#DejaVuSans-33" x="95.410156"/>
       <use xlink:href="#DejaVuSans-35" x="159.033203"/>
      </g>
     </g>
    </g>
    <g id="ytick_8">
     <g id="line2d_15">
      <g>
       <use xlink:href="#mdef6bd8e24" x="88.92" y="59.600341" style="stroke: #000000; stroke-width: 0.8"/>
      </g>
     </g>
     <g id="text_15">
      <!-- 0.40 -->
      <g transform="translate(59.654375 63.39956) scale(0.1 -0.1)">
       <defs>
        <path id="DejaVuSans-34" d="M 2419 4116 
L 825 1625 
L 2419 1625 
L 2419 4116 
z
M 2253 4666 
L 3047 4666 
L 3047 1625 
L 3713 1625 
L 3713 1100 
L 3047 1100 
L 3047 0 
L 2419 0 
L 2419 1100 
L 313 1100 
L 313 1709 
L 2253 4666 
z
" transform="scale(0.015625)"/>
       </defs>
       <use xlink:href="#DejaVuSans-30"/>
       <use xlink:href="#DejaVuSans-2e" x="63.623047"/>
       <use xlink:href="#DejaVuSans-34" x="95.410156"/>
       <use xlink:href="#DejaVuSans-30" x="159.033203"/>
      </g>
     </g>
    </g>
   </g>
   <g id="line2d_16">
    <path d="M 113.979273 112.448078 
L 131.878753 72.812276 
L 149.778234 134.806736 
L 167.677714 141.920854 
L 185.577195 153.100183 
L 203.476675 132.77413 
L 221.376156 171.39363 
L 239.275636 165.295814 
L 257.175117 171.39363 
L 275.074597 184.605564 
L 292.974078 182.572959 
L 310.873558 181.556656 
L 328.773039 184.605564 
L 346.672519 186.638169 
L 364.572 187.654472 
L 382.471481 187.654472 
L 400.370961 187.654472 
L 418.270442 187.654472 
L 436.169922 187.654472 
L 454.069403 187.654472 
L 471.968883 187.654472 
L 489.868364 187.654472 
L 507.767844 187.654472 
L 525.667325 187.654472 
L 543.566805 187.654472 
L 561.466286 187.654472 
L 579.365766 187.654472 
L 597.265247 187.654472 
L 615.164727 187.654472 
" clip-path="url(#p4e9cdf5529)" style="fill: none; stroke: #1f77b4; stroke-width: 1.5; stroke-linecap: square"/>
   </g>
   <g id="line2d_17">
    <path d="M 113.979273 106.350262 
L 131.878753 86.02421 
L 149.778234 115.496986 
L 167.677714 135.823038 
L 185.577195 156.149091 
L 203.476675 131.757828 
L 221.376156 157.165393 
L 239.275636 135.823038 
L 257.175117 164.279512 
L 275.074597 186.638169 
L 292.974078 174.442538 
L 310.873558 163.263209 
L 328.773039 164.279512 
L 346.672519 167.32842 
L 364.572 168.344722 
L 382.471481 168.344722 
L 400.370961 168.344722 
L 418.270442 168.344722 
L 436.169922 168.344722 
L 454.069403 168.344722 
L 471.968883 168.344722 
L 489.868364 168.344722 
L 507.767844 168.344722 
L 525.667325 168.344722 
L 543.566805 168.344722 
L 561.466286 168.344722 
L 579.365766 168.344722 
L 597.265247 168.344722 
L 615.164727 168.344722 
" clip-path="url(#p4e9cdf5529)" style="fill: none; stroke: #ff7f0e; stroke-width: 1.5; stroke-linecap: square"/>
   </g>
   <g id="line2d_18">
    <path d="M 113.979273 76.877486 
L 131.878753 106.350262 
L 149.778234 140.904551 
L 167.677714 106.350262 
L 185.577195 186.638169 
L 203.476675 118.545894 
L 221.376156 133.790433 
L 239.275636 188.670775 
L 257.175117 182.572959 
L 275.074597 204.931617 
L 292.974078 189.687077 
L 310.873558 184.605564 
L 328.773039 174.442538 
L 346.672519 189.687077 
L 364.572 216.110945 
L 382.471481 205.947919 
L 400.370961 210.01313 
L 418.270442 192.735985 
L 436.169922 212.045735 
L 454.069403 205.947919 
L 471.968883 195.784893 
L 489.868364 202.899011 
L 507.767844 207.980524 
L 525.667325 205.947919 
L 543.566805 210.01313 
L 561.466286 212.045735 
L 579.365766 197.817498 
L 597.265247 214.07834 
L 615.164727 196.801196 
" clip-path="url(#p4e9cdf5529)" style="fill: none; stroke: #2ca02c; stroke-width: 1.5; stroke-linecap: square"/>
   </g>
   <g id="line2d_19">
    <path d="M 113.979273 110.415473 
L 131.878753 79.926394 
L 149.778234 123.627407 
L 167.677714 134.806736 
L 185.577195 151.067578 
L 203.476675 133.790433 
L 221.376156 152.08388 
L 239.275636 157.165393 
L 257.175117 166.312117 
L 275.074597 180.540354 
L 292.974078 185.621867 
L 310.873558 171.39363 
L 328.773039 179.524051 
L 346.672519 187.654472 
L 364.572 187.654472 
L 382.471481 187.654472 
L 400.370961 187.654472 
L 418.270442 187.654472 
L 436.169922 187.654472 
L 454.069403 187.654472 
L 471.968883 187.654472 
L 489.868364 187.654472 
L 507.767844 187.654472 
L 525.667325 187.654472 
L 543.566805 187.654472 
L 561.466286 187.654472 
L 579.365766 187.654472 
L 597.265247 187.654472 
L 615.164727 187.654472 
" clip-path="url(#p4e9cdf5529)" style="fill: none; stroke: #d62728; stroke-width: 1.5; stroke-linecap: square"/>
   </g>
   <g id="line2d_20">
    <path d="M 113.979273 116.513288 
L 131.878753 64.681855 
L 149.778234 130.741525 
L 167.677714 131.757828 
L 185.577195 134.806736 
L 203.476675 128.70892 
L 221.376156 157.165393 
L 239.275636 158.181696 
L 257.175117 168.344722 
L 275.074597 178.507748 
L 292.974078 189.687077 
L 310.873558 182.572959 
L 328.773039 185.621867 
L 346.672519 191.719682 
L 364.572 192.735985 
L 382.471481 192.735985 
L 400.370961 192.735985 
L 418.270442 192.735985 
L 436.169922 192.735985 
L 454.069403 192.735985 
L 471.968883 192.735985 
L 489.868364 192.735985 
L 507.767844 192.735985 
L 525.667325 192.735985 
L 543.566805 192.735985 
L 561.466286 192.735985 
L 579.365766 192.735985 
L 597.265247 192.735985 
L 615.164727 192.735985 
" clip-path="url(#p4e9cdf5529)" style="fill: none; stroke: #9467bd; stroke-width: 1.5; stroke-linecap: square"/>
   </g>
   <g id="line2d_21">
    <path d="M 113.979273 114.480683 
L 131.878753 89.073118 
L 149.778234 125.660012 
L 167.677714 139.888249 
L 185.577195 158.181696 
L 203.476675 132.77413 
L 221.376156 153.100183 
L 239.275636 161.230604 
L 257.175117 170.377327 
L 275.074597 184.605564 
L 292.974078 179.524051 
L 310.873558 174.442538 
L 328.773039 178.507748 
L 346.672519 187.654472 
L 364.572 189.687077 
L 382.471481 189.687077 
L 400.370961 189.687077 
L 418.270442 189.687077 
L 436.169922 189.687077 
L 454.069403 189.687077 
L 471.968883 189.687077 
L 489.868364 189.687077 
L 507.767844 189.687077 
L 525.667325 189.687077 
L 543.566805 189.687077 
L 561.466286 189.687077 
L 579.365766 189.687077 
L 597.265247 189.687077 
L 615.164727 189.687077 
" clip-path="url(#p4e9cdf5529)" style="fill: none; stroke: #8c564b; stroke-width: 1.5; stroke-linecap: square"/>
   </g>
   <g id="patch_3">
    <path d="M 88.92 223.6824 
L 88.92 57.1104 
" style="fill: none; stroke: #000000; stroke-width: 0.8; stroke-linejoin: miter; stroke-linecap: square"/>
   </g>
   <g id="patch_4">
    <path d="M 640.224 223.6824 
L 640.224 57.1104 
" style="fill: none; stroke: #000000; stroke-width: 0.8; stroke-linejoin: miter; stroke-linecap: square"/>
   </g>
   <g id="patch_5">
    <path d="M 88.92 223.6824 
L 640.224 223.6824 
" style="fill: none; stroke: #000000; stroke-width: 0.8; stroke-linejoin: miter; stroke-linecap: square"/>
   </g>
   <g id="patch_6">
    <path d="M 88.92 57.1104 
L 640.224 57.1104 
" style="fill: none; stroke: #000000; stroke-width: 0.8; stroke-linejoin: miter; stroke-linecap: square"/>
   </g>
   <g id="legend_1">
    <g id="patch_7">
     <path d="M 507.622438 153.17915 
L 633.224 153.17915 
Q 635.224 153.17915 635.224 151.17915 
L 635.224 64.1104 
Q 635.224 62.1104 633.224 62.1104 
L 507.622438 62.1104 
Q 505.622438 62.1104 505.622438 64.1104 
L 505.622438 151.17915 
Q 505.622438 153.17915 507.622438 153.17915 
z
" style="fill: #ffffff; opacity: 0.8; stroke: #cccccc; stroke-linejoin: miter"/>
    </g>
    <g id="line2d_22">
     <path d="M 509.622438 70.208838 
L 519.622438 70.208838 
L 529.622438 70.208838 
" style="fill: none; stroke: #1f77b4; stroke-width: 1.5; stroke-linecap: square"/>
    </g>
    <g id="text_16">
     <!-- RBTL -->
     <g transform="translate(537.622438 73.708838) scale(0.1 -0.1)">
      <defs>
       <path id="DejaVuSans-52" d="M 2841 2188 
Q 3044 2119 3236 1894 
Q 3428 1669 3622 1275 
L 4263 0 
L 3584 0 
L 2988 1197 
Q 2756 1666 2539 1819 
Q 2322 1972 1947 1972 
L 1259 1972 
L 1259 0 
L 628 0 
L 628 4666 
L 2053 4666 
Q 2853 4666 3247 4331 
Q 3641 3997 3641 3322 
Q 3641 2881 3436 2590 
Q 3231 2300 2841 2188 
z
M 1259 4147 
L 1259 2491 
L 2053 2491 
Q 2509 2491 2742 2702 
Q 2975 2913 2975 3322 
Q 2975 3731 2742 3939 
Q 2509 4147 2053 4147 
L 1259 4147 
z
" transform="scale(0.015625)"/>
       <path id="DejaVuSans-42" d="M 1259 2228 
L 1259 519 
L 2272 519 
Q 2781 519 3026 730 
Q 3272 941 3272 1375 
Q 3272 1813 3026 2020 
Q 2781 2228 2272 2228 
L 1259 2228 
z
M 1259 4147 
L 1259 2741 
L 2194 2741 
Q 2656 2741 2882 2914 
Q 3109 3088 3109 3444 
Q 3109 3797 2882 3972 
Q 2656 4147 2194 4147 
L 1259 4147 
z
M 628 4666 
L 2241 4666 
Q 2963 4666 3353 4366 
Q 3744 4066 3744 3513 
Q 3744 3084 3544 2831 
Q 3344 2578 2956 2516 
Q 3422 2416 3680 2098 
Q 3938 1781 3938 1306 
Q 3938 681 3513 340 
Q 3088 0 2303 0 
L 628 0 
L 628 4666 
z
" transform="scale(0.015625)"/>
       <path id="DejaVuSans-54" d="M -19 4666 
L 3928 4666 
L 3928 4134 
L 2272 4134 
L 2272 0 
L 1638 0 
L 1638 4134 
L -19 4134 
L -19 4666 
z
" transform="scale(0.015625)"/>
       <path id="DejaVuSans-4c" d="M 628 4666 
L 1259 4666 
L 1259 531 
L 3531 531 
L 3531 0 
L 628 0 
L 628 4666 
z
" transform="scale(0.015625)"/>
      </defs>
      <use xlink:href="#DejaVuSans-52"/>
      <use xlink:href="#DejaVuSans-42" x="69.482422"/>
      <use xlink:href="#DejaVuSans-54" x="138.085938"/>
      <use xlink:href="#DejaVuSans-4c" x="199.169922"/>
     </g>
    </g>
    <g id="line2d_23">
     <path d="M 509.622438 84.886963 
L 519.622438 84.886963 
L 529.622438 84.886963 
" style="fill: none; stroke: #ff7f0e; stroke-width: 1.5; stroke-linecap: square"/>
    </g>
    <g id="text_17">
     <!-- BTL -->
     <g transform="translate(537.622438 88.386963) scale(0.1 -0.1)">
      <use xlink:href="#DejaVuSans-42"/>
      <use xlink:href="#DejaVuSans-54" x="68.603516"/>
      <use xlink:href="#DejaVuSans-4c" x="129.6875"/>
     </g>
    </g>
    <g id="line2d_24">
     <path d="M 509.622438 99.565088 
L 519.622438 99.565088 
L 529.622438 99.565088 
" style="fill: none; stroke: #2ca02c; stroke-width: 1.5; stroke-linecap: square"/>
    </g>
    <g id="text_18">
     <!-- KEMENY -->
     <g transform="translate(537.622438 103.065088) scale(0.1 -0.1)">
      <defs>
       <path id="DejaVuSans-4b" d="M 628 4666 
L 1259 4666 
L 1259 2694 
L 3353 4666 
L 4166 4666 
L 1850 2491 
L 4331 0 
L 3500 0 
L 1259 2247 
L 1259 0 
L 628 0 
L 628 4666 
z
" transform="scale(0.015625)"/>
       <path id="DejaVuSans-45" d="M 628 4666 
L 3578 4666 
L 3578 4134 
L 1259 4134 
L 1259 2753 
L 3481 2753 
L 3481 2222 
L 1259 2222 
L 1259 531 
L 3634 531 
L 3634 0 
L 628 0 
L 628 4666 
z
" transform="scale(0.015625)"/>
       <path id="DejaVuSans-4d" d="M 628 4666 
L 1569 4666 
L 2759 1491 
L 3956 4666 
L 4897 4666 
L 4897 0 
L 4281 0 
L 4281 4097 
L 3078 897 
L 2444 897 
L 1241 4097 
L 1241 0 
L 628 0 
L 628 4666 
z
" transform="scale(0.015625)"/>
       <path id="DejaVuSans-4e" d="M 628 4666 
L 1478 4666 
L 3547 763 
L 3547 4666 
L 4159 4666 
L 4159 0 
L 3309 0 
L 1241 3903 
L 1241 0 
L 628 0 
L 628 4666 
z
" transform="scale(0.015625)"/>
       <path id="DejaVuSans-59" d="M -13 4666 
L 666 4666 
L 1959 2747 
L 3244 4666 
L 3922 4666 
L 2272 2222 
L 2272 0 
L 1638 0 
L 1638 2222 
L -13 4666 
z
" transform="scale(0.015625)"/>
      </defs>
      <use xlink:href="#DejaVuSans-4b"/>
      <use xlink:href="#DejaVuSans-45" x="65.576172"/>
      <use xlink:href="#DejaVuSans-4d" x="128.759766"/>
      <use xlink:href="#DejaVuSans-45" x="215.039062"/>
      <use xlink:href="#DejaVuSans-4e" x="278.222656"/>
      <use xlink:href="#DejaVuSans-59" x="353.027344"/>
     </g>
    </g>
    <g id="line2d_25">
     <path d="M 509.622438 114.243213 
L 519.622438 114.243213 
L 529.622438 114.243213 
" style="fill: none; stroke: #d62728; stroke-width: 1.5; stroke-linecap: square"/>
    </g>
    <g id="text_19">
     <!-- BORDA -->
     <g transform="translate(537.622438 117.743213) scale(0.1 -0.1)">
      <defs>
       <path id="DejaVuSans-4f" d="M 2522 4238 
Q 1834 4238 1429 3725 
Q 1025 3213 1025 2328 
Q 1025 1447 1429 934 
Q 1834 422 2522 422 
Q 3209 422 3611 934 
Q 4013 1447 4013 2328 
Q 4013 3213 3611 3725 
Q 3209 4238 2522 4238 
z
M 2522 4750 
Q 3503 4750 4090 4092 
Q 4678 3434 4678 2328 
Q 4678 1225 4090 567 
Q 3503 -91 2522 -91 
Q 1538 -91 948 565 
Q 359 1222 359 2328 
Q 359 3434 948 4092 
Q 1538 4750 2522 4750 
z
" transform="scale(0.015625)"/>
       <path id="DejaVuSans-44" d="M 1259 4147 
L 1259 519 
L 2022 519 
Q 2988 519 3436 956 
Q 3884 1394 3884 2338 
Q 3884 3275 3436 3711 
Q 2988 4147 2022 4147 
L 1259 4147 
z
M 628 4666 
L 1925 4666 
Q 3281 4666 3915 4102 
Q 4550 3538 4550 2338 
Q 4550 1131 3912 565 
Q 3275 0 1925 0 
L 628 0 
L 628 4666 
z
" transform="scale(0.015625)"/>
       <path id="DejaVuSans-41" d="M 2188 4044 
L 1331 1722 
L 3047 1722 
L 2188 4044 
z
M 1831 4666 
L 2547 4666 
L 4325 0 
L 3669 0 
L 3244 1197 
L 1141 1197 
L 716 0 
L 50 0 
L 1831 4666 
z
" transform="scale(0.015625)"/>
      </defs>
      <use xlink:href="#DejaVuSans-42"/>
      <use xlink:href="#DejaVuSans-4f" x="66.853516"/>
      <use xlink:href="#DejaVuSans-52" x="145.564453"/>
      <use xlink:href="#DejaVuSans-44" x="215.046875"/>
      <use xlink:href="#DejaVuSans-41" x="290.298828"/>
     </g>
    </g>
    <g id="line2d_26">
     <path d="M 509.622438 128.921337 
L 519.622438 128.921337 
L 529.622438 128.921337 
" style="fill: none; stroke: #9467bd; stroke-width: 1.5; stroke-linecap: square"/>
    </g>
    <g id="text_20">
     <!-- WEIGHTED BORDA -->
     <g transform="translate(537.622438 132.421337) scale(0.1 -0.1)">
      <defs>
       <path id="DejaVuSans-57" d="M 213 4666 
L 850 4666 
L 1831 722 
L 2809 4666 
L 3519 4666 
L 4500 722 
L 5478 4666 
L 6119 4666 
L 4947 0 
L 4153 0 
L 3169 4050 
L 2175 0 
L 1381 0 
L 213 4666 
z
" transform="scale(0.015625)"/>
       <path id="DejaVuSans-49" d="M 628 4666 
L 1259 4666 
L 1259 0 
L 628 0 
L 628 4666 
z
" transform="scale(0.015625)"/>
       <path id="DejaVuSans-47" d="M 3809 666 
L 3809 1919 
L 2778 1919 
L 2778 2438 
L 4434 2438 
L 4434 434 
Q 4069 175 3628 42 
Q 3188 -91 2688 -91 
Q 1594 -91 976 548 
Q 359 1188 359 2328 
Q 359 3472 976 4111 
Q 1594 4750 2688 4750 
Q 3144 4750 3555 4637 
Q 3966 4525 4313 4306 
L 4313 3634 
Q 3963 3931 3569 4081 
Q 3175 4231 2741 4231 
Q 1884 4231 1454 3753 
Q 1025 3275 1025 2328 
Q 1025 1384 1454 906 
Q 1884 428 2741 428 
Q 3075 428 3337 486 
Q 3600 544 3809 666 
z
" transform="scale(0.015625)"/>
       <path id="DejaVuSans-48" d="M 628 4666 
L 1259 4666 
L 1259 2753 
L 3553 2753 
L 3553 4666 
L 4184 4666 
L 4184 0 
L 3553 0 
L 3553 2222 
L 1259 2222 
L 1259 0 
L 628 0 
L 628 4666 
z
" transform="scale(0.015625)"/>
       <path id="DejaVuSans-20" transform="scale(0.015625)"/>
      </defs>
      <use xlink:href="#DejaVuSans-57"/>
      <use xlink:href="#DejaVuSans-45" x="98.876953"/>
      <use xlink:href="#DejaVuSans-49" x="162.060547"/>
      <use xlink:href="#DejaVuSans-47" x="191.552734"/>
      <use xlink:href="#DejaVuSans-48" x="269.042969"/>
      <use xlink:href="#DejaVuSans-54" x="344.238281"/>
      <use xlink:href="#DejaVuSans-45" x="405.322266"/>
      <use xlink:href="#DejaVuSans-44" x="468.505859"/>
      <use xlink:href="#DejaVuSans-20" x="545.507812"/>
      <use xlink:href="#DejaVuSans-42" x="577.294922"/>
      <use xlink:href="#DejaVuSans-4f" x="644.148438"/>
      <use xlink:href="#DejaVuSans-52" x="722.859375"/>
      <use xlink:href="#DejaVuSans-44" x="792.341797"/>
      <use xlink:href="#DejaVuSans-41" x="867.59375"/>
     </g>
    </g>
    <g id="line2d_27">
     <path d="M 509.622438 143.599463 
L 519.622438 143.599463 
L 529.622438 143.599463 
" style="fill: none; stroke: #8c564b; stroke-width: 1.5; stroke-linecap: square"/>
    </g>
    <g id="text_21">
     <!-- WIN COUNT -->
     <g transform="translate(537.622438 147.099463) scale(0.1 -0.1)">
      <defs>
       <path id="DejaVuSans-43" d="M 4122 4306 
L 4122 3641 
Q 3803 3938 3442 4084 
Q 3081 4231 2675 4231 
Q 1875 4231 1450 3742 
Q 1025 3253 1025 2328 
Q 1025 1406 1450 917 
Q 1875 428 2675 428 
Q 3081 428 3442 575 
Q 3803 722 4122 1019 
L 4122 359 
Q 3791 134 3420 21 
Q 3050 -91 2638 -91 
Q 1578 -91 968 557 
Q 359 1206 359 2328 
Q 359 3453 968 4101 
Q 1578 4750 2638 4750 
Q 3056 4750 3426 4639 
Q 3797 4528 4122 4306 
z
" transform="scale(0.015625)"/>
       <path id="DejaVuSans-55" d="M 556 4666 
L 1191 4666 
L 1191 1831 
Q 1191 1081 1462 751 
Q 1734 422 2344 422 
Q 2950 422 3222 751 
Q 3494 1081 3494 1831 
L 3494 4666 
L 4128 4666 
L 4128 1753 
Q 4128 841 3676 375 
Q 3225 -91 2344 -91 
Q 1459 -91 1007 375 
Q 556 841 556 1753 
L 556 4666 
z
" transform="scale(0.015625)"/>
      </defs>
      <use xlink:href="#DejaVuSans-57"/>
      <use xlink:href="#DejaVuSans-49" x="98.876953"/>
      <use xlink:href="#DejaVuSans-4e" x="128.369141"/>
      <use xlink:href="#DejaVuSans-20" x="203.173828"/>
      <use xlink:href="#DejaVuSans-43" x="234.960938"/>
      <use xlink:href="#DejaVuSans-4f" x="304.785156"/>
      <use xlink:href="#DejaVuSans-55" x="383.496094"/>
      <use xlink:href="#DejaVuSans-4e" x="456.689453"/>
      <use xlink:href="#DejaVuSans-54" x="531.494141"/>
     </g>
    </g>
   </g>
  </g>
  <g id="axes_2">
   <g id="patch_8">
    <path d="M 88.92 423.5688 
L 640.224 423.5688 
L 640.224 256.9968 
L 88.92 256.9968 
z
" style="fill: #ffffff"/>
   </g>
   <g id="matplotlib.axis_3">
    <g id="xtick_8">
     <g id="line2d_28">
      <g>
       <use xlink:href="#m9f1fedf0dc" x="96.079792" y="423.5688" style="stroke: #000000; stroke-width: 0.8"/>
      </g>
     </g>
     <g id="text_22">
      <!-- 0 -->
      <g transform="translate(92.898542 438.167237) scale(0.1 -0.1)">
       <use xlink:href="#DejaVuSans-30"/>
      </g>
     </g>
    </g>
    <g id="xtick_9">
     <g id="line2d_29">
      <g>
       <use xlink:href="#m9f1fedf0dc" x="185.577195" y="423.5688" style="stroke: #000000; stroke-width: 0.8"/>
      </g>
     </g>
     <g id="text_23">
      <!-- 5 -->
      <g transform="translate(182.395945 438.167237) scale(0.1 -0.1)">
       <use xlink:href="#DejaVuSans-35"/>
      </g>
     </g>
    </g>
    <g id="xtick_10">
     <g id="line2d_30">
      <g>
       <use xlink:href="#m9f1fedf0dc" x="275.074597" y="423.5688" style="stroke: #000000; stroke-width: 0.8"/>
      </g>
     </g>
     <g id="text_24">
      <!-- 10 -->
      <g transform="translate(268.712097 438.167237) scale(0.1 -0.1)">
       <use xlink:href="#DejaVuSans-31"/>
       <use xlink:href="#DejaVuSans-30" x="63.623047"/>
      </g>
     </g>
    </g>
    <g id="xtick_11">
     <g id="line2d_31">
      <g>
       <use xlink:href="#m9f1fedf0dc" x="364.572" y="423.5688" style="stroke: #000000; stroke-width: 0.8"/>
      </g>
     </g>
     <g id="text_25">
      <!-- 15 -->
      <g transform="translate(358.2095 438.167237) scale(0.1 -0.1)">
       <use xlink:href="#DejaVuSans-31"/>
       <use xlink:href="#DejaVuSans-35" x="63.623047"/>
      </g>
     </g>
    </g>
    <g id="xtick_12">
     <g id="line2d_32">
      <g>
       <use xlink:href="#m9f1fedf0dc" x="454.069403" y="423.5688" style="stroke: #000000; stroke-width: 0.8"/>
      </g>
     </g>
     <g id="text_26">
      <!-- 20 -->
      <g transform="translate(447.706903 438.167237) scale(0.1 -0.1)">
       <use xlink:href="#DejaVuSans-32"/>
       <use xlink:href="#DejaVuSans-30" x="63.623047"/>
      </g>
     </g>
    </g>
    <g id="xtick_13">
     <g id="line2d_33">
      <g>
       <use xlink:href="#m9f1fedf0dc" x="543.566805" y="423.5688" style="stroke: #000000; stroke-width: 0.8"/>
      </g>
     </g>
     <g id="text_27">
      <!-- 25 -->
      <g transform="translate(537.204305 438.167237) scale(0.1 -0.1)">
       <use xlink:href="#DejaVuSans-32"/>
       <use xlink:href="#DejaVuSans-35" x="63.623047"/>
      </g>
     </g>
    </g>
    <g id="xtick_14">
     <g id="line2d_34">
      <g>
       <use xlink:href="#m9f1fedf0dc" x="633.064208" y="423.5688" style="stroke: #000000; stroke-width: 0.8"/>
      </g>
     </g>
     <g id="text_28">
      <!-- 30 -->
      <g transform="translate(626.701708 438.167237) scale(0.1 -0.1)">
       <use xlink:href="#DejaVuSans-33"/>
       <use xlink:href="#DejaVuSans-30" x="63.623047"/>
      </g>
     </g>
    </g>
    <g id="text_29">
     <!-- Number of Papers per student -->
     <g transform="translate(289.125906 451.845363) scale(0.1 -0.1)">
      <defs>
       <path id="DejaVuSans-75" d="M 544 1381 
L 544 3500 
L 1119 3500 
L 1119 1403 
Q 1119 906 1312 657 
Q 1506 409 1894 409 
Q 2359 409 2629 706 
Q 2900 1003 2900 1516 
L 2900 3500 
L 3475 3500 
L 3475 0 
L 2900 0 
L 2900 538 
Q 2691 219 2414 64 
Q 2138 -91 1772 -91 
Q 1169 -91 856 284 
Q 544 659 544 1381 
z
M 1991 3584 
L 1991 3584 
z
" transform="scale(0.015625)"/>
       <path id="DejaVuSans-6d" d="M 3328 2828 
Q 3544 3216 3844 3400 
Q 4144 3584 4550 3584 
Q 5097 3584 5394 3201 
Q 5691 2819 5691 2113 
L 5691 0 
L 5113 0 
L 5113 2094 
Q 5113 2597 4934 2840 
Q 4756 3084 4391 3084 
Q 3944 3084 3684 2787 
Q 3425 2491 3425 1978 
L 3425 0 
L 2847 0 
L 2847 2094 
Q 2847 2600 2669 2842 
Q 2491 3084 2119 3084 
Q 1678 3084 1418 2786 
Q 1159 2488 1159 1978 
L 1159 0 
L 581 0 
L 581 3500 
L 1159 3500 
L 1159 2956 
Q 1356 3278 1631 3431 
Q 1906 3584 2284 3584 
Q 2666 3584 2933 3390 
Q 3200 3197 3328 2828 
z
" transform="scale(0.015625)"/>
       <path id="DejaVuSans-62" d="M 3116 1747 
Q 3116 2381 2855 2742 
Q 2594 3103 2138 3103 
Q 1681 3103 1420 2742 
Q 1159 2381 1159 1747 
Q 1159 1113 1420 752 
Q 1681 391 2138 391 
Q 2594 391 2855 752 
Q 3116 1113 3116 1747 
z
M 1159 2969 
Q 1341 3281 1617 3432 
Q 1894 3584 2278 3584 
Q 2916 3584 3314 3078 
Q 3713 2572 3713 1747 
Q 3713 922 3314 415 
Q 2916 -91 2278 -91 
Q 1894 -91 1617 61 
Q 1341 213 1159 525 
L 1159 0 
L 581 0 
L 581 4863 
L 1159 4863 
L 1159 2969 
z
" transform="scale(0.015625)"/>
       <path id="DejaVuSans-65" d="M 3597 1894 
L 3597 1613 
L 953 1613 
Q 991 1019 1311 708 
Q 1631 397 2203 397 
Q 2534 397 2845 478 
Q 3156 559 3463 722 
L 3463 178 
Q 3153 47 2828 -22 
Q 2503 -91 2169 -91 
Q 1331 -91 842 396 
Q 353 884 353 1716 
Q 353 2575 817 3079 
Q 1281 3584 2069 3584 
Q 2775 3584 3186 3129 
Q 3597 2675 3597 1894 
z
M 3022 2063 
Q 3016 2534 2758 2815 
Q 2500 3097 2075 3097 
Q 1594 3097 1305 2825 
Q 1016 2553 972 2059 
L 3022 2063 
z
" transform="scale(0.015625)"/>
       <path id="DejaVuSans-72" d="M 2631 2963 
Q 2534 3019 2420 3045 
Q 2306 3072 2169 3072 
Q 1681 3072 1420 2755 
Q 1159 2438 1159 1844 
L 1159 0 
L 581 0 
L 581 3500 
L 1159 3500 
L 1159 2956 
Q 1341 3275 1631 3429 
Q 1922 3584 2338 3584 
Q 2397 3584 2469 3576 
Q 2541 3569 2628 3553 
L 2631 2963 
z
" transform="scale(0.015625)"/>
       <path id="DejaVuSans-6f" d="M 1959 3097 
Q 1497 3097 1228 2736 
Q 959 2375 959 1747 
Q 959 1119 1226 758 
Q 1494 397 1959 397 
Q 2419 397 2687 759 
Q 2956 1122 2956 1747 
Q 2956 2369 2687 2733 
Q 2419 3097 1959 3097 
z
M 1959 3584 
Q 2709 3584 3137 3096 
Q 3566 2609 3566 1747 
Q 3566 888 3137 398 
Q 2709 -91 1959 -91 
Q 1206 -91 779 398 
Q 353 888 353 1747 
Q 353 2609 779 3096 
Q 1206 3584 1959 3584 
z
" transform="scale(0.015625)"/>
       <path id="DejaVuSans-66" d="M 2375 4863 
L 2375 4384 
L 1825 4384 
Q 1516 4384 1395 4259 
Q 1275 4134 1275 3809 
L 1275 3500 
L 2222 3500 
L 2222 3053 
L 1275 3053 
L 1275 0 
L 697 0 
L 697 3053 
L 147 3053 
L 147 3500 
L 697 3500 
L 697 3744 
Q 697 4328 969 4595 
Q 1241 4863 1831 4863 
L 2375 4863 
z
" transform="scale(0.015625)"/>
       <path id="DejaVuSans-50" d="M 1259 4147 
L 1259 2394 
L 2053 2394 
Q 2494 2394 2734 2622 
Q 2975 2850 2975 3272 
Q 2975 3691 2734 3919 
Q 2494 4147 2053 4147 
L 1259 4147 
z
M 628 4666 
L 2053 4666 
Q 2838 4666 3239 4311 
Q 3641 3956 3641 3272 
Q 3641 2581 3239 2228 
Q 2838 1875 2053 1875 
L 1259 1875 
L 1259 0 
L 628 0 
L 628 4666 
z
" transform="scale(0.015625)"/>
       <path id="DejaVuSans-61" d="M 2194 1759 
Q 1497 1759 1228 1600 
Q 959 1441 959 1056 
Q 959 750 1161 570 
Q 1363 391 1709 391 
Q 2188 391 2477 730 
Q 2766 1069 2766 1631 
L 2766 1759 
L 2194 1759 
z
M 3341 1997 
L 3341 0 
L 2766 0 
L 2766 531 
Q 2569 213 2275 61 
Q 1981 -91 1556 -91 
Q 1019 -91 701 211 
Q 384 513 384 1019 
Q 384 1609 779 1909 
Q 1175 2209 1959 2209 
L 2766 2209 
L 2766 2266 
Q 2766 2663 2505 2880 
Q 2244 3097 1772 3097 
Q 1472 3097 1187 3025 
Q 903 2953 641 2809 
L 641 3341 
Q 956 3463 1253 3523 
Q 1550 3584 1831 3584 
Q 2591 3584 2966 3190 
Q 3341 2797 3341 1997 
z
" transform="scale(0.015625)"/>
       <path id="DejaVuSans-70" d="M 1159 525 
L 1159 -1331 
L 581 -1331 
L 581 3500 
L 1159 3500 
L 1159 2969 
Q 1341 3281 1617 3432 
Q 1894 3584 2278 3584 
Q 2916 3584 3314 3078 
Q 3713 2572 3713 1747 
Q 3713 922 3314 415 
Q 2916 -91 2278 -91 
Q 1894 -91 1617 61 
Q 1341 213 1159 525 
z
M 3116 1747 
Q 3116 2381 2855 2742 
Q 2594 3103 2138 3103 
Q 1681 3103 1420 2742 
Q 1159 2381 1159 1747 
Q 1159 1113 1420 752 
Q 1681 391 2138 391 
Q 2594 391 2855 752 
Q 3116 1113 3116 1747 
z
" transform="scale(0.015625)"/>
       <path id="DejaVuSans-73" d="M 2834 3397 
L 2834 2853 
Q 2591 2978 2328 3040 
Q 2066 3103 1784 3103 
Q 1356 3103 1142 2972 
Q 928 2841 928 2578 
Q 928 2378 1081 2264 
Q 1234 2150 1697 2047 
L 1894 2003 
Q 2506 1872 2764 1633 
Q 3022 1394 3022 966 
Q 3022 478 2636 193 
Q 2250 -91 1575 -91 
Q 1294 -91 989 -36 
Q 684 19 347 128 
L 347 722 
Q 666 556 975 473 
Q 1284 391 1588 391 
Q 1994 391 2212 530 
Q 2431 669 2431 922 
Q 2431 1156 2273 1281 
Q 2116 1406 1581 1522 
L 1381 1569 
Q 847 1681 609 1914 
Q 372 2147 372 2553 
Q 372 3047 722 3315 
Q 1072 3584 1716 3584 
Q 2034 3584 2315 3537 
Q 2597 3491 2834 3397 
z
" transform="scale(0.015625)"/>
       <path id="DejaVuSans-74" d="M 1172 4494 
L 1172 3500 
L 2356 3500 
L 2356 3053 
L 1172 3053 
L 1172 1153 
Q 1172 725 1289 603 
Q 1406 481 1766 481 
L 2356 481 
L 2356 0 
L 1766 0 
Q 1100 0 847 248 
Q 594 497 594 1153 
L 594 3053 
L 172 3053 
L 172 3500 
L 594 3500 
L 594 4494 
L 1172 4494 
z
" transform="scale(0.015625)"/>
       <path id="DejaVuSans-64" d="M 2906 2969 
L 2906 4863 
L 3481 4863 
L 3481 0 
L 2906 0 
L 2906 525 
Q 2725 213 2448 61 
Q 2172 -91 1784 -91 
Q 1150 -91 751 415 
Q 353 922 353 1747 
Q 353 2572 751 3078 
Q 1150 3584 1784 3584 
Q 2172 3584 2448 3432 
Q 2725 3281 2906 2969 
z
M 947 1747 
Q 947 1113 1208 752 
Q 1469 391 1925 391 
Q 2381 391 2643 752 
Q 2906 1113 2906 1747 
Q 2906 2381 2643 2742 
Q 2381 3103 1925 3103 
Q 1469 3103 1208 2742 
Q 947 2381 947 1747 
z
" transform="scale(0.015625)"/>
       <path id="DejaVuSans-6e" d="M 3513 2113 
L 3513 0 
L 2938 0 
L 2938 2094 
Q 2938 2591 2744 2837 
Q 2550 3084 2163 3084 
Q 1697 3084 1428 2787 
Q 1159 2491 1159 1978 
L 1159 0 
L 581 0 
L 581 3500 
L 1159 3500 
L 1159 2956 
Q 1366 3272 1645 3428 
Q 1925 3584 2291 3584 
Q 2894 3584 3203 3211 
Q 3513 2838 3513 2113 
z
" transform="scale(0.015625)"/>
      </defs>
      <use xlink:href="#DejaVuSans-4e"/>
      <use xlink:href="#DejaVuSans-75" x="74.804688"/>
      <use xlink:href="#DejaVuSans-6d" x="138.183594"/>
      <use xlink:href="#DejaVuSans-62" x="235.595703"/>
      <use xlink:href="#DejaVuSans-65" x="299.072266"/>
      <use xlink:href="#DejaVuSans-72" x="360.595703"/>
      <use xlink:href="#DejaVuSans-20" x="401.708984"/>
      <use xlink:href="#DejaVuSans-6f" x="433.496094"/>
      <use xlink:href="#DejaVuSans-66" x="494.677734"/>
      <use xlink:href="#DejaVuSans-20" x="529.882812"/>
      <use xlink:href="#DejaVuSans-50" x="561.669922"/>
      <use xlink:href="#DejaVuSans-61" x="617.472656"/>
      <use xlink:href="#DejaVuSans-70" x="678.751953"/>
      <use xlink:href="#DejaVuSans-65" x="742.228516"/>
      <use xlink:href="#DejaVuSans-72" x="803.751953"/>
      <use xlink:href="#DejaVuSans-73" x="844.865234"/>
      <use xlink:href="#DejaVuSans-20" x="896.964844"/>
      <use xlink:href="#DejaVuSans-70" x="928.751953"/>
      <use xlink:href="#DejaVuSans-65" x="992.228516"/>
      <use xlink:href="#DejaVuSans-72" x="1053.751953"/>
      <use xlink:href="#DejaVuSans-20" x="1094.865234"/>
      <use xlink:href="#DejaVuSans-73" x="1126.652344"/>
      <use xlink:href="#DejaVuSans-74" x="1178.751953"/>
      <use xlink:href="#DejaVuSans-75" x="1217.960938"/>
      <use xlink:href="#DejaVuSans-64" x="1281.339844"/>
      <use xlink:href="#DejaVuSans-65" x="1344.816406"/>
      <use xlink:href="#DejaVuSans-6e" x="1406.339844"/>
      <use xlink:href="#DejaVuSans-74" x="1469.71875"/>
     </g>
    </g>
   </g>
   <g id="matplotlib.axis_4">
    <g id="ytick_9">
     <g id="line2d_35">
      <g>
       <use xlink:href="#mdef6bd8e24" x="88.92" y="391.52862" style="stroke: #000000; stroke-width: 0.8"/>
      </g>
     </g>
     <g id="text_30">
      <!-- 0.1 -->
      <g transform="translate(66.016875 395.327839) scale(0.1 -0.1)">
       <use xlink:href="#DejaVuSans-30"/>
       <use xlink:href="#DejaVuSans-2e" x="63.623047"/>
       <use xlink:href="#DejaVuSans-31" x="95.410156"/>
      </g>
     </g>
    </g>
    <g id="ytick_10">
     <g id="line2d_36">
      <g>
       <use xlink:href="#mdef6bd8e24" x="88.92" y="351.362977" style="stroke: #000000; stroke-width: 0.8"/>
      </g>
     </g>
     <g id="text_31">
      <!-- 0.2 -->
      <g transform="translate(66.016875 355.162196) scale(0.1 -0.1)">
       <use xlink:href="#DejaVuSans-30"/>
       <use xlink:href="#DejaVuSans-2e" x="63.623047"/>
       <use xlink:href="#DejaVuSans-32" x="95.410156"/>
      </g>
     </g>
    </g>
    <g id="ytick_11">
     <g id="line2d_37">
      <g>
       <use xlink:href="#mdef6bd8e24" x="88.92" y="311.197334" style="stroke: #000000; stroke-width: 0.8"/>
      </g>
     </g>
     <g id="text_32">
      <!-- 0.3 -->
      <g transform="translate(66.016875 314.996553) scale(0.1 -0.1)">
       <use xlink:href="#DejaVuSans-30"/>
       <use xlink:href="#DejaVuSans-2e" x="63.623047"/>
       <use xlink:href="#DejaVuSans-33" x="95.410156"/>
      </g>
     </g>
    </g>
    <g id="ytick_12">
     <g id="line2d_38">
      <g>
       <use xlink:href="#mdef6bd8e24" x="88.92" y="271.031691" style="stroke: #000000; stroke-width: 0.8"/>
      </g>
     </g>
     <g id="text_33">
      <!-- 0.4 -->
      <g transform="translate(66.016875 274.83091) scale(0.1 -0.1)">
       <use xlink:href="#DejaVuSans-30"/>
       <use xlink:href="#DejaVuSans-2e" x="63.623047"/>
       <use xlink:href="#DejaVuSans-34" x="95.410156"/>
      </g>
     </g>
    </g>
    <g id="text_34">
     <!-- Normalized Score -->
     <g transform="translate(59.937187 384.229675) rotate(-90) scale(0.1 -0.1)">
      <defs>
       <path id="DejaVuSans-6c" d="M 603 4863 
L 1178 4863 
L 1178 0 
L 603 0 
L 603 4863 
z
" transform="scale(0.015625)"/>
       <path id="DejaVuSans-69" d="M 603 3500 
L 1178 3500 
L 1178 0 
L 603 0 
L 603 3500 
z
M 603 4863 
L 1178 4863 
L 1178 4134 
L 603 4134 
L 603 4863 
z
" transform="scale(0.015625)"/>
       <path id="DejaVuSans-7a" d="M 353 3500 
L 3084 3500 
L 3084 2975 
L 922 459 
L 3084 459 
L 3084 0 
L 275 0 
L 275 525 
L 2438 3041 
L 353 3041 
L 353 3500 
z
" transform="scale(0.015625)"/>
       <path id="DejaVuSans-53" d="M 3425 4513 
L 3425 3897 
Q 3066 4069 2747 4153 
Q 2428 4238 2131 4238 
Q 1616 4238 1336 4038 
Q 1056 3838 1056 3469 
Q 1056 3159 1242 3001 
Q 1428 2844 1947 2747 
L 2328 2669 
Q 3034 2534 3370 2195 
Q 3706 1856 3706 1288 
Q 3706 609 3251 259 
Q 2797 -91 1919 -91 
Q 1588 -91 1214 -16 
Q 841 59 441 206 
L 441 856 
Q 825 641 1194 531 
Q 1563 422 1919 422 
Q 2459 422 2753 634 
Q 3047 847 3047 1241 
Q 3047 1584 2836 1778 
Q 2625 1972 2144 2069 
L 1759 2144 
Q 1053 2284 737 2584 
Q 422 2884 422 3419 
Q 422 4038 858 4394 
Q 1294 4750 2059 4750 
Q 2388 4750 2728 4690 
Q 3069 4631 3425 4513 
z
" transform="scale(0.015625)"/>
       <path id="DejaVuSans-63" d="M 3122 3366 
L 3122 2828 
Q 2878 2963 2633 3030 
Q 2388 3097 2138 3097 
Q 1578 3097 1268 2742 
Q 959 2388 959 1747 
Q 959 1106 1268 751 
Q 1578 397 2138 397 
Q 2388 397 2633 464 
Q 2878 531 3122 666 
L 3122 134 
Q 2881 22 2623 -34 
Q 2366 -91 2075 -91 
Q 1284 -91 818 406 
Q 353 903 353 1747 
Q 353 2603 823 3093 
Q 1294 3584 2113 3584 
Q 2378 3584 2631 3529 
Q 2884 3475 3122 3366 
z
" transform="scale(0.015625)"/>
      </defs>
      <use xlink:href="#DejaVuSans-4e"/>
      <use xlink:href="#DejaVuSans-6f" x="74.804688"/>
      <use xlink:href="#DejaVuSans-72" x="135.986328"/>
      <use xlink:href="#DejaVuSans-6d" x="175.349609"/>
      <use xlink:href="#DejaVuSans-61" x="272.761719"/>
      <use xlink:href="#DejaVuSans-6c" x="334.041016"/>
      <use xlink:href="#DejaVuSans-69" x="361.824219"/>
      <use xlink:href="#DejaVuSans-7a" x="389.607422"/>
      <use xlink:href="#DejaVuSans-65" x="442.097656"/>
      <use xlink:href="#DejaVuSans-64" x="503.621094"/>
      <use xlink:href="#DejaVuSans-20" x="567.097656"/>
      <use xlink:href="#DejaVuSans-53" x="598.884766"/>
      <use xlink:href="#DejaVuSans-63" x="662.361328"/>
      <use xlink:href="#DejaVuSans-6f" x="717.341797"/>
      <use xlink:href="#DejaVuSans-72" x="778.523438"/>
      <use xlink:href="#DejaVuSans-65" x="817.386719"/>
     </g>
    </g>
   </g>
   <g id="line2d_39">
    <path d="M 113.979273 276.57178 
L 131.878753 330.125971 
L 149.778234 313.505705 
L 167.677714 367.059895 
L 185.577195 374.44668 
L 203.476675 360.596459 
L 221.376156 357.826414 
L 239.275636 382.756813 
L 257.175117 381.833465 
L 275.074597 376.293376 
L 292.974078 391.990294 
L 310.873558 370.753288 
L 328.773039 389.22025 
L 346.672519 392.913643 
L 364.572 373.523332 
L 382.471481 387.373554 
L 400.370961 385.526858 
L 418.270442 395.683687 
L 436.169922 388.296902 
L 454.069403 392.913643 
L 471.968883 392.913643 
L 489.868364 391.066946 
L 507.767844 401.223776 
L 525.667325 396.607035 
L 543.566805 399.377079 
L 561.466286 399.377079 
L 579.365766 398.453731 
L 597.265247 402.147124 
L 615.164727 399.377079 
" clip-path="url(#p5e1c45cf1c)" style="fill: none; stroke: #1f77b4; stroke-width: 1.5; stroke-linecap: square"/>
   </g>
   <g id="line2d_40">
    <path d="M 113.979273 324.585882 
L 131.878753 348.592933 
L 149.778234 346.746237 
L 167.677714 321.815838 
L 185.577195 343.052844 
L 203.476675 343.976192 
L 221.376156 359.67311 
L 239.275636 362.443155 
L 257.175117 356.903066 
L 275.074597 374.44668 
L 292.974078 367.983243 
L 310.873558 363.366503 
L 328.773039 376.293376 
L 346.672519 379.986769 
L 364.572 385.526858 
L 382.471481 384.60351 
L 400.370961 378.140073 
L 418.270442 387.373554 
L 436.169922 379.063421 
L 454.069403 379.986769 
L 471.968883 393.836991 
L 489.868364 368.906592 
L 507.767844 375.370028 
L 525.667325 387.373554 
L 543.566805 380.910117 
L 561.466286 399.377079 
L 579.365766 396.607035 
L 597.265247 388.296902 
L 615.164727 387.373554 
" clip-path="url(#p5e1c45cf1c)" style="fill: none; stroke: #ff7f0e; stroke-width: 1.5; stroke-linecap: square"/>
   </g>
   <g id="line2d_41">
    <path d="M 113.979273 286.728609 
L 131.878753 274.725084 
L 149.778234 342.129496 
L 167.677714 326.432578 
L 185.577195 331.049319 
L 203.476675 331.049319 
L 221.376156 303.348875 
L 239.275636 371.676636 
L 257.175117 377.216725 
L 275.074597 352.286325 
L 292.974078 379.063421 
L 310.873558 393.836991 
L 328.773039 380.910117 
L 346.672519 393.836991 
L 364.572 393.836991 
L 382.471481 389.22025 
L 400.370961 407.687212 
L 418.270442 406.763864 
L 436.169922 399.377079 
L 454.069403 407.687212 
L 471.968883 383.680161 
L 489.868364 391.066946 
L 507.767844 402.147124 
L 525.667325 415.997345 
L 543.566805 410.457257 
L 561.466286 413.227301 
L 579.365766 414.150649 
L 597.265247 406.763864 
L 615.164727 401.223776 
" clip-path="url(#p5e1c45cf1c)" style="fill: none; stroke: #2ca02c; stroke-width: 1.5; stroke-linecap: square"/>
   </g>
   <g id="line2d_42">
    <path d="M 113.979273 273.801736 
L 131.878753 316.275749 
L 149.778234 304.272224 
L 167.677714 348.592933 
L 185.577195 358.749762 
L 203.476675 360.596459 
L 221.376156 347.669585 
L 239.275636 371.676636 
L 257.175117 375.370028 
L 275.074597 370.753288 
L 292.974078 379.063421 
L 310.873558 377.216725 
L 328.773039 382.756813 
L 346.672519 374.44668 
L 364.572 391.066946 
L 382.471481 388.296902 
L 400.370961 382.756813 
L 418.270442 384.60351 
L 436.169922 389.22025 
L 454.069403 365.213199 
L 471.968883 393.836991 
L 489.868364 401.223776 
L 507.767844 402.147124 
L 525.667325 392.913643 
L 543.566805 388.296902 
L 561.466286 404.917168 
L 579.365766 398.453731 
L 597.265247 400.300427 
L 615.164727 401.223776 
" clip-path="url(#p5e1c45cf1c)" style="fill: none; stroke: #d62728; stroke-width: 1.5; stroke-linecap: square"/>
   </g>
   <g id="line2d_43">
    <path d="M 113.979273 287.651957 
L 131.878753 343.976192 
L 149.778234 363.366503 
L 167.677714 361.519807 
L 185.577195 344.899541 
L 203.476675 376.293376 
L 221.376156 344.899541 
L 239.275636 375.370028 
L 257.175117 378.140073 
L 275.074597 371.676636 
L 292.974078 376.293376 
L 310.873558 368.906592 
L 328.773039 386.450206 
L 346.672519 391.990294 
L 364.572 379.063421 
L 382.471481 379.986769 
L 400.370961 380.910117 
L 418.270442 384.60351 
L 436.169922 392.913643 
L 454.069403 386.450206 
L 471.968883 396.607035 
L 489.868364 398.453731 
L 507.767844 411.380605 
L 525.667325 390.143598 
L 543.566805 384.60351 
L 561.466286 387.373554 
L 579.365766 399.377079 
L 597.265247 404.917168 
L 615.164727 409.533909 
" clip-path="url(#p5e1c45cf1c)" style="fill: none; stroke: #9467bd; stroke-width: 1.5; stroke-linecap: square"/>
   </g>
   <g id="line2d_44">
    <path d="M 113.979273 264.568255 
L 131.878753 329.202623 
L 149.778234 342.129496 
L 167.677714 359.67311 
L 185.577195 341.206148 
L 203.476675 361.519807 
L 221.376156 357.826414 
L 239.275636 359.67311 
L 257.175117 371.676636 
L 275.074597 373.523332 
L 292.974078 379.063421 
L 310.873558 388.296902 
L 328.773039 395.683687 
L 346.672519 375.370028 
L 364.572 380.910117 
L 382.471481 379.063421 
L 400.370961 380.910117 
L 418.270442 400.300427 
L 436.169922 391.990294 
L 454.069403 392.913643 
L 471.968883 389.22025 
L 489.868364 394.760339 
L 507.767844 387.373554 
L 525.667325 403.070472 
L 543.566805 396.607035 
L 561.466286 392.913643 
L 579.365766 397.530383 
L 597.265247 392.913643 
L 615.164727 400.300427 
" clip-path="url(#p5e1c45cf1c)" style="fill: none; stroke: #8c564b; stroke-width: 1.5; stroke-linecap: square"/>
   </g>
   <g id="patch_9">
    <path d="M 88.92 423.5688 
L 88.92 256.9968 
" style="fill: none; stroke: #000000; stroke-width: 0.8; stroke-linejoin: miter; stroke-linecap: square"/>
   </g>
   <g id="patch_10">
    <path d="M 640.224 423.5688 
L 640.224 256.9968 
" style="fill: none; stroke: #000000; stroke-width: 0.8; stroke-linejoin: miter; stroke-linecap: square"/>
   </g>
   <g id="patch_11">
    <path d="M 88.92 423.5688 
L 640.224 423.5688 
" style="fill: none; stroke: #000000; stroke-width: 0.8; stroke-linejoin: miter; stroke-linecap: square"/>
   </g>
   <g id="patch_12">
    <path d="M 88.92 256.9968 
L 640.224 256.9968 
" style="fill: none; stroke: #000000; stroke-width: 0.8; stroke-linejoin: miter; stroke-linecap: square"/>
   </g>
   <g id="legend_2">
    <g id="patch_13">
     <path d="M 482.119313 353.06555 
L 633.224 353.06555 
Q 635.224 353.06555 635.224 351.06555 
L 635.224 263.9968 
Q 635.224 261.9968 633.224 261.9968 
L 482.119313 261.9968 
Q 480.119313 261.9968 480.119313 263.9968 
L 480.119313 351.06555 
Q 480.119313 353.06555 482.119313 353.06555 
z
" style="fill: #ffffff; opacity: 0.8; stroke: #cccccc; stroke-linejoin: miter"/>
    </g>
    <g id="line2d_45">
     <path d="M 484.119313 270.095237 
L 494.119313 270.095237 
L 504.119313 270.095237 
" style="fill: none; stroke: #1f77b4; stroke-width: 1.5; stroke-linecap: square"/>
    </g>
    <g id="text_35">
     <!-- ITER RBTL -->
     <g transform="translate(512.119313 273.595237) scale(0.1 -0.1)">
      <use xlink:href="#DejaVuSans-49"/>
      <use xlink:href="#DejaVuSans-54" x="29.492188"/>
      <use xlink:href="#DejaVuSans-45" x="90.576172"/>
      <use xlink:href="#DejaVuSans-52" x="153.759766"/>
      <use xlink:href="#DejaVuSans-20" x="223.242188"/>
      <use xlink:href="#DejaVuSans-52" x="255.029297"/>
      <use xlink:href="#DejaVuSans-42" x="324.511719"/>
      <use xlink:href="#DejaVuSans-54" x="393.115234"/>
      <use xlink:href="#DejaVuSans-4c" x="454.199219"/>
     </g>
    </g>
    <g id="line2d_46">
     <path d="M 484.119313 284.773362 
L 494.119313 284.773362 
L 504.119313 284.773362 
" style="fill: none; stroke: #ff7f0e; stroke-width: 1.5; stroke-linecap: square"/>
    </g>
    <g id="text_36">
     <!-- ITER BTL -->
     <g transform="translate(512.119313 288.273362) scale(0.1 -0.1)">
      <use xlink:href="#DejaVuSans-49"/>
      <use xlink:href="#DejaVuSans-54" x="29.492188"/>
      <use xlink:href="#DejaVuSans-45" x="90.576172"/>
      <use xlink:href="#DejaVuSans-52" x="153.759766"/>
      <use xlink:href="#DejaVuSans-20" x="223.242188"/>
      <use xlink:href="#DejaVuSans-42" x="255.029297"/>
      <use xlink:href="#DejaVuSans-54" x="323.632812"/>
      <use xlink:href="#DejaVuSans-4c" x="384.716797"/>
     </g>
    </g>
    <g id="line2d_47">
     <path d="M 484.119313 299.451487 
L 494.119313 299.451487 
L 504.119313 299.451487 
" style="fill: none; stroke: #2ca02c; stroke-width: 1.5; stroke-linecap: square"/>
    </g>
    <g id="text_37">
     <!-- ITER KEMENY -->
     <g transform="translate(512.119313 302.951487) scale(0.1 -0.1)">
      <use xlink:href="#DejaVuSans-49"/>
      <use xlink:href="#DejaVuSans-54" x="29.492188"/>
      <use xlink:href="#DejaVuSans-45" x="90.576172"/>
      <use xlink:href="#DejaVuSans-52" x="153.759766"/>
      <use xlink:href="#DejaVuSans-20" x="223.242188"/>
      <use xlink:href="#DejaVuSans-4b" x="255.029297"/>
      <use xlink:href="#DejaVuSans-45" x="320.605469"/>
      <use xlink:href="#DejaVuSans-4d" x="383.789062"/>
      <use xlink:href="#DejaVuSans-45" x="470.068359"/>
      <use xlink:href="#DejaVuSans-4e" x="533.251953"/>
      <use xlink:href="#DejaVuSans-59" x="608.056641"/>
     </g>
    </g>
    <g id="line2d_48">
     <path d="M 484.119313 314.129613 
L 494.119313 314.129613 
L 504.119313 314.129613 
" style="fill: none; stroke: #d62728; stroke-width: 1.5; stroke-linecap: square"/>
    </g>
    <g id="text_38">
     <!-- ITER BORDA -->
     <g transform="translate(512.119313 317.629613) scale(0.1 -0.1)">
      <use xlink:href="#DejaVuSans-49"/>
      <use xlink:href="#DejaVuSans-54" x="29.492188"/>
      <use xlink:href="#DejaVuSans-45" x="90.576172"/>
      <use xlink:href="#DejaVuSans-52" x="153.759766"/>
      <use xlink:href="#DejaVuSans-20" x="223.242188"/>
      <use xlink:href="#DejaVuSans-42" x="255.029297"/>
      <use xlink:href="#DejaVuSans-4f" x="321.882812"/>
      <use xlink:href="#DejaVuSans-52" x="400.59375"/>
      <use xlink:href="#DejaVuSans-44" x="470.076172"/>
      <use xlink:href="#DejaVuSans-41" x="545.328125"/>
     </g>
    </g>
    <g id="line2d_49">
     <path d="M 484.119313 328.807738 
L 494.119313 328.807738 
L 504.119313 328.807738 
" style="fill: none; stroke: #9467bd; stroke-width: 1.5; stroke-linecap: square"/>
    </g>
    <g id="text_39">
     <!-- ITER WEIGHTED BORDA -->
     <g transform="translate(512.119313 332.307738) scale(0.1 -0.1)">
      <use xlink:href="#DejaVuSans-49"/>
      <use xlink:href="#DejaVuSans-54" x="29.492188"/>
      <use xlink:href="#DejaVuSans-45" x="90.576172"/>
      <use xlink:href="#DejaVuSans-52" x="153.759766"/>
      <use xlink:href="#DejaVuSans-20" x="223.242188"/>
      <use xlink:href="#DejaVuSans-57" x="255.029297"/>
      <use xlink:href="#DejaVuSans-45" x="353.90625"/>
      <use xlink:href="#DejaVuSans-49" x="417.089844"/>
      <use xlink:href="#DejaVuSans-47" x="446.582031"/>
      <use xlink:href="#DejaVuSans-48" x="524.072266"/>
      <use xlink:href="#DejaVuSans-54" x="599.267578"/>
      <use xlink:href="#DejaVuSans-45" x="660.351562"/>
      <use xlink:href="#DejaVuSans-44" x="723.535156"/>
      <use xlink:href="#DejaVuSans-20" x="800.537109"/>
      <use xlink:href="#DejaVuSans-42" x="832.324219"/>
      <use xlink:href="#DejaVuSans-4f" x="899.177734"/>
      <use xlink:href="#DejaVuSans-52" x="977.888672"/>
      <use xlink:href="#DejaVuSans-44" x="1047.371094"/>
      <use xlink:href="#DejaVuSans-41" x="1122.623047"/>
     </g>
    </g>
    <g id="line2d_50">
     <path d="M 484.119313 343.485862 
L 494.119313 343.485862 
L 504.119313 343.485862 
" style="fill: none; stroke: #8c564b; stroke-width: 1.5; stroke-linecap: square"/>
    </g>
    <g id="text_40">
     <!-- ITER WIN COUNT -->
     <g transform="translate(512.119313 346.985862) scale(0.1 -0.1)">
      <use xlink:href="#DejaVuSans-49"/>
      <use xlink:href="#DejaVuSans-54" x="29.492188"/>
      <use xlink:href="#DejaVuSans-45" x="90.576172"/>
      <use xlink:href="#DejaVuSans-52" x="153.759766"/>
      <use xlink:href="#DejaVuSans-20" x="223.242188"/>
      <use xlink:href="#DejaVuSans-57" x="255.029297"/>
      <use xlink:href="#DejaVuSans-49" x="353.90625"/>
      <use xlink:href="#DejaVuSans-4e" x="383.398438"/>
      <use xlink:href="#DejaVuSans-20" x="458.203125"/>
      <use xlink:href="#DejaVuSans-43" x="489.990234"/>
      <use xlink:href="#DejaVuSans-4f" x="559.814453"/>
      <use xlink:href="#DejaVuSans-55" x="638.525391"/>
      <use xlink:href="#DejaVuSans-4e" x="711.71875"/>
      <use xlink:href="#DejaVuSans-54" x="786.523438"/>
     </g>
    </g>
   </g>
  </g>
  <g id="text_41">
   <!-- Comparison of Voting Methods, |V| = 30 -->
   <g transform="translate(235.244063 18.689025) scale(0.12 -0.12)">
    <defs>
     <path id="DejaVuSans-56" d="M 1831 0 
L 50 4666 
L 709 4666 
L 2188 738 
L 3669 4666 
L 4325 4666 
L 2547 0 
L 1831 0 
z
" transform="scale(0.015625)"/>
     <path id="DejaVuSans-67" d="M 2906 1791 
Q 2906 2416 2648 2759 
Q 2391 3103 1925 3103 
Q 1463 3103 1205 2759 
Q 947 2416 947 1791 
Q 947 1169 1205 825 
Q 1463 481 1925 481 
Q 2391 481 2648 825 
Q 2906 1169 2906 1791 
z
M 3481 434 
Q 3481 -459 3084 -895 
Q 2688 -1331 1869 -1331 
Q 1566 -1331 1297 -1286 
Q 1028 -1241 775 -1147 
L 775 -588 
Q 1028 -725 1275 -790 
Q 1522 -856 1778 -856 
Q 2344 -856 2625 -561 
Q 2906 -266 2906 331 
L 2906 616 
Q 2728 306 2450 153 
Q 2172 0 1784 0 
Q 1141 0 747 490 
Q 353 981 353 1791 
Q 353 2603 747 3093 
Q 1141 3584 1784 3584 
Q 2172 3584 2450 3431 
Q 2728 3278 2906 2969 
L 2906 3500 
L 3481 3500 
L 3481 434 
z
" transform="scale(0.015625)"/>
     <path id="DejaVuSans-68" d="M 3513 2113 
L 3513 0 
L 2938 0 
L 2938 2094 
Q 2938 2591 2744 2837 
Q 2550 3084 2163 3084 
Q 1697 3084 1428 2787 
Q 1159 2491 1159 1978 
L 1159 0 
L 581 0 
L 581 4863 
L 1159 4863 
L 1159 2956 
Q 1366 3272 1645 3428 
Q 1925 3584 2291 3584 
Q 2894 3584 3203 3211 
Q 3513 2838 3513 2113 
z
" transform="scale(0.015625)"/>
     <path id="DejaVuSans-2c" d="M 750 794 
L 1409 794 
L 1409 256 
L 897 -744 
L 494 -744 
L 750 256 
L 750 794 
z
" transform="scale(0.015625)"/>
     <path id="DejaVuSans-7c" d="M 1344 4891 
L 1344 -1509 
L 813 -1509 
L 813 4891 
L 1344 4891 
z
" transform="scale(0.015625)"/>
     <path id="DejaVuSans-3d" d="M 678 2906 
L 4684 2906 
L 4684 2381 
L 678 2381 
L 678 2906 
z
M 678 1631 
L 4684 1631 
L 4684 1100 
L 678 1100 
L 678 1631 
z
" transform="scale(0.015625)"/>
    </defs>
    <use xlink:href="#DejaVuSans-43"/>
    <use xlink:href="#DejaVuSans-6f" x="69.824219"/>
    <use xlink:href="#DejaVuSans-6d" x="131.005859"/>
    <use xlink:href="#DejaVuSans-70" x="228.417969"/>
    <use xlink:href="#DejaVuSans-61" x="291.894531"/>
    <use xlink:href="#DejaVuSans-72" x="353.173828"/>
    <use xlink:href="#DejaVuSans-69" x="394.287109"/>
    <use xlink:href="#DejaVuSans-73" x="422.070312"/>
    <use xlink:href="#DejaVuSans-6f" x="474.169922"/>
    <use xlink:href="#DejaVuSans-6e" x="535.351562"/>
    <use xlink:href="#DejaVuSans-20" x="598.730469"/>
    <use xlink:href="#DejaVuSans-6f" x="630.517578"/>
    <use xlink:href="#DejaVuSans-66" x="691.699219"/>
    <use xlink:href="#DejaVuSans-20" x="726.904297"/>
    <use xlink:href="#DejaVuSans-56" x="758.691406"/>
    <use xlink:href="#DejaVuSans-6f" x="819.349609"/>
    <use xlink:href="#DejaVuSans-74" x="880.53125"/>
    <use xlink:href="#DejaVuSans-69" x="919.740234"/>
    <use xlink:href="#DejaVuSans-6e" x="947.523438"/>
    <use xlink:href="#DejaVuSans-67" x="1010.902344"/>
    <use xlink:href="#DejaVuSans-20" x="1074.378906"/>
    <use xlink:href="#DejaVuSans-4d" x="1106.166016"/>
    <use xlink:href="#DejaVuSans-65" x="1192.445312"/>
    <use xlink:href="#DejaVuSans-74" x="1253.96875"/>
    <use xlink:href="#DejaVuSans-68" x="1293.177734"/>
    <use xlink:href="#DejaVuSans-6f" x="1356.556641"/>
    <use xlink:href="#DejaVuSans-64" x="1417.738281"/>
    <use xlink:href="#DejaVuSans-73" x="1481.214844"/>
    <use xlink:href="#DejaVuSans-2c" x="1533.314453"/>
    <use xlink:href="#DejaVuSans-20" x="1565.101562"/>
    <use xlink:href="#DejaVuSans-7c" x="1596.888672"/>
    <use xlink:href="#DejaVuSans-56" x="1630.580078"/>
    <use xlink:href="#DejaVuSans-7c" x="1698.988281"/>
    <use xlink:href="#DejaVuSans-20" x="1732.679688"/>
    <use xlink:href="#DejaVuSans-3d" x="1764.466797"/>
    <use xlink:href="#DejaVuSans-20" x="1848.255859"/>
    <use xlink:href="#DejaVuSans-33" x="1880.042969"/>
    <use xlink:href="#DejaVuSans-30" x="1943.666016"/>
   </g>
  </g>
 </g>
 <defs>
  <clipPath id="p4e9cdf5529">
   <rect x="88.92" y="57.1104" width="551.304" height="166.572"/>
  </clipPath>
  <clipPath id="p5e1c45cf1c">
   <rect x="88.92" y="256.9968" width="551.304" height="166.572"/>
  </clipPath>
 </defs>
</svg>
