<?xml version="1.0" encoding="UTF-8" standalone="no"?>
<!DOCTYPE svg PUBLIC "-//W3C//DTD SVG 1.1//EN"
 "http://www.w3.org/Graphics/SVG/1.1/DTD/svg11.dtd">
<!-- Generated by graphviz version 7.1.0 (0)
 -->
<!-- Pages: 1 -->
<svg width="320pt" height="302pt"
 viewBox="0.00 0.00 319.59 302.19" xmlns="http://www.w3.org/2000/svg" xmlns:xlink="http://www.w3.org/1999/xlink">
<g id="graph0" class="graph" transform="scale(1 1) rotate(0) translate(4 298.19)">
<polygon fill="white" stroke="none" points="-4,4 -4,-298.19 315.59,-298.19 315.59,4 -4,4"/>
<!-- a -->
<g id="node1" class="node">
<title>a</title>
<ellipse fill="none" stroke="red" cx="27" cy="-127.94" rx="27" ry="18"/>
<text text-anchor="middle" x="27" y="-124.24" font-family="Times,serif" font-size="14.00">0.72</text>
</g>
<!-- b -->
<g id="node2" class="node">
<title>b</title>
<ellipse fill="none" stroke="blue" cx="284.59" cy="-166" rx="27" ry="18"/>
<text text-anchor="middle" x="284.59" y="-162.3" font-family="Times,serif" font-size="14.00">0.32</text>
</g>
<!-- a&#45;&#45;b -->
<g id="edge1" class="edge">
<title>a&#45;&#45;b</title>
<path fill="none" stroke="yellow" d="M51.55,-135.82C99.8,-146.34 206.66,-162.16 257.15,-166.32"/>
</g>
<!-- a&#45;&#45;b -->
<g id="edge2" class="edge">
<title>a&#45;&#45;b</title>
<path fill="none" stroke="green" d="M54.23,-127.61C104.58,-131.73 211.52,-147.56 259.9,-158.09"/>
</g>
<!-- c -->
<g id="node3" class="node">
<title>c</title>
<ellipse fill="none" stroke="yellow" cx="174.54" cy="-18" rx="27" ry="18"/>
<text text-anchor="middle" x="174.54" y="-14.3" font-family="Times,serif" font-size="14.00">0.95</text>
</g>
<!-- a&#45;&#45;c -->
<g id="edge3" class="edge">
<title>a&#45;&#45;c</title>
<path fill="none" stroke="blue" d="M49.12,-117.36C79.99,-97.82 134.9,-56.79 160.64,-33.91"/>
</g>
<!-- a&#45;&#45;c -->
<g id="edge4" class="edge">
<title>a&#45;&#45;c</title>
<path fill="none" stroke="green" d="M40.7,-112.2C66.31,-89.4 121.26,-48.33 152.24,-28.69"/>
</g>
<!-- d -->
<g id="node4" class="node">
<title>d</title>
<ellipse fill="none" stroke="green" cx="136.27" cy="-276.19" rx="27" ry="18"/>
<text text-anchor="middle" x="136.27" y="-272.49" font-family="Times,serif" font-size="14.00">0.45</text>
</g>
<!-- a&#45;&#45;d -->
<g id="edge5" class="edge">
<title>a&#45;&#45;d</title>
<path fill="none" stroke="blue" d="M34.64,-145.51C52.45,-175.09 95.78,-234.02 119.84,-261.53"/>
</g>
<!-- a&#45;&#45;d -->
<g id="edge6" class="edge">
<title>a&#45;&#45;d</title>
<path fill="none" stroke="yellow" d="M43.39,-142.55C67.46,-170.07 110.88,-229.12 128.68,-258.7"/>
</g>
<!-- b&#45;&#45;c -->
<g id="edge7" class="edge">
<title>b&#45;&#45;c</title>
<path fill="none" stroke="red" d="M276.86,-148.45C258.9,-118.9 215.26,-60.07 191.05,-32.61"/>
</g>
<!-- b&#45;&#45;c -->
<g id="edge8" class="edge">
<title>b&#45;&#45;c</title>
<path fill="none" stroke="green" d="M268.12,-151.44C243.9,-123.97 200.17,-65.03 182.22,-35.48"/>
</g>
<!-- b&#45;&#45;d -->
<g id="edge9" class="edge">
<title>b&#45;&#45;d</title>
<path fill="none" stroke="red" d="M262.38,-176.61C231.19,-196.3 175.56,-237.76 149.85,-260.61"/>
</g>
<!-- b&#45;&#45;d -->
<g id="edge10" class="edge">
<title>b&#45;&#45;d</title>
<path fill="none" stroke="yellow" d="M270.79,-181.77C245.04,-204.62 189.8,-245.79 158.66,-265.47"/>
</g>
<!-- c&#45;&#45;d -->
<g id="edge11" class="edge">
<title>c&#45;&#45;d</title>
<path fill="none" stroke="red" d="M168.22,-35.62C157.1,-82.54 138.2,-210.15 135.31,-257.87"/>
</g>
<!-- c&#45;&#45;d -->
<g id="edge12" class="edge">
<title>c&#45;&#45;d</title>
<path fill="none" stroke="blue" d="M175.5,-36.28C172.63,-83.94 153.73,-211.54 142.6,-258.52"/>
</g>
</g>
</svg>
