<?xml version="1.0" encoding="UTF-8" standalone="no"?>
<!DOCTYPE svg PUBLIC "-//W3C//DTD SVG 1.1//EN"
 "http://www.w3.org/Graphics/SVG/1.1/DTD/svg11.dtd">
<!-- Generated by graphviz version 7.1.0 (0)
 -->
<!-- Pages: 1 -->
<svg width="336pt" height="302pt"
 viewBox="0.00 0.00 336.43 302.19" xmlns="http://www.w3.org/2000/svg" xmlns:xlink="http://www.w3.org/1999/xlink">
<g id="graph0" class="graph" transform="scale(1 1) rotate(0) translate(4 298.19)">
<polygon fill="white" stroke="none" points="-4,4 -4,-298.19 332.43,-298.19 332.43,4 -4,4"/>
<!-- a -->
<g id="node1" class="node">
<title>a</title>
<ellipse fill="none" stroke="red" cx="35.1" cy="-127.94" rx="35.19" ry="18"/>
<text text-anchor="middle" x="35.1" y="-124.24" font-family="Times,serif" font-size="14.00">a: 0.72</text>
</g>
<!-- b -->
<g id="node2" class="node">
<title>b</title>
<ellipse fill="none" stroke="blue" cx="292.69" cy="-166" rx="36" ry="18"/>
<text text-anchor="middle" x="292.69" y="-162.3" font-family="Times,serif" font-size="14.00">b: 0.32</text>
</g>
<!-- a&#45;&#45;b -->
<g id="edge1" class="edge">
<title>a&#45;&#45;b</title>
<path fill="none" stroke="purple" d="M66.01,-137.17C113.83,-147.04 205.53,-160.66 256.42,-165.53"/>
</g>
<!-- a&#45;&#45;b -->
<g id="edge2" class="edge">
<title>a&#45;&#45;b</title>
<path fill="none" stroke="green" d="M70.54,-128.33C121.05,-133.11 212.96,-146.74 261.2,-156.65"/>
</g>
<!-- c -->
<g id="node3" class="node">
<title>c</title>
<ellipse fill="none" stroke="purple" cx="182.64" cy="-18" rx="35.19" ry="18"/>
<text text-anchor="middle" x="182.64" y="-14.3" font-family="Times,serif" font-size="14.00">c: 0.95</text>
</g>
<!-- a&#45;&#45;c -->
<g id="edge3" class="edge">
<title>a&#45;&#45;c</title>
<path fill="none" stroke="blue" d="M60.5,-115.26C91.47,-95.25 142.65,-56.93 167.83,-34.71"/>
</g>
<!-- a&#45;&#45;c -->
<g id="edge4" class="edge">
<title>a&#45;&#45;c</title>
<path fill="none" stroke="green" d="M49.88,-111.24C75.02,-89.06 126.1,-50.81 157.1,-30.77"/>
</g>
<!-- d -->
<g id="node4" class="node">
<title>d</title>
<ellipse fill="none" stroke="green" cx="144.37" cy="-276.19" rx="36" ry="18"/>
<text text-anchor="middle" x="144.37" y="-272.49" font-family="Times,serif" font-size="14.00">d: 0.45</text>
</g>
<!-- a&#45;&#45;d -->
<g id="edge5" class="edge">
<title>a&#45;&#45;d</title>
<path fill="none" stroke="blue" d="M42.91,-145.8C60.57,-175.03 102.66,-232.34 126.84,-260.27"/>
</g>
<!-- a&#45;&#45;d -->
<g id="edge6" class="edge">
<title>a&#45;&#45;d</title>
<path fill="none" stroke="purple" d="M52.7,-143.94C76.84,-171.84 118.74,-228.89 136.44,-258.15"/>
</g>
<!-- b&#45;&#45;c -->
<g id="edge7" class="edge">
<title>b&#45;&#45;c</title>
<path fill="none" stroke="red" d="M284.78,-148.15C266.98,-118.96 224.58,-61.74 200.25,-33.87"/>
</g>
<!-- b&#45;&#45;c -->
<g id="edge8" class="edge">
<title>b&#45;&#45;c</title>
<path fill="none" stroke="green" d="M275,-150.05C250.58,-122.06 208.06,-64.65 190.37,-35.57"/>
</g>
<!-- b&#45;&#45;d -->
<g id="edge9" class="edge">
<title>b&#45;&#45;d</title>
<path fill="none" stroke="red" d="M266.83,-178.94C235.64,-199.08 184.4,-237.34 159.19,-259.52"/>
</g>
<!-- b&#45;&#45;d -->
<g id="edge10" class="edge">
<title>b&#45;&#45;d</title>
<path fill="none" stroke="purple" d="M277.81,-182.73C252.59,-204.9 201.46,-243.08 170.29,-263.22"/>
</g>
<!-- c&#45;&#45;d -->
<g id="edge11" class="edge">
<title>c&#45;&#45;d</title>
<path fill="none" stroke="red" d="M176.22,-36.03C165.08,-83.3 146.26,-210.43 143.4,-257.95"/>
</g>
<!-- c&#45;&#45;d -->
<g id="edge12" class="edge">
<title>c&#45;&#45;d</title>
<path fill="none" stroke="blue" d="M183.6,-36.28C180.73,-83.83 161.92,-210.92 150.78,-258.17"/>
</g>
</g>
</svg>
