<?xml version="1.0" encoding="UTF-8" standalone="no"?>
<!DOCTYPE svg PUBLIC "-//W3C//DTD SVG 1.1//EN"
 "http://www.w3.org/Graphics/SVG/1.1/DTD/svg11.dtd">
<!-- Generated by graphviz version 7.1.0 (0)
 -->
<!-- Pages: 1 -->
<svg width="389pt" height="443pt"
 viewBox="0.00 0.00 389.13 443.38" xmlns="http://www.w3.org/2000/svg" xmlns:xlink="http://www.w3.org/1999/xlink">
<g id="graph0" class="graph" transform="scale(1 1) rotate(0) translate(4 439.38)">
<polygon fill="white" stroke="none" points="-4,4 -4,-439.38 385.13,-439.38 385.13,4 -4,4"/>
<!-- 0 -->
<g id="node1" class="node">
<title>0</title>
<ellipse fill="none" stroke="#e41a1c" cx="78.51" cy="-222.58" rx="27" ry="18"/>
<text text-anchor="middle" x="78.51" y="-218.88" font-family="Times,serif" font-size="14.00">0</text>
</g>
<!-- 1 -->
<g id="node2" class="node">
<title>1</title>
<ellipse fill="none" stroke="#377eb8" cx="354.13" cy="-243.82" rx="27" ry="18"/>
<text text-anchor="middle" x="354.13" y="-240.12" font-family="Times,serif" font-size="14.00">1</text>
</g>
<!-- 0&#45;&#45;1 -->
<g id="edge7" class="edge">
<title>0&#45;&#45;1</title>
<path fill="none" stroke="#984ea3" d="M105.69,-224.67C158.52,-228.75 274.49,-237.69 327.15,-241.75"/>
</g>
<!-- 2 -->
<g id="node3" class="node">
<title>2</title>
<ellipse fill="none" stroke="#4daf4a" cx="220.43" cy="-52.71" rx="27" ry="18"/>
<text text-anchor="middle" x="220.43" y="-49.01" font-family="Times,serif" font-size="14.00">2</text>
</g>
<!-- 0&#45;&#45;2 -->
<g id="edge4" class="edge">
<title>0&#45;&#45;2</title>
<path fill="none" stroke="#377eb8" d="M91.86,-206.6C118.91,-174.22 179.9,-101.21 207.01,-68.77"/>
</g>
<!-- 3 -->
<g id="node4" class="node">
<title>3</title>
<ellipse fill="none" stroke="#984ea3" cx="148.16" cy="-342.73" rx="27" ry="18"/>
<text text-anchor="middle" x="148.16" y="-339.03" font-family="Times,serif" font-size="14.00">3</text>
</g>
<!-- 0&#45;&#45;3 -->
<g id="edge6" class="edge">
<title>0&#45;&#45;3</title>
<path fill="none" stroke="#4daf4a" d="M88.49,-239.79C101.73,-262.64 124.97,-302.73 138.2,-325.55"/>
</g>
<!-- 5 -->
<g id="node6" class="node">
<title>5</title>
<ellipse fill="none" stroke="#ffff33" cx="273.25" cy="-417.38" rx="27" ry="18"/>
<text text-anchor="middle" x="273.25" y="-413.68" font-family="Times,serif" font-size="14.00">5</text>
</g>
<!-- 0&#45;&#45;5 -->
<g id="edge15" class="edge">
<title>0&#45;&#45;5</title>
<path fill="none" stroke="#a65628" d="M93.79,-237.86C130.2,-274.28 221.71,-365.82 258.04,-402.17"/>
</g>
<!-- 6 -->
<g id="node7" class="node">
<title>6</title>
<ellipse fill="none" stroke="#a65628" cx="27" cy="-18" rx="27" ry="18"/>
<text text-anchor="middle" x="27" y="-14.3" font-family="Times,serif" font-size="14.00">6</text>
</g>
<!-- 0&#45;&#45;6 -->
<g id="edge12" class="edge">
<title>0&#45;&#45;6</title>
<path fill="none" stroke="#ffff33" d="M73.94,-204.42C64.17,-165.6 41.33,-74.9 31.56,-36.11"/>
</g>
<!-- 1&#45;&#45;2 -->
<g id="edge1" class="edge">
<title>1&#45;&#45;2</title>
<path fill="none" stroke="#e41a1c" d="M342.5,-227.2C317.21,-191.05 257.48,-105.66 232.13,-69.43"/>
</g>
<!-- 1&#45;&#45;3 -->
<g id="edge16" class="edge">
<title>1&#45;&#45;3</title>
<path fill="none" stroke="#a65628" d="M332.09,-254.41C292.55,-273.4 210.01,-313.04 170.36,-332.08"/>
</g>
<!-- 4 -->
<g id="node5" class="node">
<title>4</title>
<ellipse fill="none" stroke="#ff7f00" cx="222.4" cy="-182.23" rx="27" ry="18"/>
<text text-anchor="middle" x="222.4" y="-178.53" font-family="Times,serif" font-size="14.00">4</text>
</g>
<!-- 1&#45;&#45;4 -->
<g id="edge11" class="edge">
<title>1&#45;&#45;4</title>
<path fill="none" stroke="#ffff33" d="M331.79,-233.38C307.56,-222.05 269.12,-204.07 244.86,-192.73"/>
</g>
<!-- 1&#45;&#45;5 -->
<g id="edge5" class="edge">
<title>1&#45;&#45;5</title>
<path fill="none" stroke="#4daf4a" d="M345.93,-261.42C330.43,-294.69 296.99,-366.44 281.47,-399.74"/>
</g>
<!-- 2&#45;&#45;3 -->
<g id="edge13" class="edge">
<title>2&#45;&#45;3</title>
<path fill="none" stroke="#ffff33" d="M215.91,-70.85C202.93,-122.94 165.66,-272.52 152.68,-324.6"/>
</g>
<!-- 2&#45;&#45;4 -->
<g id="edge14" class="edge">
<title>2&#45;&#45;4</title>
<path fill="none" stroke="#a65628" d="M220.71,-70.99C221.08,-95.68 221.75,-139.4 222.12,-164.04"/>
</g>
<!-- 2&#45;&#45;6 -->
<g id="edge10" class="edge">
<title>2&#45;&#45;6</title>
<path fill="none" stroke="#ff7f00" d="M193.94,-47.95C157,-41.33 90.41,-29.38 53.48,-22.75"/>
</g>
<!-- 3&#45;&#45;4 -->
<g id="edge2" class="edge">
<title>3&#45;&#45;4</title>
<path fill="none" stroke="#e41a1c" d="M156.25,-325.25C170.53,-294.38 200.05,-230.55 214.33,-199.69"/>
</g>
<!-- 3&#45;&#45;5 -->
<g id="edge9" class="edge">
<title>3&#45;&#45;5</title>
<path fill="none" stroke="#ff7f00" d="M168.54,-354.89C191.8,-368.77 229.63,-391.35 252.88,-405.23"/>
</g>
<!-- 4&#45;&#45;5 -->
<g id="edge8" class="edge">
<title>4&#45;&#45;5</title>
<path fill="none" stroke="#984ea3" d="M226.31,-200.29C235.77,-244.06 259.85,-355.42 269.33,-399.26"/>
</g>
<!-- 4&#45;&#45;6 -->
<g id="edge3" class="edge">
<title>4&#45;&#45;6</title>
<path fill="none" stroke="#377eb8" d="M205.4,-167.94C168.45,-136.88 81.14,-63.51 44.1,-32.37"/>
</g>
</g>
</svg>
