<?xml version="1.0" encoding="UTF-8" standalone="no"?>
<!DOCTYPE svg PUBLIC "-//W3C//DTD SVG 1.1//EN"
 "http://www.w3.org/Graphics/SVG/1.1/DTD/svg11.dtd">
<!-- Generated by graphviz version 7.1.0 (0)
 -->
<!-- Pages: 1 -->
<svg width="314pt" height="291pt"
 viewBox="0.00 0.00 314.12 290.97" xmlns="http://www.w3.org/2000/svg" xmlns:xlink="http://www.w3.org/1999/xlink">
<g id="graph0" class="graph" transform="scale(1 1) rotate(0) translate(4 286.97)">
<polygon fill="white" stroke="none" points="-4,4 -4,-286.97 310.12,-286.97 310.12,4 -4,4"/>
<!-- a -->
<g id="node1" class="node">
<title>a</title>
<ellipse fill="none" stroke="red" cx="27" cy="-121.03" rx="27" ry="18"/>
<text text-anchor="middle" x="27" y="-117.33" font-family="Times,serif" font-size="14.00">a</text>
</g>
<!-- b -->
<g id="node2" class="node">
<title>b</title>
<ellipse fill="none" stroke="blue" cx="279.12" cy="-97.86" rx="27" ry="18"/>
<text text-anchor="middle" x="279.12" y="-94.16" font-family="Times,serif" font-size="14.00">b</text>
</g>
<!-- a&#45;&gt;b -->
<g id="edge1" class="edge">
<title>a&#45;&gt;b</title>
<path fill="none" stroke="yellow" d="M53.98,-118.55C98.88,-114.42 189.09,-106.13 240.65,-101.4"/>
<polygon fill="yellow" stroke="yellow" points="240.81,-104.9 250.44,-100.5 240.17,-97.93 240.81,-104.9"/>
</g>
<!-- d -->
<g id="node4" class="node">
<title>d</title>
<ellipse fill="none" stroke="green" cx="88.68" cy="-264.97" rx="27" ry="18"/>
<text text-anchor="middle" x="88.68" y="-261.27" font-family="Times,serif" font-size="14.00">d</text>
</g>
<!-- a&#45;&gt;d -->
<g id="edge2" class="edge">
<title>a&#45;&gt;d</title>
<path fill="none" stroke="purple" d="M34.56,-138.68C45.12,-163.31 64.37,-208.23 76.83,-237.33"/>
<polygon fill="purple" stroke="purple" points="73.49,-238.43 80.65,-246.24 79.93,-235.67 73.49,-238.43"/>
</g>
<!-- e -->
<g id="node5" class="node">
<title>e</title>
<ellipse fill="none" stroke="purple" cx="243.99" cy="-249.9" rx="27" ry="18"/>
<text text-anchor="middle" x="243.99" y="-246.2" font-family="Times,serif" font-size="14.00">e</text>
</g>
<!-- a&#45;&gt;e -->
<g id="edge3" class="edge">
<title>a&#45;&gt;e</title>
<path fill="none" stroke="blue" d="M47.41,-133.15C85.78,-155.94 168.82,-205.25 213.72,-231.92"/>
<polygon fill="blue" stroke="blue" points="211.79,-234.84 222.17,-236.94 215.36,-228.82 211.79,-234.84"/>
</g>
<!-- b&#45;&gt;d -->
<g id="edge8" class="edge">
<title>b&#45;&gt;d</title>
<path fill="none" stroke="red" d="M262.55,-112.4C229.14,-141.72 153.49,-208.1 113.9,-242.84"/>
<polygon fill="red" stroke="red" points="111.69,-240.13 106.48,-249.35 116.31,-245.39 111.69,-240.13"/>
</g>
<!-- c -->
<g id="node3" class="node">
<title>c</title>
<ellipse fill="none" stroke="yellow" cx="144.4" cy="-18" rx="27" ry="18"/>
<text text-anchor="middle" x="144.4" y="-14.3" font-family="Times,serif" font-size="14.00">c</text>
</g>
<!-- c&#45;&gt;a -->
<g id="edge6" class="edge">
<title>c&#45;&gt;a</title>
<path fill="none" stroke="green" d="M127.83,-32.54C108.08,-49.88 74.87,-79.02 52,-99.09"/>
<polygon fill="green" stroke="green" points="49.83,-96.33 44.63,-105.56 54.45,-101.6 49.83,-96.33"/>
</g>
<!-- c&#45;&gt;b -->
<g id="edge7" class="edge">
<title>c&#45;&gt;b</title>
<path fill="none" stroke="purple" d="M164.86,-30.13C187.35,-43.46 223.67,-64.99 249.32,-80.19"/>
<polygon fill="purple" stroke="purple" points="247.22,-83.02 257.61,-85.11 250.79,-77 247.22,-83.02"/>
</g>
<!-- c&#45;&gt;d -->
<g id="edge5" class="edge">
<title>c&#45;&gt;d</title>
<path fill="none" stroke="blue" d="M140.31,-36.16C130.75,-78.53 106.9,-184.23 95.27,-235.78"/>
<polygon fill="blue" stroke="blue" points="91.9,-234.79 93.12,-245.31 98.73,-236.33 91.9,-234.79"/>
</g>
<!-- c&#45;&gt;e -->
<g id="edge4" class="edge">
<title>c&#45;&gt;e</title>
<path fill="none" stroke="red" d="M151.89,-35.43C169.01,-75.3 211.16,-173.44 231.97,-221.9"/>
<polygon fill="red" stroke="red" points="228.66,-223.07 235.82,-230.87 235.09,-220.3 228.66,-223.07"/>
</g>
<!-- d&#45;&gt;e -->
<g id="edge9" class="edge">
<title>d&#45;&gt;e</title>
<path fill="none" stroke="yellow" d="M115.73,-262.35C140.6,-259.93 177.73,-256.33 205.65,-253.62"/>
<polygon fill="yellow" stroke="yellow" points="205.87,-257.11 215.48,-252.66 205.19,-250.15 205.87,-257.11"/>
</g>
<!-- e&#45;&gt;b -->
<g id="edge10" class="edge">
<title>e&#45;&gt;b</title>
<path fill="none" stroke="green" d="M248.16,-231.86C254.15,-205.91 265.27,-157.78 272.43,-126.82"/>
<polygon fill="green" stroke="green" points="275.78,-127.88 274.62,-117.35 268.95,-126.3 275.78,-127.88"/>
</g>
</g>
</svg>
