<?xml version="1.0" encoding="UTF-8" standalone="no"?>
<!DOCTYPE svg PUBLIC "-//W3C//DTD SVG 1.1//EN"
 "http://www.w3.org/Graphics/SVG/1.1/DTD/svg11.dtd">
<!-- Generated by graphviz version 7.1.0 (0)
 -->
<!-- Pages: 1 -->
<svg width="303pt" height="252pt"
 viewBox="0.00 0.00 302.64 252.40" xmlns="http://www.w3.org/2000/svg" xmlns:xlink="http://www.w3.org/1999/xlink">
<g id="graph0" class="graph" transform="scale(1 1) rotate(0) translate(4 248.4)">
<polygon fill="white" stroke="none" points="-4,4 -4,-248.4 298.64,-248.4 298.64,4 -4,4"/>
<!-- a -->
<g id="node1" class="node">
<title>a</title>
<ellipse fill="none" stroke="black" cx="207.48" cy="-18" rx="27" ry="18"/>
</g>
<!-- b -->
<g id="node2" class="node">
<title>b</title>
<ellipse fill="none" stroke="black" cx="267.64" cy="-122.2" rx="27" ry="18"/>
</g>
<!-- a&#45;&#45;b -->
<g id="edge2" class="edge">
<title>a&#45;&#45;b</title>
<path fill="none" stroke="black" d="M217.42,-35.21C228.56,-54.51 246.54,-85.65 257.69,-104.97"/>
</g>
<!-- d -->
<g id="node4" class="node">
<title>d</title>
<ellipse fill="none" stroke="black" cx="87.16" cy="-226.4" rx="27" ry="18"/>
</g>
<!-- a&#45;&#45;d -->
<g id="edge3" class="edge">
<title>a&#45;&#45;d</title>
<path fill="none" stroke="black" d="M197.64,-35.05C175.02,-74.23 119.56,-170.28 96.97,-209.4"/>
</g>
<!-- f -->
<g id="node6" class="node">
<title>f</title>
<ellipse fill="none" stroke="black" cx="87.16" cy="-18" rx="27" ry="18"/>
</g>
<!-- a&#45;&#45;f -->
<g id="edge1" class="edge">
<title>a&#45;&#45;f</title>
<path fill="none" stroke="black" d="M180.18,-18C160.49,-18 134.02,-18 114.36,-18"/>
</g>
<!-- c -->
<g id="node3" class="node">
<title>c</title>
<ellipse fill="none" stroke="black" cx="27" cy="-122.2" rx="27" ry="18"/>
</g>
<!-- b&#45;&#45;c -->
<g id="edge5" class="edge">
<title>b&#45;&#45;c</title>
<path fill="none" stroke="black" d="M240.51,-122.2C194.29,-122.2 100.81,-122.2 54.41,-122.2"/>
</g>
<!-- e -->
<g id="node5" class="node">
<title>e</title>
<ellipse fill="none" stroke="black" cx="207.48" cy="-226.4" rx="27" ry="18"/>
</g>
<!-- b&#45;&#45;e -->
<g id="edge4" class="edge">
<title>b&#45;&#45;e</title>
<path fill="none" stroke="black" d="M257.71,-139.41C246.56,-158.71 228.58,-189.85 217.43,-209.17"/>
</g>
<!-- c&#45;&#45;d -->
<g id="edge7" class="edge">
<title>c&#45;&#45;d</title>
<path fill="none" stroke="black" d="M36.93,-139.41C48.08,-158.71 66.06,-189.85 77.21,-209.17"/>
</g>
<!-- c&#45;&#45;f -->
<g id="edge6" class="edge">
<title>c&#45;&#45;f</title>
<path fill="none" stroke="black" d="M36.93,-104.99C48.08,-85.69 66.06,-54.55 77.21,-35.23"/>
</g>
<!-- d&#45;&#45;e -->
<g id="edge8" class="edge">
<title>d&#45;&#45;e</title>
<path fill="none" stroke="black" d="M114.46,-226.4C134.15,-226.4 160.62,-226.4 180.29,-226.4"/>
</g>
<!-- e&#45;&#45;f -->
<g id="edge9" class="edge">
<title>e&#45;&#45;f</title>
<path fill="none" stroke="black" d="M197.64,-209.35C175.02,-170.17 119.56,-74.12 96.97,-35"/>
</g>
</g>
</svg>
