<?xml version="1.0" encoding="UTF-8" standalone="no"?>
<!DOCTYPE svg PUBLIC "-//W3C//DTD SVG 1.1//EN"
 "http://www.w3.org/Graphics/SVG/1.1/DTD/svg11.dtd">
<!-- Generated by graphviz version 8.0.3 (0)
 -->
<!-- Pages: 1 -->
<svg width="303pt" height="252pt"
 viewBox="0.00 0.00 302.64 252.40" xmlns="http://www.w3.org/2000/svg" xmlns:xlink="http://www.w3.org/1999/xlink">
<g id="graph0" class="graph" transform="scale(1 1) rotate(0) translate(4 248.4)">
<polygon fill="white" stroke="none" points="-4,4 -4,-248.4 298.64,-248.4 298.64,4 -4,4"/>
<polygon fill="#ffffff" stroke="none" points="0,0 0,-244.4 294.64,-244.4 294.64,0 0,0"/>
<!-- a -->
<g id="node1" class="node">
<title>a</title>
<ellipse fill="none" stroke="black" cx="207.48" cy="-18" rx="27" ry="18"/>
</g>
<!-- b -->
<g id="node2" class="node">
<title>b</title>
<ellipse fill="none" stroke="black" cx="267.64" cy="-122.2" rx="27" ry="18"/>
</g>
<!-- a&#45;&#45;b -->
<g id="edge1" class="edge">
<title>a&#45;&#45;b</title>
<path fill="none" stroke="black" d="M217.42,-35.21C228.56,-54.51 246.54,-85.65 257.69,-104.97"/>
</g>
<!-- c -->
<g id="node3" class="node">
<title>c</title>
<ellipse fill="none" stroke="black" cx="87.16" cy="-18" rx="27" ry="18"/>
</g>
<!-- a&#45;&#45;c -->
<g id="edge2" class="edge">
<title>a&#45;&#45;c</title>
<path fill="none" stroke="black" d="M180.18,-18C160.49,-18 134.02,-18 114.36,-18"/>
</g>
<!-- e -->
<g id="node4" class="node">
<title>e</title>
<ellipse fill="none" stroke="black" cx="27" cy="-122.2" rx="27" ry="18"/>
</g>
<!-- a&#45;&#45;e -->
<g id="edge3" class="edge">
<title>a&#45;&#45;e</title>
<path fill="none" stroke="black" d="M186.78,-29.95C152.06,-50 82.48,-90.17 47.74,-110.23"/>
</g>
<!-- f -->
<g id="node5" class="node">
<title>f</title>
<ellipse fill="none" stroke="black" cx="207.48" cy="-226.4" rx="27" ry="18"/>
</g>
<!-- a&#45;&#45;f -->
<g id="edge4" class="edge">
<title>a&#45;&#45;f</title>
<path fill="none" stroke="black" d="M207.48,-36.49C207.48,-76.04 207.48,-168.44 207.48,-207.95"/>
</g>
<!-- b&#45;&#45;c -->
<g id="edge5" class="edge">
<title>b&#45;&#45;c</title>
<path fill="none" stroke="black" d="M246.94,-110.25C212.22,-90.2 142.65,-50.03 107.9,-29.97"/>
</g>
<!-- b&#45;&#45;f -->
<g id="edge7" class="edge">
<title>b&#45;&#45;f</title>
<path fill="none" stroke="black" d="M257.71,-139.41C246.56,-158.71 228.58,-189.85 217.43,-209.17"/>
</g>
<!-- d -->
<g id="node6" class="node">
<title>d</title>
<ellipse fill="none" stroke="black" cx="87.16" cy="-226.4" rx="27" ry="18"/>
</g>
<!-- b&#45;&#45;d -->
<g id="edge6" class="edge">
<title>b&#45;&#45;d</title>
<path fill="none" stroke="black" d="M246.94,-134.15C212.22,-154.2 142.65,-194.37 107.9,-214.43"/>
</g>
<!-- c&#45;&#45;e -->
<g id="edge9" class="edge">
<title>c&#45;&#45;e</title>
<path fill="none" stroke="black" d="M77.23,-35.21C66.08,-54.51 48.1,-85.65 36.95,-104.97"/>
</g>
<!-- c&#45;&#45;d -->
<g id="edge8" class="edge">
<title>c&#45;&#45;d</title>
<path fill="none" stroke="black" d="M87.16,-36.49C87.16,-76.04 87.16,-168.44 87.16,-207.95"/>
</g>
<!-- e&#45;&#45;f -->
<g id="edge12" class="edge">
<title>e&#45;&#45;f</title>
<path fill="none" stroke="black" d="M47.7,-134.15C82.43,-154.2 152,-194.37 186.74,-214.43"/>
</g>
<!-- d&#45;&#45;e -->
<g id="edge10" class="edge">
<title>d&#45;&#45;e</title>
<path fill="none" stroke="black" d="M77.23,-209.2C66.08,-189.89 48.1,-158.75 36.95,-139.43"/>
</g>
<!-- d&#45;&#45;f -->
<g id="edge11" class="edge">
<title>d&#45;&#45;f</title>
<path fill="none" stroke="black" d="M114.46,-226.4C134.15,-226.4 160.62,-226.4 180.29,-226.4"/>
</g>
</g>
</svg>
